<svg id="Group_5200" data-name="Group 5200" xmlns="http://www.w3.org/2000/svg" width="17" height="17" viewBox="0 0 17 17">
  <g id="Group_5199" data-name="Group 5199">
    <rect id="Rectangle_4035" data-name="Rectangle 4035" width="17" height="17" fill="none"/>
    <path id="Path_3566" data-name="Path 3566" d="M16.516,6.473,10.67,12.319l-2.657-.013L8,9.65,13.846,3.8Zm1-3.669c-.738-.738-1.652-1.018-2.042-.628L14.422,3.228l2.67,2.67,1.052-1.052c.39-.39.109-1.3-.628-2.042Z" transform="translate(-2.472 -1.217)" fill="#50d8e8" fill-rule="evenodd"/>
    <path id="Path_3567" data-name="Path 3567" d="M9.371,2H2.814A.814.814,0,0,0,2,2.814V15.929a.814.814,0,0,0,.814.814H15.929a.814.814,0,0,0,.814-.814V9.371H15.269v5.9a0,0,0,0,1,0,0H3.469a0,0,0,0,1,0,0V3.469a0,0,0,0,1,0,0h5.9Z" transform="translate(-0.895 -1.217)" fill="#50d8e8" fill-rule="evenodd"/>
  </g>
</svg>
