<svg xmlns="http://www.w3.org/2000/svg" width="45.879" height="38.998" viewBox="0 0 45.879 38.998">
  <g id="user-group" transform="translate(0 -29.114)">
    <path id="Path_3812" data-name="Path 3812" d="M135.526,48.187c4.336,0,7.851-4.27,7.851-9.536s-1.154-9.536-7.851-9.536-7.851,4.27-7.851,9.536S131.19,48.187,135.526,48.187Z" transform="translate(-112.587)" fill="#fff"/>
    <path id="Path_3813" data-name="Path 3813" d="M98.272,210.14c-.145-9.175-1.344-11.789-10.513-13.444a6.442,6.442,0,0,1-8.6,0c-9.069,1.637-10.341,4.212-10.508,13.146-.014.73-.02.768-.022.683,0,.159,0,.452,0,.964,0,0,2.183,4.4,14.828,4.4s14.828-4.4,14.828-4.4c0-.329,0-.558,0-.713A5.775,5.775,0,0,1,98.272,210.14Z" transform="translate(-60.52 -147.778)" fill="#fff"/>
    <path id="Path_3814" data-name="Path 3814" d="M264.6,60.508c3.522,0,6.377-3.468,6.377-7.745s-.937-7.745-6.377-7.745a9.092,9.092,0,0,0-2.38.282,15.631,15.631,0,0,1,1.429,7.375,13.077,13.077,0,0,1-1.958,6.98A5.462,5.462,0,0,0,264.6,60.508Z" transform="translate(-230.768 -14.025)" fill="#fff"/>
    <path id="Path_3815" data-name="Path 3815" d="M296.138,192.044c-.118-7.452-1.091-9.575-8.538-10.919a4.464,4.464,0,0,1-3.492,1.336c-.1,0-.2,0-.3-.007a9.8,9.8,0,0,1,4,3.1c1.8,2.466,2.211,5.778,2.3,10.643,5.01-.99,6.037-3.058,6.037-3.058,0-.269,0-.454,0-.581A4.428,4.428,0,0,1,296.138,192.044Z" transform="translate(-250.272 -134.047)" fill="#fff"/>
    <path id="Path_3816" data-name="Path 3816" d="M54.331,60.509a5.464,5.464,0,0,0,2.91-.854,13.077,13.077,0,0,1-1.958-6.98A15.633,15.633,0,0,1,56.711,45.3a9.09,9.09,0,0,0-2.379-.282c-5.439,0-6.376,3.468-6.376,7.745S50.81,60.509,54.331,60.509Z" transform="translate(-42.288 -14.025)" fill="#fff"/>
    <path id="Path_3817" data-name="Path 3817" d="M12.339,182.452c-.1,0-.194.007-.3.007a4.464,4.464,0,0,1-3.492-1.336C1.1,182.468.132,184.591.014,192.043a4.521,4.521,0,0,1-.014.515c0,.126,0,.311,0,.581,0,0,1.027,2.068,6.037,3.058.086-4.866.5-8.178,2.3-10.643A9.8,9.8,0,0,1,12.339,182.452Z" transform="translate(0 -134.046)" fill="#fff"/>
  </g>
</svg>
