<svg xmlns="http://www.w3.org/2000/svg" width="19" height="19" viewBox="0 0 19 19">
  <g id="noun_edit_551291" transform="translate(-0.5 -0.833)">
    <g id="Group_5200" data-name="Group 5200" transform="translate(0.5 0.833)">
      <g id="Group_5199" data-name="Group 5199">
        <rect id="Rectangle_4035" data-name="Rectangle 4035" width="19" height="19" fill="none"/>
        <path id="Path_3566" data-name="Path 3566" d="M17.518,7l-6.534,6.534-2.97-.014L8,10.549l6.534-6.534Zm1.117-4.1c-.824-.824-1.846-1.138-2.282-.7L15.178,3.373l2.984,2.984L19.338,5.18c.436-.436.122-1.458-.7-2.282Z" transform="translate(-1.822 -1.125)" fill="#056e7f" fill-rule="evenodd"/>
        <path id="Path_3567" data-name="Path 3567" d="M10.239,2H2.909A.909.909,0,0,0,2,2.909V17.568a.909.909,0,0,0,.909.909H17.568a.91.91,0,0,0,.909-.909V10.239H16.83v6.6a.005.005,0,0,1,.005-.005H3.642a.005.005,0,0,1,.005.005V3.642a.005.005,0,0,1-.005.005h6.6Z" transform="translate(-0.765 -1.125)" fill="#056e7f" fill-rule="evenodd"/>
      </g>
    </g>
  </g>
</svg>
