<svg id="marker" xmlns="http://www.w3.org/2000/svg" width="20" height="34.118" viewBox="0 0 20 34.118">
  <path id="Path_4118" data-name="Path 4118" d="M20,394.647C20,393.185,15.523,392,10,392s-10,1.185-10,2.647,4.477,2.647,10,2.647S20,396.109,20,394.647Zm0,0" transform="translate(0 -363.176)" fill="#b9bbbe"/>
  <path id="Path_4119" data-name="Path 4119" d="M120,160h2.353v18.824a1.176,1.176,0,0,1-2.353,0Zm0,0" transform="translate(-111.176 -148.235)" fill="#494342"/>
  <path id="Path_4120" data-name="Path 4120" d="M54.118,7.059A7.059,7.059,0,1,1,47.059,0,7.059,7.059,0,0,1,54.118,7.059Zm0,0" transform="translate(-37.059)" fill="#33bfcf"/>
  <path id="Path_4121" data-name="Path 4121" d="M81.412,36.706A4.706,4.706,0,1,1,76.706,32,4.706,4.706,0,0,1,81.412,36.706Zm0,0" transform="translate(-66.706 -29.647)" fill="#50d8e8"/>
</svg>
