<svg xmlns="http://www.w3.org/2000/svg" width="35.577" height="30.833" viewBox="0 0 35.577 30.833">
  <g id="Group_5530" data-name="Group 5530" transform="translate(-140.346 -211)">
    <g id="wallet" transform="translate(140.346 211)">
      <g id="Group_5518" data-name="Group 5518" transform="translate(2.965 2.372)">
        <g id="Group_5517" data-name="Group 5517" transform="translate(0 0)">
          <path id="Path_3805" data-name="Path 3805" d="M68.757,68.267H43.26a.593.593,0,1,0,0,1.186h25.5a.593.593,0,1,0,0-1.186Z" transform="translate(-42.667 -68.267)" fill="#50d8e8"/>
        </g>
      </g>
      <g id="Group_5520" data-name="Group 5520" transform="translate(0 0)">
        <g id="Group_5519" data-name="Group 5519" transform="translate(0 0)">
          <path id="Path_3806" data-name="Path 3806" d="M30.957,48.365H33.8a.593.593,0,0,0,.593-.593v-8.3a.593.593,0,0,0-.593-.593H32.019V34.727a.593.593,0,0,0-.593-.593H2.965A2.965,2.965,0,0,0,0,37.1V64.374a.593.593,0,0,0,.593.593H33.8a.593.593,0,0,0,.593-.593v-8.3a.593.593,0,0,0-.593-.593H30.833a3.562,3.562,0,0,1-3.527-4.026A3.641,3.641,0,0,1,30.957,48.365Zm-9.813,6.192a4.747,4.747,0,1,1,0-5.268A4.743,4.743,0,0,1,21.145,54.556ZM2.965,38.878A1.782,1.782,0,0,1,1.22,36.744,1.826,1.826,0,0,1,3.035,35.32h27.8v3.558Z" transform="translate(0 -34.134)" fill="#50d8e8"/>
        </g>
      </g>
      <g id="Group_5524" data-name="Group 5524" transform="translate(28.462 15.417)">
        <g id="Group_5523" data-name="Group 5523" transform="translate(0 0)">
          <path id="Path_3808" data-name="Path 3808" d="M416.126,256h-4.151a2.374,2.374,0,0,0-2.36,2.609,2.444,2.444,0,0,0,2.466,2.135h4.044a.593.593,0,0,0,.593-.593v-3.558A.593.593,0,0,0,416.126,256Z" transform="translate(-409.604 -256)" fill="#50d8e8"/>
        </g>
      </g>
    </g>
    <circle id="Ellipse_72" data-name="Ellipse 72" cx="6" cy="6" r="6" transform="translate(152 223.333)" fill="#50d8e8"/>
  </g>
</svg>
