<svg xmlns="http://www.w3.org/2000/svg" width="23.717" height="23.303" viewBox="0 0 23.717 23.303">
  <g id="Group_5360" data-name="Group 5360" transform="matrix(0.695, -0.719, 0.719, 0.695, -142.817, 33.092)">
    <path id="Path_3635" data-name="Path 3635" d="M123.864,108.986a.641.641,0,0,1-.6-.679V97.044a.642.642,0,0,1,.6-.679h5.287a.642.642,0,0,1,.6.679v11.262a.642.642,0,0,1-.6.679Z" transform="translate(-3.64 -8.584)" fill="#179aa1"/>
    <rect id="Rectangle_4063" data-name="Rectangle 4063" width="3.529" height="12.621" transform="translate(121.09 87.781)" fill="#0a6469"/>
    <rect id="Rectangle_4064" data-name="Rectangle 4064" width="0.389" height="12.621" transform="translate(120.587 87.781)" fill="#0a6469"/>
    <path id="Path_3636" data-name="Path 3636" d="M124.4,108.977a.576.576,0,0,0,.093.009h.249V96.365H124.5a.489.489,0,0,0-.093.009Z" transform="translate(-4.273 -8.584)" fill="#0a6469"/>
    <path id="Path_3637" data-name="Path 3637" d="M123.658,96.461a.682.682,0,0,0-.389.637V108.36a.683.683,0,0,0,.389.637Z" transform="translate(-3.64 -8.637)" fill="#0a6469"/>
    <rect id="Rectangle_4065" data-name="Rectangle 4065" width="0.317" height="12.621" transform="translate(124.733 87.781)" fill="#0a6469"/>
    <rect id="Rectangle_4066" data-name="Rectangle 4066" width="0.27" height="12.621" transform="translate(125.164 87.781)" fill="#0a6469"/>
    <path id="Path_3638" data-name="Path 3638" d="M136.628,108.986a.647.647,0,0,0,.559-.677V97.046a.648.648,0,0,0-.559-.677Z" transform="translate(-11.08 -8.586)" fill="#0a6469"/>
    <path id="Path_3639" data-name="Path 3639" d="M127.268,108.986c-.163,0-.293-.3-.293-.679V97.044c0-.374.131-.679.293-.679h2.607c.161,0,.294.3.294.679v11.262c0,.375-.132.679-.294.679Z" transform="translate(-5.704 -8.584)" fill="#179aa1"/>
    <g id="Group_5288" data-name="Group 5288" transform="translate(116.732 80.952)">
      <path id="Rectangle_4067" data-name="Rectangle 4067" d="M.721,0h0a.72.72,0,0,1,.72.72V3.859a.72.72,0,0,1-.72.72h0A.72.72,0,0,1,0,3.859V.721A.721.721,0,0,1,.721,0Z" transform="translate(5.414)"/>
      <path id="Path_3640" data-name="Path 3640" d="M130.148,88.105V85.733c-.027-2.509-.9-3.337-1.2-3.337H127.8c-.3,0-1.232.892-1.178,2.977l0,2.732Z" transform="translate(-122.237 -81.756)" fill="#10b0bb"/>
      <path id="Path_3641" data-name="Path 3641" d="M129.5,93.229s-.922-4.607-3.394-5.42c0,0-4.707-1.308-5.008,5.42Z" transform="translate(-119.163 -84.714)" fill="#50d8e8"/>
      <path id="Path_3642" data-name="Path 3642" d="M129.5,96.306a4.918,4.918,0,0,0-3.394-3.017s-4.707-.728-5.008,3.017Z" transform="translate(-119.163 -87.791)" fill="#10b0bb"/>
      <g id="Group_5287" data-name="Group 5287" transform="translate(0 4.906)">
        <path id="Path_3643" data-name="Path 3643" d="M129.814,96.431a2.306,2.306,0,0,0-1.5-1.411c-1.086-.235-2.818.069-3.35,1.482Z" transform="translate(-121.317 -93.653)" fill="#148d95"/>
        <g id="Group_5275" data-name="Group 5275" transform="translate(7.507 1.087)">
          <path id="Path_3644" data-name="Path 3644" d="M134.775,96.114a.248.248,0,0,0-.248.248v.681a.248.248,0,0,0,.248.248h0a.248.248,0,0,0,.248-.248v-.681a.248.248,0,0,0-.248-.248Z" transform="translate(-134.149 -95.389)" fill="#179aa1"/>
          <g id="Group_5274" data-name="Group 5274">
            <path id="Path_3645" data-name="Path 3645" d="M134.89,95.206s-.188-.868-.76-.708c-.3.084-.574,1.012-.4,1.319.072.13.816.152,1.078.032C134.941,95.787,134.95,95.452,134.89,95.206Z" transform="translate(-133.674 -94.478)" fill="#e95433"/>
            <path id="Path_3646" data-name="Path 3646" d="M134.805,97.045c.1-.044.129-.228.117-.42H133.68a.71.71,0,0,0,.047.388C133.8,97.143,134.543,97.165,134.805,97.045Z" transform="translate(-133.674 -95.674)" fill="#a8a7a1"/>
            <path id="Path_3647" data-name="Path 3647" d="M135.318,94.529c.361.122.488.705.488.705.06.246.051.581-.085.643a1.219,1.219,0,0,1-.4.075Z" transform="translate(-134.59 -94.506)" fill="#e95433" style="mix-blend-mode: screen;isolation: isolate"/>
          </g>
        </g>
        <g id="Group_5277" data-name="Group 5277" transform="translate(3.512 1.087)">
          <path id="Path_3648" data-name="Path 3648" d="M125.759,96.114a.248.248,0,0,0-.247.248v.681a.248.248,0,0,0,.247.248h0a.248.248,0,0,0,.248-.248v-.681a.248.248,0,0,0-.248-.248Z" transform="translate(-125.134 -95.389)" fill="#179aa1"/>
          <g id="Group_5276" data-name="Group 5276">
            <path id="Path_3649" data-name="Path 3649" d="M125.874,95.206s-.188-.868-.76-.708c-.3.084-.574,1.012-.4,1.319.072.13.815.152,1.078.032C125.925,95.787,125.933,95.452,125.874,95.206Z" transform="translate(-124.659 -94.478)" fill="#e95433"/>
            <path id="Path_3650" data-name="Path 3650" d="M125.789,97.045c.1-.044.129-.228.118-.42h-1.242a.7.7,0,0,0,.046.388C124.783,97.143,125.526,97.165,125.789,97.045Z" transform="translate(-124.659 -95.674)" fill="#a8a7a1"/>
            <path id="Path_3651" data-name="Path 3651" d="M126.3,94.529c.36.122.487.705.487.705.059.246.051.581-.085.643a1.219,1.219,0,0,1-.4.075Z" transform="translate(-125.574 -94.506)" fill="#e95433" style="mix-blend-mode: screen;isolation: isolate"/>
          </g>
        </g>
        <path id="Path_3652" data-name="Path 3652" d="M129.061,94.65a.948.948,0,0,1-.863-.587l-.174-1.455a.568.568,0,0,1,.553-.583h1.157a.568.568,0,0,1,.553.583l-.172,1.455c0,.322-.527.587-.833.587Z" transform="translate(-123.021 -92.025)" fill="#179aa1"/>
        <path id="Path_3653" data-name="Path 3653" d="M130.265,92.793l.022-.185a.568.568,0,0,0-.553-.583h-1.157a.568.568,0,0,0-.553.583l.023.185Z" transform="translate(-123.021 -92.025)" fill="#fffce6"/>
        <path id="Path_3654" data-name="Path 3654" d="M130.265,93.466l.022-.185c0-.016,0-.031,0-.047h-2.258c0,.016,0,.031,0,.047l.023.185Z" transform="translate(-123.021 -92.698)" fill="#878888"/>
        <g id="Group_5286" data-name="Group 5286" transform="translate(0 1.677)">
          <g id="Group_5281" data-name="Group 5281" transform="translate(0 0.002)">
            <path id="Path_3655" data-name="Path 3655" d="M125.905,99.105,126,96.921a5.432,5.432,0,0,0-1.639.251,15.79,15.79,0,0,0-2.291,1.107l.288.319s1.382-.378,1.669-.117A3.208,3.208,0,0,0,125.905,99.105Z" transform="translate(-119.704 -96.43)" fill="#10b0bb"/>
            <g id="Group_5279" data-name="Group 5279" transform="translate(0 0.105)">
              <path id="Path_3656" data-name="Path 3656" d="M117.77,96.681c.555-.071.991-.264.973-.431s-.482-.244-1.037-.172-.99.265-.973.432S117.215,96.753,117.77,96.681Z" transform="translate(-116.733 -96.052)" fill="#878888"/>
              <g id="Group_5278" data-name="Group 5278" transform="translate(0 0.141)">
                <path id="Path_3657" data-name="Path 3657" d="M117.769,96.859c-.555.072-1.019-.005-1.036-.171a.09.09,0,0,1,0-.036,1.445,1.445,0,0,0,1.01.116c.516-.067.929-.239.969-.4a.106.106,0,0,1,.027.058C118.76,96.595,118.325,96.788,117.769,96.859Z" transform="translate(-116.732 -96.37)" fill="#626362"/>
              </g>
            </g>
            <path id="Path_3658" data-name="Path 3658" d="M118.947,95.942a.121.121,0,0,1,.039-.093.24.24,0,0,1,.184-.03h.013l.368.043c.515.06,1.476.173,1.586.174.174,0,.2.116.2.121l.41,1.642-.047.011-.411-1.644s-.017-.082-.15-.082c-.112,0-1.039-.11-1.592-.174-.2-.023-.351-.042-.362-.042l-.019,0c-.033,0-.109-.015-.146.018a.072.072,0,0,0-.023.058Z" transform="translate(-117.966 -95.814)" fill="#797a79"/>
            <g id="Group_5280" data-name="Group 5280" transform="translate(0.648 1.577)">
              <path id="Path_3659" data-name="Path 3659" d="M118.425,100.685a.116.116,0,0,1-.146-.073l-.079-.278a.115.115,0,0,1,.086-.139l1.8-.513a.116.116,0,0,1,.146.074l.079.277a.117.117,0,0,1-.086.14Z" transform="translate(-118.195 -99.542)" fill="#313030"/>
              <path id="Path_3660" data-name="Path 3660" d="M122.717,100.075c-.031.009-.062,0-.068-.021l-.182-.622c-.006-.021.015-.046.046-.055h0c.033-.009.063,0,.069.022l.182.621c.006.021-.015.046-.047.055Z" transform="translate(-120.574 -99.374)" fill="#0c2518"/>
            </g>
          </g>
          <g id="Group_5285" data-name="Group 5285" transform="translate(6.135)">
            <path id="Path_3661" data-name="Path 3661" d="M130.578,99.1l.16-2.184a3.543,3.543,0,0,1,1.285.2,19.663,19.663,0,0,1,2.326,1.155l-.287.319s-1.382-.378-1.67-.117A3,3,0,0,1,130.578,99.1Z" transform="translate(-130.578 -96.425)" fill="#10b0bb"/>
            <g id="Group_5283" data-name="Group 5283" transform="translate(4.125 0.105)">
              <path id="Path_3662" data-name="Path 3662" d="M140.86,96.676c-.555-.071-.99-.265-.972-.432s.482-.243,1.036-.172.991.265.973.432S141.415,96.748,140.86,96.676Z" transform="translate(-139.888 -96.046)" fill="#878888"/>
              <g id="Group_5282" data-name="Group 5282" transform="translate(0 0.141)">
                <path id="Path_3663" data-name="Path 3663" d="M140.86,96.854c.554.072,1.019-.006,1.037-.172a.1.1,0,0,0,0-.035,1.445,1.445,0,0,1-1.01.115c-.516-.067-.929-.237-.97-.4a.106.106,0,0,0-.026.057C139.87,96.589,140.305,96.783,140.86,96.854Z" transform="translate(-139.888 -96.365)" fill="#626362"/>
              </g>
            </g>
            <path id="Path_3664" data-name="Path 3664" d="M135.594,97.8l.545-1.646h0s.021-.117.2-.117c.111,0,1.071-.113,1.588-.173l.366-.043.014,0a.244.244,0,0,1,.183.03.117.117,0,0,1,.039.093h-.047a.076.076,0,0,0-.023-.058.207.207,0,0,0-.147-.018l-.02,0-.36.041c-.553.065-1.479.174-1.593.174-.132,0-.148.078-.149.082l-.547,1.65Z" transform="translate(-133.372 -95.809)" fill="#797a79"/>
            <g id="Group_5284" data-name="Group 5284" transform="translate(3.295 1.58)">
              <path id="Path_3665" data-name="Path 3665" d="M140.064,100.685a.117.117,0,0,0,.147-.073l.078-.278a.116.116,0,0,0-.086-.139l-1.8-.513a.116.116,0,0,0-.147.074l-.078.277a.118.118,0,0,0,.085.14Z" transform="translate(-138.102 -99.542)" fill="#313030"/>
              <path id="Path_3666" data-name="Path 3666" d="M138.064,100.075c.031.009.062,0,.069-.021l.181-.622c.006-.021-.015-.046-.046-.055h0c-.031-.009-.063,0-.069.022l-.182.621c-.006.021.015.046.047.055Z" transform="translate(-138.016 -99.374)" fill="#0c2518"/>
            </g>
          </g>
        </g>
        <path id="Path_3667" data-name="Path 3667" d="M129.637,99.993c-.571,0-1.035-.307-1.035-.685s.464-.686,1.035-.686,1.036.307,1.036.686S130.209,99.993,129.637,99.993Z" transform="translate(-123.343 -95.699)" fill="#aeaeae"/>
        <path id="Path_3668" data-name="Path 3668" d="M129.637,99.993c-.571,0-1.035-.307-1.035-.685s.464-.686,1.035-.686,1.036.307,1.036.686S130.209,99.993,129.637,99.993Z" transform="translate(-123.343 -95.699)" fill="#aeaeae"/>
        <path id="Path_3669" data-name="Path 3669" d="M129.953,100.412c-.432,0-.783-.233-.783-.519s.351-.519.783-.519.784.233.784.519S130.387,100.412,129.953,100.412Z" transform="translate(-123.659 -96.118)" fill="#fff"/>
      </g>
      <path id="Path_3670" data-name="Path 3670" d="M130.067,88.016a4.825,4.825,0,0,1,3.59,3.219S132.767,88.1,130.067,88.016Z" transform="translate(-124.159 -84.886)" fill="#fff"/>
      <path id="Path_3671" data-name="Path 3671" d="M130.938,82.714s1.111.3,1.409,2.492A5.574,5.574,0,0,0,131.8,83.1,1.171,1.171,0,0,0,130.938,82.714Z" transform="translate(-124.644 -81.932)" fill="#fff"/>
    </g>
    <g id="Group_5298" data-name="Group 5298" transform="translate(118.827 94.112)">
      <path id="Path_3672" data-name="Path 3672" d="M134.221,116.942c-.317,0-.575-.19-.575-.422h0c0-.233.258-.421.575-.421h1.317c.317,0,.574.188.574.421h0c0,.232-.257.422-.574.422Z" transform="translate(-128.246 -113.686)" fill="#6a6b6a"/>
      <path id="Path_3673" data-name="Path 3673" d="M122.034,116.942c-.318,0-.575-.19-.575-.422h0c0-.233.257-.421.575-.421h1.316c.317,0,.574.188.574.421h0c0,.232-.257.422-.574.422Z" transform="translate(-121.459 -113.686)" fill="#6a6b6a"/>
      <path id="Path_3674" data-name="Path 3674" d="M126.111,126.077c-.375,0-.678-.52-.678-1.161v-13.1c0-.641.3-1.161.678-1.161h3.071c.375,0,.68.52.68,1.161v13.1c0,.641-.3,1.161-.68,1.161Z" transform="translate(-123.672 -110.653)" fill="#10b0bb"/>
      <path id="Path_3675" data-name="Path 3675" d="M123.46,125.5a6.3,6.3,0,0,1-1.958-4.452c-.116-2.938.041-5.6.041-5.6s.628-3.829,3.311-4.8Z" transform="translate(-121.459 -110.653)" fill="#10b0bb"/>
      <path id="Path_3676" data-name="Path 3676" d="M133.43,125.5a6.3,6.3,0,0,0,1.959-4.452c.115-2.938-.041-5.6-.041-5.6s-.628-3.829-3.311-4.8Z" transform="translate(-127.35 -110.653)" fill="#10b0bb"/>
      <path id="Path_3677" data-name="Path 3677" d="M124.587,125.878a5.05,5.05,0,0,1-1.568-3.565c-.093-2.352.033-4.482.033-4.482s.5-3.067,2.651-3.841Z" transform="translate(-122.308 -112.511)" fill="#179aa1"/>
      <path id="Path_3678" data-name="Path 3678" d="M133.1,125.952a4.807,4.807,0,0,0,1.493-3.394c.088-2.239-.031-4.266-.031-4.266s-.479-2.92-2.525-3.657Z" transform="translate(-127.35 -112.87)" fill="#179aa1"/>
      <g id="Group_5297" data-name="Group 5297" transform="translate(1.51 8.498)">
        <path id="Path_3679" data-name="Path 3679" d="M126.059,130.853c-.091,0-.165-.139-.165-.309h0c0-.171.074-.309.165-.309h3.565c.092,0,.166.139.166.309h0c0,.17-.074.309-.166.309Z" transform="translate(-125.439 -130.057)" fill="#10b0bb"/>
        <g id="Group_5291" data-name="Group 5291" transform="translate(2.988 1.713)">
          <path id="Path_3680" data-name="Path 3680" d="M131.706,134.06c-.053,0-.1-.074-.1-.166h0c0-.092.043-.166.1-.166h1.321c.052,0,.094.074.094.166h0c0,.092-.042.166-.094.166Z" transform="translate(-131.61 -133.716)" fill="#7c140a"/>
          <g id="Group_5290" data-name="Group 5290" transform="translate(0.738)">
            <path id="Path_3681" data-name="Path 3681" d="M134.376,134.875a.248.248,0,0,1-.247-.248v-.68a.248.248,0,0,1,.247-.248h0a.248.248,0,0,1,.248.248v.68a.248.248,0,0,1-.248.248Z" transform="translate(-133.751 -133.7)" fill="#7c140a"/>
            <g id="Group_5289" data-name="Group 5289" transform="translate(0 0.451)">
              <path id="Path_3682" data-name="Path 3682" d="M134.492,135.439s-.188.868-.759.708c-.3-.083-.574-1.012-.4-1.319.072-.131.815-.153,1.078-.033C134.544,134.858,134.552,135.193,134.492,135.439Z" transform="translate(-133.276 -134.717)" fill="#e95433"/>
              <path id="Path_3683" data-name="Path 3683" d="M134.406,134.8c.1.045.129.229.118.42h-1.243a.708.708,0,0,1,.047-.387C133.4,134.7,134.143,134.676,134.406,134.8Z" transform="translate(-133.276 -134.717)" fill="#a8a7a1"/>
              <path id="Path_3684" data-name="Path 3684" d="M134.919,136.148c.36-.121.488-.7.488-.7.059-.245.051-.58-.086-.643a1.253,1.253,0,0,0-.4-.075Z" transform="translate(-134.191 -134.722)" fill="#e95433" style="mix-blend-mode: screen;isolation: isolate"/>
            </g>
          </g>
        </g>
        <g id="Group_5294" data-name="Group 5294" transform="translate(0 1.713)">
          <path id="Path_3685" data-name="Path 3685" d="M127.361,134.06c.053,0,.094-.074.094-.166h0c0-.092-.042-.166-.094-.166h-1.323c-.052,0-.094.074-.094.166h0c0,.092.043.166.094.166Z" transform="translate(-125.467 -133.716)" fill="#7c140a"/>
          <g id="Group_5293" data-name="Group 5293">
            <path id="Path_3686" data-name="Path 3686" d="M125.968,134.875a.248.248,0,0,0,.248-.248v-.68a.248.248,0,0,0-.248-.248h0a.247.247,0,0,0-.247.248v.68a.247.247,0,0,0,.247.248Z" transform="translate(-125.343 -133.7)" fill="#7c140a"/>
            <g id="Group_5292" data-name="Group 5292" transform="translate(0 0.451)">
              <path id="Path_3687" data-name="Path 3687" d="M124.9,135.439s.188.868.76.708c.3-.083.574-1.012.4-1.319-.072-.131-.816-.153-1.078-.033C124.851,134.858,124.843,135.193,124.9,135.439Z" transform="translate(-124.867 -134.717)" fill="#e95433"/>
              <path id="Path_3688" data-name="Path 3688" d="M124.988,134.8c-.1.045-.129.229-.118.42h1.242a.709.709,0,0,0-.046-.387C125.994,134.7,125.251,134.676,124.988,134.8Z" transform="translate(-124.868 -134.717)" fill="#a8a7a1"/>
              <path id="Path_3689" data-name="Path 3689" d="M125.39,136.148c-.361-.121-.488-.7-.488-.7-.059-.245-.051-.58.086-.643a1.251,1.251,0,0,1,.4-.075Z" transform="translate(-124.867 -134.722)" fill="#e95433" style="mix-blend-mode: screen;isolation: isolate"/>
            </g>
          </g>
        </g>
        <path id="Path_3690" data-name="Path 3690" d="M133.712,130.953a.56.56,0,1,1,.56-.56A.56.56,0,0,1,133.712,130.953Z" transform="translate(-129.481 -129.833)" fill="#10b0bb"/>
        <path id="Path_3691" data-name="Path 3691" d="M126.041,130.953a.56.56,0,1,1,.56-.56A.56.56,0,0,1,126.041,130.953Z" transform="translate(-125.209 -129.833)" fill="#10b0bb"/>
        <g id="Group_5295" data-name="Group 5295" transform="translate(1.629 3.834)">
          <rect id="Rectangle_4068" data-name="Rectangle 4068" width="1.822" height="1.786" fill="#e95433"/>
          <rect id="Rectangle_4069" data-name="Rectangle 4069" width="1.822" height="0.711" fill="#a8a7a1"/>
          <rect id="Rectangle_4070" data-name="Rectangle 4070" width="0.463" height="1.786" transform="translate(1.359)" fill="#e95433" style="mix-blend-mode: screen;isolation: isolate"/>
        </g>
        <g id="Group_5296" data-name="Group 5296" transform="translate(0.95 0.819)">
          <path id="Path_3692" data-name="Path 3692" d="M130.191,135.471v-3.3c0-.269-.3-.487-.68-.487H127.69c-.376,0-.679.218-.679.487v3.3c0,.269.3.487.679.487h1.821C129.887,135.958,130.191,135.741,130.191,135.471Zm-2.361.117c-.322,0-.583-.171-.583-.382v-2.6c0-.211.261-.383.583-.383h1.564c.322,0,.583.172.583.383v2.6c0,.211-.261.382-.583.382Z" transform="translate(-127.011 -131.681)" fill="#c4c4c3"/>
          <path id="Path_3693" data-name="Path 3693" d="M127.155,135.426a.144.144,0,0,1-.144-.144h0a.143.143,0,0,1,.144-.144h2.829a.144.144,0,0,1,.144.144h0a.144.144,0,0,1-.144.144Z" transform="translate(-127.011 -133.606)" fill="#c4c4c3"/>
          <path id="Path_3694" data-name="Path 3694" d="M127.155,138.558a.144.144,0,0,1-.144-.144h0a.143.143,0,0,1,.144-.144h2.829a.144.144,0,0,1,.144.144h0a.144.144,0,0,1-.144.144Z" transform="translate(-127.011 -135.351)" fill="#c4c4c3"/>
        </g>
      </g>
      <path id="Path_3695" data-name="Path 3695" d="M129.225,117.029a8.926,8.926,0,0,1-1.251-3.642c-.336-1.689-1.321-1.326-1.321-1.326l-.005.063-.005-.063s-.985-.363-1.32,1.326a8.952,8.952,0,0,1-1.251,3.642c-.731,1.3-.923,3.688,1.708,3.947h1.736C130.147,120.717,129.955,118.329,129.225,117.029Z" transform="translate(-122.65 -111.419)" fill="#543a22"/>
      <path id="Path_3696" data-name="Path 3696" d="M129.465,116.987a7.576,7.576,0,0,1-1.058-3.081c-.284-1.428-1.116-1.121-1.116-1.121l-.005.054,0-.054s-.833-.307-1.117,1.121a7.57,7.57,0,0,1-1.059,3.081c-.617,1.1-.78,3.117,1.446,3.336h1.468C130.245,120.1,130.082,118.086,129.465,116.987Z" transform="translate(-123.267 -111.826)" fill="#6e4c30"/>
      <path id="Path_3697" data-name="Path 3697" d="M135.681,113.99a8.926,8.926,0,0,1,1.564,4.244A6.735,6.735,0,0,0,135.681,113.99Z" transform="translate(-129.38 -112.511)" fill="#fff"/>
      <path id="Path_3698" data-name="Path 3698" d="M122.2,117.954a23.238,23.238,0,0,0-.627,6.047S121.512,119.24,122.2,117.954Z" transform="translate(-121.519 -114.719)" fill="#fff"/>
    </g>
  </g>
</svg>
