<svg xmlns="http://www.w3.org/2000/svg" width="15.702" height="19.718" viewBox="0 0 15.702 19.718">
  <g id="Group_5361" data-name="Group 5361" transform="translate(-174 -449)">
    <g id="Group_34" data-name="Group 34" transform="translate(174 449)">
      <g id="map-marker" transform="translate(0)">
        <path id="Path_1036" data-name="Path 1036" d="M11.259,0A7.851,7.851,0,0,0,3.408,7.851c0,6.526,7.851,11.868,7.851,11.868S19.11,13.983,19.11,7.85A7.851,7.851,0,0,0,11.259,0Zm0,11.592A3.742,3.742,0,1,1,15,7.851,3.743,3.743,0,0,1,11.259,11.592Z" transform="translate(-3.408)" fill="#50d8e8"/>
      </g>
      <circle id="Ellipse_14" data-name="Ellipse 14" cx="4.271" cy="4.271" r="4.271" transform="translate(3.535 3.535)" fill="#fff"/>
    </g>
    <path id="Icon_awesome-user-alt" data-name="Icon awesome-user-alt" d="M2.435,2.739a1.37,1.37,0,1,0-1.37-1.37A1.37,1.37,0,0,0,2.435,2.739Zm1.217.3H3.128a1.656,1.656,0,0,1-1.387,0H1.217A1.217,1.217,0,0,0,0,4.261v.152a.457.457,0,0,0,.457.457H4.413a.457.457,0,0,0,.457-.457V4.261A1.217,1.217,0,0,0,3.652,3.043Z" transform="translate(179.303 453.989)" fill="#50d8e8"/>
  </g>
</svg>
