<svg xmlns="http://www.w3.org/2000/svg" width="249.294" height="208.568" viewBox="0 0 249.294 208.568">
  <g id="Group_216" data-name="Group 216" transform="translate(-0.004)">
    <path id="Path_146" data-name="Path 146" d="M326.869,109.234a1.066,1.066,0,0,1-.594-1.288.512.512,0,0,0,.023-.118h0a.534.534,0,0,0-.96-.354h0a.513.513,0,0,0-.059.1,1.066,1.066,0,0,1-1.288.594.513.513,0,0,0-.118-.023h0a.534.534,0,0,0-.354.96h0a.514.514,0,0,0,.1.059,1.066,1.066,0,0,1,.594,1.288.51.51,0,0,0-.023.118h0a.534.534,0,0,0,.96.354h0a.511.511,0,0,0,.059-.1,1.066,1.066,0,0,1,1.288-.594.513.513,0,0,0,.118.023h0a.534.534,0,0,0,.354-.96h0A.512.512,0,0,0,326.869,109.234Z" transform="translate(-278.918 -95.323)" fill="#4d8af0" opacity="0.5"/>
    <path id="Path_147" data-name="Path 147" d="M180.869,434.234a1.066,1.066,0,0,1-.594-1.288.512.512,0,0,0,.023-.118h0a.534.534,0,0,0-.96-.354h0a.512.512,0,0,0-.059.1,1.066,1.066,0,0,1-1.288.594.513.513,0,0,0-.118-.023h0a.534.534,0,0,0-.354.96h0a.51.51,0,0,0,.1.059,1.066,1.066,0,0,1,.594,1.288.512.512,0,0,0-.023.118h0a.535.535,0,0,0,.96.354h0a.515.515,0,0,0,.059-.1,1.066,1.066,0,0,1,1.288-.594.517.517,0,0,0,.118.023h0a.535.535,0,0,0,.354-.96h0A.513.513,0,0,0,180.869,434.234Z" transform="translate(-175.27 -326.047)" fill="#4d8af0" opacity="0.5"/>
    <circle id="Ellipse_36" data-name="Ellipse 36" cx="1.74" cy="1.74" r="1.74" transform="translate(215.359 71.94)" fill="#f55f44" opacity="0.5"/>
    <circle id="Ellipse_37" data-name="Ellipse 37" cx="1.74" cy="1.74" r="1.74" transform="translate(33.478 196.385)" fill="#f55f44" opacity="0.5"/>
    <circle id="Ellipse_38" data-name="Ellipse 38" cx="1.74" cy="1.74" r="1.74" transform="translate(244.947 138.949)" fill="#f55f44" opacity="0.5"/>
    <path id="Path_148" data-name="Path 148" d="M865.869,138.234a1.066,1.066,0,0,1-.594-1.288.51.51,0,0,0,.023-.118h0a.534.534,0,0,0-.96-.354h0a.513.513,0,0,0-.059.1,1.066,1.066,0,0,1-1.288.594.513.513,0,0,0-.118-.023h0a.535.535,0,0,0-.354.96h0a.517.517,0,0,0,.1.059,1.066,1.066,0,0,1,.594,1.288.516.516,0,0,0-.023.118h0a.535.535,0,0,0,.96.354h0a.516.516,0,0,0,.059-.1,1.066,1.066,0,0,1,1.288-.594.515.515,0,0,0,.118.023h0a.535.535,0,0,0,.354-.96h0A.513.513,0,0,0,865.869,138.234Z" transform="translate(-661.564 -115.911)" fill="#4d8af0" opacity="0.5"/>
    <path id="Path_149" data-name="Path 149" d="M965.869,766.234a1.066,1.066,0,0,1-.594-1.288.514.514,0,0,0,.023-.118h0a.535.535,0,0,0-.96-.354h0a.517.517,0,0,0-.059.1,1.066,1.066,0,0,1-1.288.594.507.507,0,0,0-.118-.023h0a.535.535,0,0,0-.354.96h0a.521.521,0,0,0,.1.059,1.066,1.066,0,0,1,.594,1.288.52.52,0,0,0-.023.118h0a.535.535,0,0,0,.96.354h0a.514.514,0,0,0,.059-.1,1.066,1.066,0,0,1,1.288-.594.517.517,0,0,0,.118.023h0a.534.534,0,0,0,.354-.96h0a.51.51,0,0,0-.1-.059Z" transform="translate(-732.556 -561.74)" fill="#4d8af0" opacity="0.5"/>
    <path id="Path_150" data-name="Path 150" d="M173.869,244.234a1.066,1.066,0,0,1-.594-1.288.514.514,0,0,0,.023-.118h0a.534.534,0,0,0-.96-.354h0a.514.514,0,0,0-.059.1,1.066,1.066,0,0,1-1.288.594.511.511,0,0,0-.118-.023h0a.534.534,0,0,0-.354.96h0a.512.512,0,0,0,.1.059,1.066,1.066,0,0,1,.594,1.288.514.514,0,0,0-.023.118h0a.535.535,0,0,0,.96.354h0a.514.514,0,0,0,.059-.1,1.066,1.066,0,0,1,1.288-.594.514.514,0,0,0,.118.023h0a.535.535,0,0,0,.354-.96h0A.512.512,0,0,0,173.869,244.234Z" transform="translate(-170.3 -191.162)" fill="#4d8af0" opacity="0.5"/>
    <circle id="Ellipse_39" data-name="Ellipse 39" cx="1.74" cy="1.74" r="1.74" transform="translate(21.295 80.643)" fill="#47e6b1" opacity="0.5"/>
    <circle id="Ellipse_40" data-name="Ellipse 40" cx="1.74" cy="1.74" r="1.74" transform="translate(245.818 94.566)" fill="#47e6b1" opacity="0.5"/>
    <g id="Group_9" data-name="Group 9" transform="translate(167.206)" opacity="0.5">
      <rect id="Rectangle_58" data-name="Rectangle 58" width="0.87" height="4.931" transform="translate(2.031)" fill="#47e6b1"/>
      <rect id="Rectangle_59" data-name="Rectangle 59" width="0.87" height="4.931" transform="translate(4.931 2.031) rotate(90)" fill="#47e6b1"/>
    </g>
    <g id="Group_10" data-name="Group 10" transform="translate(170.397 193.194)" opacity="0.5">
      <rect id="Rectangle_60" data-name="Rectangle 60" width="0.87" height="4.931" transform="translate(2.03)" fill="#47e6b1"/>
      <rect id="Rectangle_61" data-name="Rectangle 61" width="0.87" height="4.931" transform="translate(4.931 2.031) rotate(90)" fill="#47e6b1"/>
    </g>
    <g id="Group_11" data-name="Group 11" transform="translate(5.63 203.637)" opacity="0.5">
      <rect id="Rectangle_62" data-name="Rectangle 62" width="0.87" height="4.931" transform="translate(2.031)" fill="#47e6b1"/>
      <rect id="Rectangle_63" data-name="Rectangle 63" width="0.87" height="4.931" transform="translate(4.931 2.031) rotate(90)" fill="#47e6b1"/>
    </g>
    <g id="Group_12" data-name="Group 12" transform="translate(203.756 114.872)" opacity="0.5">
      <rect id="Rectangle_64" data-name="Rectangle 64" width="0.87" height="4.931" transform="translate(2.03)" fill="#47e6b1"/>
      <rect id="Rectangle_65" data-name="Rectangle 65" width="0.87" height="4.931" transform="translate(4.931 2.031) rotate(90)" fill="#47e6b1"/>
    </g>
    <path id="Path_151" data-name="Path 151" d="M793.7,117.681l1.869,1.713,2.648-3.894.935.779-3.583,4.673-2.648-2.959Z" transform="translate(-562.907 -81.996)" fill="#47e6b1" opacity="0.5"/>
  </g>
</svg>
