<svg xmlns="http://www.w3.org/2000/svg" width="127.032" height="174.156" viewBox="0 0 127.032 174.156">
  <g id="Group_6420" data-name="Group 6420" transform="translate(0)">
    <g id="Group_5545" data-name="Group 5545" transform="translate(48.742 50.862)">
      <g id="Group_310" data-name="Group 310" transform="translate(0)">
        <g id="Group_309" data-name="Group 309">
          <path id="Path_601" data-name="Path 601" d="M372.672,205.519l-.64,25.237-39.606-.2.13-25.579Z" transform="translate(-332.426 -204.977)" fill="#50d8e8"/>
        </g>
      </g>
      <g id="Group_312" data-name="Group 312" transform="translate(16.702 0.471)">
        <g id="Group_311" data-name="Group 311" transform="translate(0)">
          <path id="Path_602" data-name="Path 602" d="M367.784,231.134c-.068,0,.02-5.636.2-12.583s.374-12.58.442-12.578-.02,5.635-.2,12.584S367.852,231.135,367.784,231.134Z" transform="translate(-367.761 -205.973)" fill="#263238"/>
        </g>
      </g>
      <g id="Group_314" data-name="Group 314" transform="translate(0 0.502)">
        <g id="Group_313" data-name="Group 313">
          <path id="Path_603" data-name="Path 603" d="M332.425,231.116a1.454,1.454,0,0,1,.157-.268l.491-.74,1.849-2.691,6.172-8.828c2.414-3.446,4.588-6.573,6.141-8.849.777-1.138,1.394-2.066,1.821-2.708l.486-.742a1.48,1.48,0,0,1,.183-.251,1.446,1.446,0,0,1-.141.276l-.447.768c-.4.658-1,1.6-1.758,2.753-1.517,2.3-3.669,5.447-6.084,8.894s-4.623,6.548-6.231,8.787l-1.913,2.646-.529.713A1.48,1.48,0,0,1,332.425,231.116Z" transform="translate(-332.425 -206.04)" fill="#263238"/>
        </g>
      </g>
      <g id="Group_316" data-name="Group 316" transform="translate(0.25 0.297)">
        <g id="Group_315" data-name="Group 315">
          <path id="Path_604" data-name="Path 604" d="M349.035,231.142c-.058.037-3.7-5.651-8.144-12.7s-7.994-12.8-7.937-12.834,3.7,5.65,8.145,12.7S349.093,231.106,349.035,231.142Z" transform="translate(-332.954 -205.606)" fill="#263238"/>
        </g>
      </g>
      <g id="Group_317" data-name="Group 317" transform="translate(20.829 21.501)">
        <rect id="Rectangle_226" data-name="Rectangle 226" width="6.359" height="1.303" transform="translate(6.357 1.463) rotate(-178.549)" fill="#263238"/>
      </g>
      <g id="Group_319" data-name="Group 319" transform="translate(21.176 20.329)">
        <g id="Group_318" data-name="Group 318" transform="translate(0)">
          <path id="Path_605" data-name="Path 605" d="M377.227,248.106a19.675,19.675,0,0,1,3.111-.118,19.882,19.882,0,0,1,3.112.128,39.453,39.453,0,0,1-6.223-.009Z" transform="translate(-377.227 -247.988)" fill="#263238"/>
        </g>
      </g>
      <g id="Group_320" data-name="Group 320" transform="translate(28.84 0.259)">
        <path id="Path_606" data-name="Path 606" d="M396.841,205.605l-.247,9.742-1.363-1.1-1.788,1.02.247-9.742Z" transform="translate(-393.442 -205.525)" fill="#263238"/>
      </g>
    </g>
    <g id="Group_5546" data-name="Group 5546" transform="translate(0 0)">
      <g id="Group_547" data-name="Group 547" transform="translate(7.871 161.695)">
        <g id="Group_545" data-name="Group 545" transform="translate(0)">
          <path id="Path_711" data-name="Path 711" d="M165.785,113.095h-9.622c-2.051,0-3.753-7.376-4.536-8.262l-1.128,9.033c-.815,1.663,1.572,3.281,4.839,3.281h9.624c2.759,0,5,.276,5-1.177v-2.239C169.076,114.477,167.577,113.095,165.785,113.095Z" transform="translate(-150.338 -104.833)" fill="#0a2138"/>
        </g>
        <g id="Group_546" data-name="Group 546" transform="translate(1.289 3.516)">
          <path id="Path_712" data-name="Path 712" d="M152.448,106.273l-1.582,3.22a6.243,6.243,0,0,0,4.536,1.526s12.913,1.382,13.794.637Z" transform="translate(-150.866 -106.273)" fill="#05101c"/>
        </g>
      </g>
      <g id="Group_548" data-name="Group 548" transform="translate(4.649 59.877)">
        <path id="Path_713" data-name="Path 713" d="M157.97,170.978l-.178,0a8.912,8.912,0,0,1-8.772-9.073L150.1,103.1c-.676-8.628,16.387-39.967,16.387-39.967l1.68,55.433L167.018,162.3A8.914,8.914,0,0,1,157.97,170.978Z" transform="translate(-149.018 -63.129)" fill="#455a64"/>
      </g>
      <g id="Group_549" data-name="Group 549" transform="translate(5.727 26.68)">
        <path id="Path_714" data-name="Path 714" d="M153.193,49.532s-2.173,9.619-3.635,19.849c-.732,5.139,2.861,35.865,2.861,35.865h14.134s2.024-21.021,1.577-26.959c-.945-12.605-5.872-13.638-7.825-17.2-.547-1,.344-9.507.344-9.507Z" transform="translate(-149.46 -49.532)" fill="#fdddba"/>
      </g>
      <g id="Group_550" data-name="Group 550" transform="translate(4.489 5.705)">
        <path id="Path_715" data-name="Path 715" d="M170.831,53.219a11.4,11.4,0,0,0,.083-1.3,10.981,10.981,0,1,0-21.656,2.534h0a10.907,10.907,0,0,0,1.931,4.087c1.382,2.727,3.215,5.921,4.514,6.563,2.344,1.162,11.294,4.063,13.321-.291s1.807-11.6,1.807-11.6Z" transform="translate(-148.953 -40.941)" fill="#fdddba"/>
      </g>
      <g id="Group_551" data-name="Group 551" transform="translate(1.668 3.498)">
        <path id="Path_716" data-name="Path 716" d="M165.539,50.741s-1.03-.515-1.374,1.892a20.681,20.681,0,0,1-1.892,5.376s-1.03-3.113-2.493-3.753-2.234.181-2.493,1.643.171,3.843,1.462,4.932,1.287,1.431-.776,2.29a16.828,16.828,0,0,1-3.525,1.084s-6.362-7.036-6.619-10.979.945-11.17,9.2-12.8,12.879,2.236,14.651,5.589,3.3,5.244,0,5.33A26.218,26.218,0,0,1,165.539,50.741Z" transform="translate(-147.797 -40.037)" fill="#2e384c"/>
      </g>
      <g id="Group_552" data-name="Group 552" transform="translate(2.494 37.531)">
        <path id="Path_717" data-name="Path 717" d="M149.489,59.39c1.7-7.686,13.216-6.736,17.2,0C172.952,70,171.345,69.173,171.2,82.1c-.73,10.161-2.253,33.6-2.253,33.6H151.369a49.238,49.238,0,0,1-.02-19.6C151.914,93.425,145.407,77.9,149.489,59.39Z" transform="translate(-148.136 -53.976)" fill="#455a64"/>
      </g>
      <g id="Group_560" data-name="Group 560" transform="translate(0)">
        <g id="Group_558" data-name="Group 558" transform="translate(0)">
          <path id="Path_721" data-name="Path 721" d="M149.826,59.769l22.735-12.207-1.2-2.236a12.814,12.814,0,0,0-17.3-5.21l-.227.122a12.81,12.81,0,0,0-5.21,17.3Z" transform="translate(-147.114 -38.604)" fill="#50d8e8"/>
        </g>
        <g id="Group_559" data-name="Group 559" transform="translate(22.048 5.073)">
          <path id="Path_722" data-name="Path 722" d="M168.374,40.682s.7.591-1,2.429c-1.548,1.668-3.9,1.909-4.561,2.17s-6.665,1.108-6.665,1.108l2.463-3.718Z" transform="translate(-156.145 -40.682)" fill="#33bfcf"/>
        </g>
      </g>
      <g id="Group_561" data-name="Group 561" transform="translate(25.447 17.683)">
        <path id="Path_723" data-name="Path 723" d="M157.537,52.813V45.847l3.159,5.115a1.394,1.394,0,0,1-1.316,1.851Z" transform="translate(-157.537 -45.847)" fill="#fdddba"/>
      </g>
      <g id="Group_564" data-name="Group 564" transform="translate(6.778 42.581)">
        <g id="Group_562" data-name="Group 562">
          <path id="Path_724" data-name="Path 724" d="M186.55,88.25l-18.978-11.8s-6.236-15.108-7.027-16.582a7.352,7.352,0,0,0-5.6-3.814l-.034,0s-.684.066-1.035.1c-3.4.332-4.956,6.66-3.357,9.678a209.61,209.61,0,0,0,12.786,20.315c.979,1.06,22.4,8.816,22.4,8.816Z" transform="translate(-149.89 -56.045)" fill="#3c515b"/>
        </g>
        <g id="Group_563" data-name="Group 563" transform="translate(34.993 27.765)">
          <path id="Path_725" data-name="Path 725" d="M164.948,72.736l-.017.032a6.073,6.073,0,0,0-.122,5.444l.168.352h5.9a19.991,19.991,0,0,0,9.112-4.28c0-.574-6.853-1.638-9.729-2.268-.557-.122,2.271-2.217.557-4.5-.266-.354-.762.3-1.108,1.067-.933,2.07-2.2,2.349-4.031,3.4A1.866,1.866,0,0,0,164.948,72.736Z" transform="translate(-164.223 -67.417)" fill="#fcca9b"/>
        </g>
      </g>
    </g>
    <g id="Group_5543" data-name="Group 5543" transform="translate(65.578 6.105)">
      <g id="Group_610" data-name="Group 610" transform="translate(7.452)">
        <g id="Group_579" data-name="Group 579" transform="translate(19.59 85.594)">
          <g id="Group_568" data-name="Group 568" transform="translate(22.595 74.871)">
            <g id="Group_567" data-name="Group 567" transform="translate(0)">
              <g id="Group_566" data-name="Group 566">
                <path id="Path_726" data-name="Path 726" d="M198.155,108.131l-.4-1.234a13.73,13.73,0,0,1,.393,2.452A10.167,10.167,0,0,0,198.155,108.131Z" transform="translate(-197.751 -106.897)" fill="#f7c378"/>
              </g>
            </g>
          </g>
          <g id="Group_575" data-name="Group 575" transform="translate(4.685)">
            <g id="Group_571" data-name="Group 571">
              <g id="Group_570" data-name="Group 570">
                <g id="Group_569" data-name="Group 569">
                  <path id="Path_727" data-name="Path 727" d="M210.057,77.6c-.048-.449-10,0-10,0-6.136.967-5.75,19.559-4.729,29.005a64.974,64.974,0,0,0,3.876,12.507l.043.089a41.481,41.481,0,0,1,3.59,17.854l-.559,8.667c-2.376,2.6-6.874,7.74-10.261,9.542a10.685,10.685,0,0,1-1.317.6,4.451,4.451,0,0,0,3.249.142c.231-.053.482-.1.723-.155,3.714-.795,6.608-1.269,9.337-2.531a8.606,8.606,0,0,0,3.909-3.176l-.82-2.539,2.4-10.035a35.63,35.63,0,0,0-.063-16.909c-.015-.056-.033-.112-.046-.168-1.315-5.308-1.818-9.768-1.15-11.967Z" transform="translate(-190.696 -77.403)" fill="#fdddba"/>
                </g>
              </g>
            </g>
            <g id="Group_574" data-name="Group 574" transform="translate(17.219 72.744)">
              <g id="Group_573" data-name="Group 573" transform="translate(0)">
                <g id="Group_572" data-name="Group 572">
                  <path id="Path_728" data-name="Path 728" d="M197.479,106.059h0l.69,2.127A15.027,15.027,0,0,0,197.479,106.059Z" transform="translate(-197.479 -106.059)" fill="#fdddba"/>
                </g>
              </g>
            </g>
          </g>
          <g id="Group_578" data-name="Group 578" transform="translate(0 71.888)">
            <g id="Group_577" data-name="Group 577">
              <g id="Group_576" data-name="Group 576">
                <path id="Path_729" data-name="Path 729" d="M211.839,111.157a13.731,13.731,0,0,0-.393-2.452l-.965-2.983s-.764,1.64-3.673,2.983a41.99,41.99,0,0,1-9.3,3.582c-.241.051-.492.1-.724.155a4.451,4.451,0,0,1-3.249-.142c-.028.008-.056.023-.084.033l-3.914,1.17a1.046,1.046,0,0,0,.091,1.993c2.965,1.132,5.382.782,8.326.591,3.125-.2,4.138-1.353,7.179-2.452l.371,1.99h4.135a26.78,26.78,0,0,0,1.46-2.968C211.206,112.376,211.859,111.451,211.839,111.157Z" transform="translate(-188.85 -105.722)" fill="#50d8e8"/>
              </g>
            </g>
          </g>
        </g>
        <g id="Group_593" data-name="Group 593" transform="translate(0 86.092)">
          <g id="Group_582" data-name="Group 582" transform="translate(23.047 74.924)">
            <g id="Group_581" data-name="Group 581" transform="translate(0)">
              <g id="Group_580" data-name="Group 580">
                <path id="Path_730" data-name="Path 730" d="M190.572,108.363l-.36-1.249a13.8,13.8,0,0,1,.315,2.462A9.323,9.323,0,0,0,190.572,108.363Z" transform="translate(-190.212 -107.114)" fill="#f7c378"/>
              </g>
            </g>
          </g>
          <g id="Group_589" data-name="Group 589" transform="translate(4.752)">
            <g id="Group_585" data-name="Group 585">
              <g id="Group_584" data-name="Group 584">
                <g id="Group_583" data-name="Group 583">
                  <path id="Path_731" data-name="Path 731" d="M219.525,77.938c-.03-.449-10-.322-10-.322-6.164.769-12.652,19.361-11.941,28.835.188,2.5.34,10.352,1.381,12.629l.041.086c2.16,4.717-.67,12.8-1.17,17.963l-2.935,8.644c-2.457,2.523-7.118,7.512-10.56,9.207a10.772,10.772,0,0,1-1.338.556,4.442,4.442,0,0,0,3.244.249c.231-.048.487-.089.729-.132,3.734-.673,6.643-1.054,9.413-2.224a8.63,8.63,0,0,0,4.011-3.054l-.741-2.564,4.813-9.954c1.51-5.514,5.877-11.309,4.666-16.9l-.036-.17c-.861-3.937.962-7.984,1.328-12Z" transform="translate(-183.005 -77.599)" fill="#fdddba"/>
                </g>
              </g>
            </g>
            <g id="Group_588" data-name="Group 588" transform="translate(17.397 72.776)">
              <g id="Group_587" data-name="Group 587" transform="translate(0)">
                <g id="Group_586" data-name="Group 586">
                  <path id="Path_732" data-name="Path 732" d="M189.858,106.268h0l.619,2.148A14.914,14.914,0,0,0,189.858,106.268Z" transform="translate(-189.858 -106.268)" fill="#f7c378"/>
                </g>
              </g>
            </g>
          </g>
          <g id="Group_592" data-name="Group 592" transform="translate(0 71.913)">
            <g id="Group_591" data-name="Group 591">
              <g id="Group_590" data-name="Group 590">
                <path id="Path_733" data-name="Path 733" d="M204.218,111.4a14.029,14.029,0,0,0-.317-2.462l-.871-3.011s-.817,1.615-3.762,2.861a42.063,42.063,0,0,1-9.41,3.28c-.241.043-.5.084-.729.132a4.442,4.442,0,0,1-3.244-.249l-.084.033-3.953,1.041a1.047,1.047,0,0,0,.028,2c2.927,1.229,5.356.954,8.306.861,3.13-.1,4.178-1.218,7.253-2.219l.3,2,4.135.132a27.153,27.153,0,0,0,1.554-2.917C203.543,112.6,204.226,111.7,204.218,111.4Z" transform="translate(-181.133 -105.928)" fill="#50d8e8"/>
              </g>
            </g>
          </g>
        </g>
        <g id="Group_600" data-name="Group 600" transform="translate(15.987 21.66)">
          <g id="Group_596" data-name="Group 596" transform="translate(16.455)">
            <g id="Group_595" data-name="Group 595" transform="translate(0)">
              <g id="Group_594" data-name="Group 594">
                <path id="Path_734" data-name="Path 734" d="M196.769,63.781c2.622-1.833,4.412-3.135,6.313-3.381.83-.1,1.769-.269,2.574-.421-.155-.741-.322-1.477-.528-2.206l-5.344-5.554-4.47,3.727,1.328,4.823-2.729,3.749A3.564,3.564,0,0,0,196.769,63.781Z" transform="translate(-193.913 -52.218)" fill="#fdddba"/>
              </g>
            </g>
          </g>
          <g id="Group_599" data-name="Group 599" transform="translate(0 7.733)">
            <g id="Group_598" data-name="Group 598">
              <g id="Group_597" data-name="Group 597">
                <path id="Path_735" data-name="Path 735" d="M215.748,67.624a32.048,32.048,0,0,0-.119-12.332c-.8.152-1.97-.109-2.8,0-1.9.241-6.09.617-8.946,4.539l-4.838,6.643a10.492,10.492,0,0,0-1.838,8.108l2.922,15.691-12.7,52.073,38.015,1.759s-6.8-32.691-6.94-34c-1.005-9.39-5.57-19.278-5.57-19.278a27.564,27.564,0,0,1,.157-11.764Z" transform="translate(-187.431 -55.264)" fill="#50d8e8"/>
              </g>
            </g>
          </g>
        </g>
        <g id="Group_603" data-name="Group 603" transform="translate(25.098 1.571)">
          <g id="Group_602" data-name="Group 602">
            <g id="Group_601" data-name="Group 601">
              <path id="Path_736" data-name="Path 736" d="M212.62,59.2c2.848-5.486-1.023-12.215-6.857-14.262A11.188,11.188,0,0,0,191.5,51.792c-.967,2.757-.518,9.778,1.625,14.52,1.914,4.244,5.722,2.038,7.118,1.747A16.924,16.924,0,0,0,212.62,59.2Z" transform="translate(-191.02 -44.304)" fill="#fdddba"/>
            </g>
          </g>
        </g>
        <g id="Group_606" data-name="Group 606" transform="translate(25.48)">
          <g id="Group_605" data-name="Group 605">
            <g id="Group_604" data-name="Group 604">
              <path id="Path_737" data-name="Path 737" d="M203.022,43.727s-10.553-1.061-11.8,7.547c-.828,5.747,8.024,6.811,8.024,6.811h0s.957-6.43,3.572-1.917C205.05,60.02,201.572,61,201.572,61a20.03,20.03,0,0,0,1.5,3.483c.871,1.137,1.5,3.061,3.831,2.061,2.866-1.229,5.712-4.991,6.481-9.695S211.95,45.3,203.022,43.727Z" transform="translate(-191.171 -43.686)" fill="#2e384c"/>
            </g>
          </g>
        </g>
        <g id="Group_609" data-name="Group 609" transform="translate(35.671 5.889)">
          <g id="Group_608" data-name="Group 608">
            <g id="Group_607" data-name="Group 607">
              <path id="Path_738" data-name="Path 738" d="M203.707,77.32l4.521.853s2.587-26.208-1.8-31.181-7.491,10.489-7.491,10.489l-3.536-.053-.211,10.636A10.529,10.529,0,0,0,203.707,77.32Z" transform="translate(-195.185 -46.005)" fill="#2e384c"/>
            </g>
          </g>
        </g>
      </g>
      <g id="Group_612" data-name="Group 612" transform="translate(0 36.356)">
        <g id="Group_611" data-name="Group 611">
          <path id="Path_739" data-name="Path 739" d="M225.365,58.042s4,.315,2.424,5.176-6.478,10.619-6.478,10.619L211.616,86.91l-18.369,6.506L188.124,95.8s-5.361,1.168-6.509.589c-2.828-1.422-4.079-2.927-3.074-3.541,1.333-.817,4.562-.4,4.562-.4l4.767-2.724-2.28-.378s-2.442.739-3.059.269c-.251-.19,1.267-1.653,2.564-1.914,1.922-.391,2.577-.675,3.673-.267l3.887,1.219,6.191-3.861a12.236,12.236,0,0,1,7.067-1.835l.041,0,9.428-15.335S216.371,57.339,225.365,58.042Z" transform="translate(-178.198 -58.007)" fill="#fdddba"/>
        </g>
      </g>
    </g>
  </g>
</svg>
