<svg xmlns="http://www.w3.org/2000/svg" width="129" height="44.019" viewBox="0 0 129 44.019">
  <g id="Group_5921" data-name="Group 5921" transform="translate(-140 -682.413)">
    <path id="Path_4122" data-name="Path 4122" d="M246.966,282.973c0,1.067,24.19,1.932,54.031,1.932s54.032-.865,54.032-1.932-24.191-1.932-54.032-1.932S246.966,281.907,246.966,282.973Z" transform="translate(-96.16 441.526)" opacity="0.3"/>
    <g id="Group_5780" data-name="Group 5780" transform="translate(140 682.413)">
      <g id="Group_5777" data-name="Group 5777">
        <path id="Path_4123" data-name="Path 4123" d="M251.106,256.207v3.761a3.557,3.557,0,0,1-1.658,2.763l2.175.547a15.184,15.184,0,0,0,2.719-7.25Z" transform="translate(-126.733 -229.432)" fill="#0c0c0c"/>
        <g id="Group_5773" data-name="Group 5773" transform="translate(0.372)">
          <path id="Path_4124" data-name="Path 4124" d="M327.114,219.027s-11.985-7.416-15.555-8.925l-3.57-.552s13.068,7.331,15.236,10.2Z" transform="translate(-231.61 -208.146)" fill="#acbebf"/>
          <path id="Path_4125" data-name="Path 4125" d="M251.464,250.264l6.97-3.966V234.04H366.353l4.669,10.482h2.4l1.719,1.253,2.294-.041.009.51-2.465.044-1.723-1.256h-2l1.474,3.309,1.682,2.284s-.75.5-1.938,1.146l2.376.805-.357,1.171-3.241-1.353a21.714,21.714,0,0,1-5.854,1.956l-19.108-.721h-84l-4.446-1.682v.841h-3.606l-.24-.481h-2.524A1.7,1.7,0,0,1,251.464,250.264Z" transform="translate(-251.098 -219.362)" fill="#0c0c0c"/>
          <g id="Group_5737" data-name="Group 5737" transform="translate(0.263)">
            <path id="Path_4126" data-name="Path 4126" d="M259.964,208.236c.595-.85,2.635-1.02,2.635-1.02,8.5-.51,24.394-.17,27.029.255a24.232,24.232,0,0,1,5.015,1.445h-1.785c4.675,2.125,14.28,8.924,14.28,8.924h3.06l.935.425a87.407,87.407,0,0,1,10.794.425,131.913,131.913,0,0,1,14.365,2.975l.873,1.19H258.238C258.4,213.591,259.571,208.8,259.964,208.236Z" transform="translate(-214.956 -206.96)" fill="#33bfcf"/>
            <path id="Path_4127" data-name="Path 4127" d="M259.924,228.539c47.3,1.359,48.782-1.505,48.782-1.505h3.06l.935.425a87.4,87.4,0,0,1,10.795.425,131.9,131.9,0,0,1,14.365,2.975c-6.44-.853-8.921.142-9.857,1.19H316.441l-1.53-1.53h-5.1l-2.571,1.53H261.7l-1.855-1.66C259.869,229.746,259.9,229.134,259.924,228.539Z" transform="translate(-216.525 -216.153)" fill="#50d8e8"/>
            <path id="Path_4128" data-name="Path 4128" d="M405.774,229.23h41.478s-.132,1.411-.216,3.825H404.744A21.084,21.084,0,0,1,405.774,229.23Z" transform="translate(-404.455 -217.159)" fill="#1eb1c2"/>
            <path id="Path_4129" data-name="Path 4129" d="M404.7,227.865h41.478a1.327,1.327,0,0,0-1.169-1.615H405.229C404.592,226.569,404.719,227.844,404.7,227.865Z" transform="translate(-403.379 -215.794)" fill="#33bfcf"/>
            <path id="Path_4130" data-name="Path 4130" d="M334.491,237.646v7.395l1.275,1.1-.34.51-1.445-1.1h-3.825l-.125-.01c-.279-1.459-2.156-8.63-12.112-9.015-8.532-.33-13.693,5.175-15.053,13.7H255.616c-.413-5.438-.521-10.076-.453-13.94h78.926l1,1.36Z" transform="translate(-211.881 -220.391)" fill="#33bfcf"/>
            <rect id="Rectangle_4244" data-name="Rectangle 4244" width="5.256" height="2.073" transform="translate(63.585 16.005)" fill="#38373f"/>
            <rect id="Rectangle_4245" data-name="Rectangle 4245" width="5.256" height="0.322" transform="translate(63.585 17.756)" fill="#403f47"/>
            <path id="Path_4131" data-name="Path 4131" d="M362.74,265.914H316.179q-.2-2.02-.338-3.91h47.251A29.665,29.665,0,0,0,362.74,265.914Z" transform="translate(-272.106 -232.169)" fill="#33bfcf"/>
            <path id="Path_4132" data-name="Path 4132" d="M473.4,265.914h-.894l-10.4-3.91h11.436A27.388,27.388,0,0,0,473.4,265.914Z" transform="translate(-461.838 -232.169)" fill="#1eb1c2"/>
            <path id="Path_4133" data-name="Path 4133" d="M405.809,265.914a11.229,11.229,0,0,1-1.719.048,25.381,25.381,0,0,0-.264-3.957h1.6Q405.58,263.9,405.809,265.914Z" transform="translate(-362.514 -232.169)" fill="#44444b"/>
            <path id="Path_4134" data-name="Path 4134" d="M405.854,246.656a18.64,18.64,0,0,1-1.03-10.37h42.292a122.055,122.055,0,0,0,.33,13.94h-1.6c-.8-5.455-3.85-13.09-14.6-13.578-4.651-.211-11.823,1.784-14.291,10.008h-11.1Z" transform="translate(-404.534 -220.391)" fill="#33bfcf"/>
            <path id="Path_4135" data-name="Path 4135" d="M365.923,262.809l-46.061,0L319.8,262l46.212,0Zm-46.952-.8c0-.007.063.8.069.8h-1.287a1.336,1.336,0,0,1,.17-.8Z" transform="translate(-276.06 -232.169)" fill="#50d8e8"/>
            <g id="Group_5735" data-name="Group 5735" transform="translate(41.688 29.835)">
              <path id="Path_4136" data-name="Path 4136" d="M405.758,262.259h-1.048a1.039,1.039,0,0,0-.171.544,1.313,1.313,0,0,1,.171-.8h1.048C405.755,262,405.757,262.255,405.758,262.259Z" transform="translate(-404.535 -262.004)" fill="#20aab9"/>
              <path id="Path_4137" data-name="Path 4137" d="M363.931,262.261l-46.164,0-.02-.255,46.212,0Z" transform="translate(-315.695 -262.003)" fill="#20aab9"/>
            </g>
            <path id="Path_4138" data-name="Path 4138" d="M366.615,254.5H319.991l-.08-1.343,46.793,0Zm-47.53-1.342q.027.66.063,1.342h-.285a1.64,1.64,0,0,1-1.527-1.049c-.038-.1-.077-.2-.118-.293Z" transform="translate(-276.465 -228.115)" fill="#50d8e8"/>
            <g id="Group_5736" data-name="Group 5736" transform="translate(40.769 25.038)">
              <path id="Path_4139" data-name="Path 4139" d="M406.807,253.6H405.13c-.057-.149-.112-.3-.173-.446h1.851q.027.66.063,1.342h-.021C406.834,254.2,406.819,253.894,406.807,253.6Z" transform="translate(-404.957 -253.154)" fill="#20aab9"/>
              <path id="Path_4140" data-name="Path 4140" d="M363.981,253.6l-46.737,0-.026-.446,46.793,0Z" transform="translate(-314.541 -253.153)" fill="#20aab9"/>
            </g>
          </g>
          <path id="Path_4141" data-name="Path 4141" d="M360.293,223.585l-10.922-.17a7.455,7.455,0,0,1-2.72-.68l-1.7-.765a6.852,6.852,0,0,0-2.975-.637L324,221.12s-3.671-.73-3.74-1.912c-.085-1.466.532-6.97.532-6.97a1.8,1.8,0,0,1,1.806-1.827s16.914-.042,19.889.3,3.528.042,7.225,2.168c0,0,7.937,4.212,10.169,6.776a4.17,4.17,0,0,1,.864,1.549,16.627,16.627,0,0,1,.086,1.938S360.718,223.627,360.293,223.585Z" transform="translate(-271.97 -208.54)" fill="#acbebf"/>
          <g id="Group_5738" data-name="Group 5738" transform="translate(81.95 8.505)">
            <path id="Path_4142" data-name="Path 4142" d="M322.814,225.877l.195-3.226a18.107,18.107,0,0,1,3.2,2.607,4.168,4.168,0,0,1,.864,1.549,16.637,16.637,0,0,1,.086,1.938s-.112.488-.537.446l-6.372-.1Z" transform="translate(-320.251 -222.651)" fill="#212123"/>
          </g>
          <g id="Group_5739" data-name="Group 5739" transform="translate(51.862 1.894)">
            <path id="Path_4143" data-name="Path 4143" d="M330.612,217.757c-.064-1.02,1.148-.956,1.148-.956s7.14.127,7.586.191,4.909,2.678,4.909,2.678l.319.765,4.207,2.614-1.53,2.358-1.148-.127-.127-.51-1.466-.637s.765-1.848.892-2.231-.637-.51-.637-.51l-2.4,4.8a6.351,6.351,0,0,1-2.1-.617l-1.7-.765a6.847,6.847,0,0,0-2.975-.637l-4.741-.056Z" transform="translate(-317.399 -213.361)" fill="#dff3f4"/>
            <path id="Path_4144" data-name="Path 4144" d="M325.247,227.126c.06-1.374.073-2.128.066-2.534a12.966,12.966,0,0,1,1.588.176,1.471,1.471,0,0,1,.935.85l.042,1.02v1.1Z" transform="translate(-293.589 -216.929)" fill="#57565e"/>
            <path id="Path_4145" data-name="Path 4145" d="M332.669,227.023l-.046-.01-2.647-.131.054-1.919a1.019,1.019,0,0,1,.552-.6s1.118.047,2.152.121C332.742,224.9,332.729,225.65,332.669,227.023Z" transform="translate(-301.011 -216.826)" fill="#494752"/>
            <path id="Path_4146" data-name="Path 4146" d="M324.264,230.067l-.977-.6v-1.1l1.062.467Z" transform="translate(-288.998 -218.658)" fill="#494752"/>
            <path id="Path_4147" data-name="Path 4147" d="M327.391,230.828l-2.144-.562c.018-.37.033-.694.046-1l2.631.617v.17Z" transform="translate(-293.635 -219.07)" fill="#494752"/>
            <path id="Path_4148" data-name="Path 4148" d="M330.1,230.079l.03-1.072,2.647.131.046.01c-.013.305-.028.63-.046,1Z" transform="translate(-301.166 -218.951)" fill="#44444b"/>
            <path id="Path_4149" data-name="Path 4149" d="M323.443,231.349l.534-.774v-.17l.977.6-.765.765Z" transform="translate(-289.688 -219.591)" fill="#44444b"/>
            <path id="Path_4150" data-name="Path 4150" d="M329.675,231.615l.746.416-4.547-.3-1.019-.748,2.677.068Z" transform="translate(-295.92 -219.857)" fill="#222"/>
            <path id="Path_4151" data-name="Path 4151" d="M376.362,217.694c.063-1.466,1.02-1.4,1.02-1.4H382.8l-.152,7.427-6.35-.075s-.1-.02-.251-.055C376.184,221.118,376.33,218.436,376.362,217.694Z" transform="translate(-376.047 -213.127)" fill="#dff3f4"/>
            <path id="Path_4152" data-name="Path 4152" d="M370.214,221.292l-5.561-.066.437-10.772c1.578.011,3.189.028,4.686.052Z" transform="translate(-357.284 -210.454)" fill="#212123"/>
          </g>
          <g id="Group_5740" data-name="Group 5740" transform="translate(46.051 1.007)">
            <path id="Path_4153" data-name="Path 4153" d="M316.793,240.514h43.47l0-.06.893-17.4c0-.033.422-3.75-2-5.347-.131-.094-7.845-5.642-12.058-7.591a23.52,23.52,0,0,0-5.376-1.025c-.123,0-12.14-.445-19.705-.191h-2.229a2.512,2.512,0,0,0-1.1.31,2.8,2.8,0,0,0-1.388,2.166c-.017.08-1.838,8.581-.829,22.518Zm43.349-.127H316.915l-.316-6.505c-1.008-13.918.809-22.4.827-22.486a2.5,2.5,0,0,1,2.361-2.372h2.231c7.561-.253,19.575.186,19.7.191a23.47,23.47,0,0,1,5.336,1.016c4.211,1.949,11.954,7.522,12.032,7.578l0,0c2.361,1.553,1.953,5.193,1.948,5.23Z" transform="translate(-316.167 -208.817)" fill="#2f2f2f"/>
          </g>
          <g id="Group_5741" data-name="Group 5741" transform="translate(61.91 1.148)">
            <path id="Path_4154" data-name="Path 4154" d="M369.392,240.7l.255-6.439-.064-10.967-.191-2.618.128-11.6h-.128l-.128,11.6.192,2.619.064,10.96-.255,6.436Z" transform="translate(-369.264 -209.078)" fill="#2f2f2f"/>
          </g>
          <path id="Path_4155" data-name="Path 4155" d="M256.065,254.418l.893,3.825a5.831,5.831,0,0,0,1.912,1.243c.765.159,4.463,1.37,4.463,1.37a3.187,3.187,0,0,0,.573-1.53l.032-3.857-1.434-1.052Z" transform="translate(-140.288 -228.694)" fill="#2f2f2f"/>
          <path id="Path_4156" data-name="Path 4156" d="M261.626,259.907l-4.972-1.211v-3.984h3.92l1.179,1.179Z" transform="translate(-138.422 -228.829)" fill="#3d3d3d"/>
          <path id="Path_4157" data-name="Path 4157" d="M281.128,236.716c9.957.385,11.833,7.556,12.112,9.015l-2.51-.2c-2.465-4.717-7.573-5.441-10.5-5.227-6.714.49-11.316,5.248-11.73,11.967l-.127,2.057h-2.652C266,243.619,271.353,236.338,281.128,236.716Z" transform="translate(-174.826 -220.581)" fill="#2f2f2f"/>
          <path id="Path_4158" data-name="Path 4158" d="M282.483,241.012c6.706-.066,9.532,4.3,10.366,6.556l-.824-.066c-2.465-4.717-7.573-5.441-10.5-5.227-6.714.49-11.315,5.248-11.73,11.967l-.127,2.057h-.837C269.079,247.005,273.856,241.1,282.483,241.012Z" transform="translate(-176.121 -222.555)" fill="#222"/>
          <path id="Path_4159" data-name="Path 4159" d="M422.158,236.94c13.855.629,14.92,13.133,14.864,17.536-1.505-.007-3.453-.048-3.453-.048s1.19-13.26-12.07-13.685c0,0-12.155-.425-11.559,13.685h-2.931C406.545,239.862,416.333,236.675,422.158,236.94Z" transform="translate(-395.182 -220.684)" fill="#1eb1c2"/>
          <path id="Path_4160" data-name="Path 4160" d="M423.952,241.57c11.849.539,12.782,11.21,12.738,15-.747-.012-1.305-.023-1.305-.023s1.19-13.26-12.07-13.685c0,0-12.154-.425-11.559,13.685h-.785C410.577,244.073,418.961,241.344,423.952,241.57Z" transform="translate(-396.998 -222.805)" fill="#11828e"/>
          <path id="Path_4161" data-name="Path 4161" d="M267.192,228.224a131.907,131.907,0,0,1,14.365,2.975l1.87,2.55h-.6l-2.422-1.827a126.555,126.555,0,0,0-20.782-2.253l-3.23-1.87A87.4,87.4,0,0,1,267.192,228.224Z" transform="translate(-159.958 -216.494)" fill="#20aab9"/>
          <g id="Group_5742" data-name="Group 5742" transform="translate(64.014 16.448)">
            <rect id="Rectangle_4246" data-name="Rectangle 4246" width="4.749" height="0.893" transform="translate(0.064 0.064)" fill="#525159"/>
            <path id="Path_4162" data-name="Path 4162" d="M357.092,238.325h4.877V237.3h-4.877Zm4.749-.127h-4.622v-.765h4.622Z" transform="translate(-357.092 -237.305)" fill="#2f2f2f"/>
          </g>
          <rect id="Rectangle_4247" data-name="Rectangle 4247" width="4.572" height="0.28" transform="translate(64.165 16.66)" fill="#5c5b63"/>
          <rect id="Rectangle_4248" data-name="Rectangle 4248" width="1.535" height="0.289" transform="translate(66.662 16.512)" fill="#2f2f2f"/>
          <path id="Path_4163" data-name="Path 4163" d="M267.1,237.37l-5.7-.2a.286.286,0,0,0-.3.287v1a.286.286,0,0,0,.115.229l2.35,1.763a1.529,1.529,0,0,1,.611,1.19l.027,1.211.637,1.785,2.252-.042Z" transform="translate(-146.176 -220.794)" fill="#acbebf"/>
          <path id="Path_4164" data-name="Path 4164" d="M261.4,237.168l5.7.2v.26l-4.93-.175a.287.287,0,0,0-.3.287v1a.286.286,0,0,0,.115.229l2.35,1.763c.376.281.138,2.114.138,2.114l1.03,1.772-.658.012-.637-1.785-.027-1.211a1.529,1.529,0,0,0-.611-1.19l-2.35-1.763a.286.286,0,0,1-.115-.229v-1A.286.286,0,0,1,261.4,237.168Z" transform="translate(-146.176 -220.794)" fill="#9cafaf"/>
          <g id="Group_5757" data-name="Group 5757" transform="translate(96.507 23.49)">
            <g id="Group_5755" data-name="Group 5755">
              <path id="Path_4165" data-name="Path 4165" d="M284.854,268.694a4.2,4.2,0,1,0-4.2-4.2A4.2,4.2,0,0,0,284.854,268.694Z" transform="translate(-275.239 -254.877)" fill="#171717"/>
              <path id="Path_4166" data-name="Path 4166" d="M285.231,268.625a3.752,3.752,0,1,0-3.751-3.752A3.752,3.752,0,0,0,285.231,268.625Z" transform="translate(-275.616 -255.254)" fill="#262626"/>
              <g id="Group_5754" data-name="Group 5754">
                <g id="Group_5743" data-name="Group 5743" transform="translate(4.203 4.041)">
                  <path id="Path_4167" data-name="Path 4167" d="M281.659,264.145a3.678,3.678,0,0,1,.241-.741l.035-.059s1.292,1.085,1.822,1.085a.553.553,0,0,0,.346-.206.667.667,0,0,0,0-.478c-.255-.449-1.777-1.058-1.777-1.058l.025-.042a3.738,3.738,0,0,1,.55-.581l.531.317A.444.444,0,0,0,284.1,262v-.617a3.711,3.711,0,0,1,.766-.176h.062a5.475,5.475,0,0,0,0,2.068.435.435,0,0,0,.765,0,5.485,5.485,0,0,0,0-2.068h.062a3.711,3.711,0,0,1,.766.176V262a.444.444,0,0,0,.671.382l.531-.317a3.737,3.737,0,0,1,.55.581l.025.042s-1.521.609-1.777,1.058a.667.667,0,0,0,0,.478.553.553,0,0,0,.346.206c.531,0,1.822-1.085,1.822-1.085l.035.059a3.68,3.68,0,0,1,.24.741l-.647.385a.444.444,0,0,0,0,.763l.647.386a3.7,3.7,0,0,1-.24.741l-.035.059s-1.292-1.085-1.822-1.085a.555.555,0,0,0-.346.206.667.667,0,0,0,0,.478c.255.45,1.777,1.058,1.777,1.058l-.025.042a3.751,3.751,0,0,1-.55.58l-.531-.316a.444.444,0,0,0-.671.381v.617a3.669,3.669,0,0,1-.766.176H285.7a5.487,5.487,0,0,0,0-2.068.435.435,0,0,0-.765,0,5.477,5.477,0,0,0,0,2.068h-.062a3.669,3.669,0,0,1-.766-.176v-.617a.444.444,0,0,0-.671-.381l-.531.316a3.752,3.752,0,0,1-.55-.58l-.025-.042s1.521-.609,1.777-1.058a.667.667,0,0,0,0-.478.555.555,0,0,0-.346-.206c-.531,0-1.822,1.085-1.822,1.085l-.035-.059a3.7,3.7,0,0,1-.241-.741l.648-.386a.444.444,0,0,0,0-.763Zm3.655,1.213.383-.228v-.435l-.383-.228-.382.228v.435Z" transform="translate(-279.902 -259.334)" fill="#616161"/>
                  <path id="Path_4168" data-name="Path 4168" d="M285.04,259.8a3.708,3.708,0,0,0-.766-.176h-.062v-1.076h-.765v1.076h-.062a3.708,3.708,0,0,0-.766.176v-2.048h2.422Zm-1.594,7.236v1.075h.765v-1.075h.062a3.672,3.672,0,0,0,.766-.176v2.049h-2.422V266.86a3.672,3.672,0,0,0,.766.176Zm-3.421-2.85.148-.088a3.715,3.715,0,0,0,.241.742l.035.059-.005,0-.3.181-.615.366.391.657.616-.366.3-.181,0,0,.025.042a3.76,3.76,0,0,0,.55.58l-.151.089-.166.1-1.443.859-1.24-2.081,1.442-.859Zm6.533-3.891,1.443-.86,1.24,2.081-1.442.859-.166.1-.149.088a3.677,3.677,0,0,0-.24-.741l-.035-.059.005,0,.3-.181.615-.366-.391-.657-.616.367-.3.181,0,0-.025-.042a3.744,3.744,0,0,0-.55-.581l.151-.089Zm-5.692.769-.025.042,0,0-.3-.181-.616-.367-.391.657.615.366.3.181.005,0-.035.059a3.691,3.691,0,0,0-.241.741l-.148-.088-.166-.1-1.442-.859,1.24-2.081,1.443.86.166.1.151.089A3.741,3.741,0,0,0,280.865,261.063Zm5.926,4.534.025-.042,0,0,.3.181.616.366.391-.657-.615-.366-.3-.181-.005,0,.035-.059a3.7,3.7,0,0,0,.24-.742l.149.088.166.1,1.442.859L288,267.225l-1.443-.859-.165-.1-.151-.089A3.764,3.764,0,0,0,286.791,265.6Z" transform="translate(-278.416 -257.752)" fill="#7b7b7b"/>
                </g>
                <path id="Path_4169" data-name="Path 4169" d="M283.531,257.406a5.766,5.766,0,1,1-5.766,5.766A5.765,5.765,0,0,1,283.531,257.406Zm0,11.034a5.269,5.269,0,1,0-5.269-5.269A5.268,5.268,0,0,0,283.531,268.44Z" transform="translate(-273.916 -253.553)" fill="#696a6b"/>
                <g id="Group_5753" data-name="Group 5753" transform="translate(7.618 7.357)">
                  <g id="Group_5746" data-name="Group 5746" transform="translate(1.657)">
                    <g id="Group_5744" data-name="Group 5744">
                      <path id="Path_4170" data-name="Path 4170" d="M287.774,264.21a.34.34,0,1,0,.34-.34A.34.34,0,0,0,287.774,264.21Z" transform="translate(-287.774 -263.87)" fill="#616161"/>
                      <path id="Path_4171" data-name="Path 4171" d="M287.938,264.285a.251.251,0,1,0,.251-.252A.251.251,0,0,0,287.938,264.285Z" transform="translate(-287.849 -263.945)" fill="#7b7b7b"/>
                    </g>
                    <g id="Group_5745" data-name="Group 5745" transform="translate(0 3.844)">
                      <path id="Path_4172" data-name="Path 4172" d="M287.774,271.3a.34.34,0,1,0,.34-.34A.34.34,0,0,0,287.774,271.3Z" transform="translate(-287.774 -270.962)" fill="#616161"/>
                      <path id="Path_4173" data-name="Path 4173" d="M287.938,271.377a.251.251,0,1,0,.251-.251A.251.251,0,0,0,287.938,271.377Z" transform="translate(-287.849 -271.037)" fill="#7b7b7b"/>
                    </g>
                  </g>
                  <g id="Group_5749" data-name="Group 5749" transform="translate(0 0.948)">
                    <g id="Group_5747" data-name="Group 5747">
                      <path id="Path_4174" data-name="Path 4174" d="M291,266.252a.34.34,0,1,0-.121-.465A.34.34,0,0,0,291,266.252Z" transform="translate(-290.832 -265.619)" fill="#616161"/>
                      <path id="Path_4175" data-name="Path 4175" d="M291.12,266.251a.251.251,0,1,0-.089-.344A.251.251,0,0,0,291.12,266.251Z" transform="translate(-290.907 -265.694)" fill="#7b7b7b"/>
                    </g>
                    <g id="Group_5748" data-name="Group 5748" transform="translate(3.315 1.948)">
                      <path id="Path_4176" data-name="Path 4176" d="M284.884,269.846a.34.34,0,1,0-.121-.466A.341.341,0,0,0,284.884,269.846Z" transform="translate(-284.717 -269.213)" fill="#616161"/>
                      <path id="Path_4177" data-name="Path 4177" d="M285,269.844a.251.251,0,1,0-.089-.344A.252.252,0,0,0,285,269.844Z" transform="translate(-284.791 -269.287)" fill="#7b7b7b"/>
                    </g>
                  </g>
                  <g id="Group_5752" data-name="Group 5752" transform="translate(0.009 0.933)">
                    <g id="Group_5750" data-name="Group 5750" transform="translate(0 1.978)">
                      <path id="Path_4178" data-name="Path 4178" d="M291.33,269.872a.34.34,0,1,0-.466-.117A.339.339,0,0,0,291.33,269.872Z" transform="translate(-290.815 -269.241)" fill="#616161"/>
                      <path id="Path_4179" data-name="Path 4179" d="M291.359,269.872a.251.251,0,1,0-.345-.086A.251.251,0,0,0,291.359,269.872Z" transform="translate(-290.89 -269.316)" fill="#7b7b7b"/>
                    </g>
                    <g id="Group_5751" data-name="Group 5751" transform="translate(3.296)">
                      <path id="Path_4180" data-name="Path 4180" d="M285.249,266.222a.34.34,0,1,0-.467-.117A.34.34,0,0,0,285.249,266.222Z" transform="translate(-284.734 -265.591)" fill="#616161"/>
                      <path id="Path_4181" data-name="Path 4181" d="M285.278,266.221a.251.251,0,1,0-.345-.086A.251.251,0,0,0,285.278,266.221Z" transform="translate(-284.808 -265.666)" fill="#7b7b7b"/>
                    </g>
                  </g>
                </g>
                <path id="Path_4182" data-name="Path 4182" d="M286.288,267.075a1.146,1.146,0,1,0,1.145-1.145A1.146,1.146,0,0,0,286.288,267.075Z" transform="translate(-277.818 -257.456)" fill="#171717"/>
                <path id="Path_4183" data-name="Path 4183" d="M286.573,267.206a.991.991,0,1,0,.991-.991A.991.991,0,0,0,286.573,267.206Z" transform="translate(-277.949 -257.587)" fill="#7b7b7b"/>
                <path id="Path_4184" data-name="Path 4184" d="M280.573,250.948a9.266,9.266,0,1,1-9.266,9.266A9.266,9.266,0,0,1,280.573,250.948Zm0,17.733a8.467,8.467,0,1,0-8.467-8.467A8.467,8.467,0,0,0,280.573,268.681Z" transform="translate(-270.958 -250.595)" fill="#222"/>
                <path id="Path_4185" data-name="Path 4185" d="M273.744,254.243l-.588-.913.666-.657.617.883Zm.739,12.146-.913.588-.656-.665.883-.618Zm5.18-15.03.23-1.061.935.007-.188,1.061Zm6.226,2.146.913-.588.657.666-.883.617Zm2.885,5.919,1.061.23-.006.935-1.061-.188Zm-2.145,6.226.587.913-.665.656-.618-.883ZM271.6,260.469l-1.061-.23.006-.935,1.061.188Zm9.111,8.065-.23,1.061-.934-.007.188-1.061Zm7.184-12.416,1.067-.2.358.863-1.05.241Zm-3.677,12.6-.863.358-.241-1.051.9-.374ZM272.031,257.2l-.9-.612.357-.864.913.572Zm.449,6.57-1.067.2-.359-.863,1.05-.241Zm3.677-12.6.863-.358.241,1.05-.9.374Zm12.184,11.515.9.612-.357.864-.913-.572Zm-5.413-10.9.612-.9.864.357-.573.913ZM277.444,268.1l-.612.9-.864-.357.572-.913Zm1.074-16.6.086-1.082.927-.119-.044,1.077Zm6.457,1.293.826-.7.74.571-.792.731Zm-11.937,2.359-.7-.826.571-.74.731.792Zm15.589,3.121,1.082.086.119.927-1.077-.043Zm-16.882,3.336-1.082-.086-.119-.927,1.077.044Zm3.652,5.48-.826.7-.74-.571.792-.731Zm6.457,1.293-.086,1.082-.927.119.044-1.077Zm5.48-3.652.7.826-.571.74-.731-.792Zm-5.5-13.235.489-.969.9.24-.448.981Zm-8.78,13.254-1.031.34-.469-.809,1.01-.377Zm-1.31-6.454-.97-.488.24-.9.981.447Zm6.8,10.091-.488.969-.9-.24.447-.981Zm-3.163-15.581-.34-1.031.809-.469.377,1.01Zm11.944,2.327,1.031-.34.469.809-1.009.377Zm-2.327,11.944.34,1.031-.809.469-.377-1.01Zm3.637-5.49.97.489-.241.9-.98-.447ZM277.38,250.709l.9-.238.1,1.073-.945.25ZM287.9,263.766l.806.727-.47.808-.827-.691Zm.443-6.57,1.084-.055.238.9-1.073.1Zm-11.972,10.461-.727.806-.808-.47.691-.828Zm6.626,1.527-.9.239-.1-1.073.945-.25ZM272.033,262.7l-1.084.055-.239-.9,1.074-.1Zm11.972-10.461.728-.805.808.47-.691.828Zm-11.53,3.891-.805-.727.471-.808.827.691Zm1.26,9.514-.978.471-.57-.74.952-.505Zm-2.138-6.229-1.024-.358.12-.927,1.03.316Zm14.283,6.984.472.978-.741.57-.505-.952Zm2.893-5.916,1.025.358-.121.927-1.03-.316ZM274.491,253.5l-.471-.978.741-.57.5.952Zm12.145.755.978-.471.57.741-.952.5Zm-6.984,14.282-.359,1.025-.927-.121.316-1.03Zm2.353-18.079-.316,1.03-.969-.126.358-1.025Z" transform="translate(-270.537 -250.297)" fill="#222"/>
                <path id="Path_4186" data-name="Path 4186" d="M281.154,252.218a8.578,8.578,0,1,1-8.577,8.578A8.578,8.578,0,0,1,281.154,252.218Zm0,14.366a5.788,5.788,0,1,0-5.788-5.788A5.789,5.789,0,0,0,281.154,266.584Z" transform="translate(-271.539 -251.177)" fill="#262626"/>
                <path id="Path_4187" data-name="Path 4187" d="M282.538,255.241a6.939,6.939,0,1,1-6.939,6.939A6.939,6.939,0,0,1,282.538,255.241Zm0,12.734a5.8,5.8,0,1,0-5.795-5.8A5.8,5.8,0,0,0,282.538,267.975Z" transform="translate(-272.923 -252.561)" fill="#222"/>
                <path id="Path_4188" data-name="Path 4188" d="M283.053,256.364a6.33,6.33,0,1,1-6.33,6.33A6.33,6.33,0,0,1,283.053,256.364Zm0,12.117a5.787,5.787,0,1,0-5.787-5.787A5.787,5.787,0,0,0,283.053,268.481Z" transform="translate(-273.438 -253.076)" fill="#171717"/>
              </g>
            </g>
            <g id="Group_5756" data-name="Group 5756" transform="translate(4.283 3.853)">
              <path id="Path_4189" data-name="Path 4189" d="M280.365,268.925l-.166-.1-.148-.089-.648-.385a.434.434,0,0,1-.105-.654.439.439,0,0,0,.169.569l.647.386.149.088.166.1,1.021.608c-.01.035-.018.071-.029.106Z" transform="translate(-271.127 -262.119)" fill="#adaeb0"/>
              <path id="Path_4190" data-name="Path 4190" d="M287.971,259.379v.991a5.472,5.472,0,0,0,0,2.068.422.422,0,0,0,.712.06c0,.008-.006.018-.011.025a.435.435,0,0,1-.765,0,5.488,5.488,0,0,1,0-2.068v-1.075Z" transform="translate(-283.022 -258.31)" fill="#adaeb0"/>
              <path id="Path_4191" data-name="Path 4191" d="M281.6,260.874a.444.444,0,0,0,.671.382l.531-.316.151-.089.165-.1.958-.57c.01.01.022.018.031.028l-1.053.627-.166.1-.151.089-.531.317a.445.445,0,0,1-.672-.382v-2.211c.022.005.042.015.064.02Z" transform="translate(-275.062 -258.021)" fill="#adaeb0"/>
              <path id="Path_4192" data-name="Path 4192" d="M281.541,273.317a.437.437,0,0,1,.122-.3.439.439,0,0,0-.058.218v2.211a5.252,5.252,0,0,0,2.489-1.387l.018.011a5.253,5.253,0,0,1-2.571,1.46Z" transform="translate(-275.062 -264.554)" fill="#adaeb0"/>
              <path id="Path_4193" data-name="Path 4193" d="M280.624,265.214a.574.574,0,0,1,.071-.095l-.007.01a.667.667,0,0,0,0,.478.552.552,0,0,0,.346.206c.531,0,1.822-1.085,1.822-1.085l.005,0,.3-.181.531-.317.021.035-.615.367-.3.181,0,0s-1.292,1.085-1.822,1.085a.552.552,0,0,1-.346-.206A.666.666,0,0,1,280.624,265.214Z" transform="translate(-274.145 -260.53)" fill="#adaeb0"/>
              <path id="Path_4194" data-name="Path 4194" d="M281.246,269.415a.3.3,0,0,1,.057-.065.671.671,0,0,0,.007.458c.255.45,1.777,1.059,1.777,1.059l0,0,.3.181.606.361-.054.091-.615-.366-.3-.181,0,0s-1.521-.609-1.777-1.059A.668.668,0,0,1,281.246,269.415Z" transform="translate(-274.767 -262.876)" fill="#adaeb0"/>
              <path id="Path_4195" data-name="Path 4195" d="M287.927,273.239a5.487,5.487,0,0,1,0-2.068.323.323,0,0,1,.053-.06,5.71,5.71,0,0,0,.011,2.043v1.075h.7v.085h-.765Z" transform="translate(-283.042 -263.682)" fill="#adaeb0"/>
              <path id="Path_4196" data-name="Path 4196" d="M291.978,261.922l.165.1.151.089.531.317a.441.441,0,0,0,.549-.079.444.444,0,0,1-.613.164l-.531-.317-.15-.089-.166-.1-1.053-.627c.026-.027.056-.048.082-.074Z" transform="translate(-289.375 -259.192)" fill="#adaeb0"/>
              <path id="Path_4197" data-name="Path 4197" d="M287.977,263.257a5.766,5.766,0,0,0-10.213-3.669,5.764,5.764,0,1,1,8.959,7.253A5.735,5.735,0,0,0,287.977,263.257Z" transform="translate(-276.943 -257.406)" fill="#adaeb0"/>
              <path id="Path_4198" data-name="Path 4198" d="M291.143,263.086l-.337.566.615.366.3.181.005,0s1.292,1.085,1.822,1.085a.555.555,0,0,0,.288-.14c0,.005,0,.015-.006.019a.551.551,0,0,1-.346.206c-.53,0-1.822-1.085-1.822-1.085l-.005,0-.3-.18-.615-.367.392-.657Z" transform="translate(-289.777 -260.005)" fill="#adaeb0"/>
              <path id="Path_4199" data-name="Path 4199" d="M293.755,266.862a5.267,5.267,0,0,1,.243-1.583l.035.021a5.242,5.242,0,0,0,.029,3.061l1.055-.629.166-.1.148-.088.648-.386a.423.423,0,0,0,.106-.109.43.43,0,0,1-.17.194l-.647.385-.148.089-.167.1-1.055.628A5.267,5.267,0,0,1,293.755,266.862Z" transform="translate(-293.755 -261.012)" fill="#adaeb0"/>
              <path id="Path_4200" data-name="Path 4200" d="M290.849,274.853a5.251,5.251,0,0,0,2.476,1.412v.1a5.25,5.25,0,0,1-2.571-1.46Z" transform="translate(-289.268 -265.396)" fill="#adaeb0"/>
              <path id="Path_4201" data-name="Path 4201" d="M290.767,271.312l.084-.05.371.622.616-.366.3-.181,0,0a6.53,6.53,0,0,0,1.706-.963c-.272.448-1.77,1.048-1.77,1.048l0,0-.3.181-.615.366Z" transform="translate(-289.802 -263.344)" fill="#adaeb0"/>
            </g>
          </g>
          <g id="Group_5772" data-name="Group 5772" transform="translate(16.44 23.49)">
            <g id="Group_5770" data-name="Group 5770">
              <path id="Path_4202" data-name="Path 4202" d="M432.573,268.694a4.2,4.2,0,1,0-4.2-4.2A4.2,4.2,0,0,0,432.573,268.694Z" transform="translate(-422.957 -254.877)" fill="#171717"/>
              <path id="Path_4203" data-name="Path 4203" d="M432.95,268.625a3.752,3.752,0,1,0-3.752-3.752A3.752,3.752,0,0,0,432.95,268.625Z" transform="translate(-423.334 -255.254)" fill="#262626"/>
              <g id="Group_5769" data-name="Group 5769">
                <g id="Group_5758" data-name="Group 5758" transform="translate(4.203 4.041)">
                  <path id="Path_4204" data-name="Path 4204" d="M429.376,264.145a3.688,3.688,0,0,1,.24-.741l.035-.059s1.292,1.085,1.822,1.085a.553.553,0,0,0,.346-.206.667.667,0,0,0,0-.478c-.255-.449-1.777-1.058-1.777-1.058l.025-.042a3.744,3.744,0,0,1,.55-.581l.531.317a.444.444,0,0,0,.671-.382v-.617a3.712,3.712,0,0,1,.766-.176h.062a5.487,5.487,0,0,0,0,2.068.435.435,0,0,0,.765,0,5.473,5.473,0,0,0,0-2.068h.062a3.712,3.712,0,0,1,.766.176V262a.444.444,0,0,0,.671.382l.531-.317a3.738,3.738,0,0,1,.55.581l.025.042s-1.521.609-1.777,1.058a.666.666,0,0,0,0,.478.553.553,0,0,0,.346.206c.531,0,1.822-1.085,1.822-1.085l.035.059a3.679,3.679,0,0,1,.241.741l-.648.385a.444.444,0,0,0,0,.763l.648.386a3.7,3.7,0,0,1-.241.741l-.035.059s-1.292-1.085-1.822-1.085a.555.555,0,0,0-.346.206.666.666,0,0,0,0,.478c.255.45,1.777,1.058,1.777,1.058l-.025.042a3.752,3.752,0,0,1-.55.58l-.531-.316a.444.444,0,0,0-.671.381v.617a3.67,3.67,0,0,1-.766.176h-.062a5.475,5.475,0,0,0,0-2.068.435.435,0,0,0-.765,0,5.489,5.489,0,0,0,0,2.068h-.062a3.67,3.67,0,0,1-.766-.176v-.617a.444.444,0,0,0-.671-.381l-.531.316a3.759,3.759,0,0,1-.55-.58l-.025-.042s1.521-.609,1.777-1.058a.667.667,0,0,0,0-.478.555.555,0,0,0-.346-.206c-.531,0-1.822,1.085-1.822,1.085l-.035-.059a3.707,3.707,0,0,1-.24-.741l.647-.386a.444.444,0,0,0,0-.763Zm3.655,1.213.382-.228v-.435l-.382-.228-.383.228v.435Z" transform="translate(-427.618 -259.334)" fill="#616161"/>
                  <path id="Path_4205" data-name="Path 4205" d="M432.758,259.8a3.706,3.706,0,0,0-.766-.176h-.062v-1.076h-.765v1.076H431.1a3.706,3.706,0,0,0-.766.176v-2.048h2.422Zm-1.594,7.236v1.075h.765v-1.075h.062a3.67,3.67,0,0,0,.766-.176v2.049h-2.422V266.86a3.67,3.67,0,0,0,.766.176Zm-3.421-2.85.149-.088a3.709,3.709,0,0,0,.24.742l.035.059-.005,0-.3.181-.615.366.391.657.616-.366.3-.181,0,0,.025.042a3.765,3.765,0,0,0,.55.58l-.151.089-.165.1-1.443.859-1.24-2.081,1.442-.859Zm6.533-3.891,1.443-.86,1.24,2.081-1.442.859-.166.1-.149.088a3.684,3.684,0,0,0-.241-.741l-.035-.059.005,0,.3-.181.615-.366-.391-.657-.616.367-.3.181,0,0-.025-.042a3.74,3.74,0,0,0-.55-.581l.151-.089Zm-5.692.769-.025.042,0,0-.3-.181-.616-.367-.391.657.615.366.3.181.005,0-.035.059a3.686,3.686,0,0,0-.24.741l-.149-.088-.166-.1-1.442-.859,1.24-2.081,1.443.86.165.1.151.089A3.745,3.745,0,0,0,428.583,261.063Zm5.926,4.534.025-.042,0,0,.3.181.616.366.391-.657-.615-.366-.3-.181-.005,0,.035-.059a3.707,3.707,0,0,0,.241-.742l.149.088.166.1,1.442.859-1.24,2.081-1.443-.859-.165-.1-.151-.089A3.76,3.76,0,0,0,434.509,265.6Z" transform="translate(-426.134 -257.752)" fill="#7b7b7b"/>
                </g>
                <path id="Path_4206" data-name="Path 4206" d="M431.248,257.406a5.766,5.766,0,1,1-5.766,5.766A5.766,5.766,0,0,1,431.248,257.406Zm0,11.034a5.269,5.269,0,1,0-5.268-5.269A5.269,5.269,0,0,0,431.248,268.44Z" transform="translate(-421.632 -253.553)" fill="#696a6b"/>
                <g id="Group_5768" data-name="Group 5768" transform="translate(7.618 7.357)">
                  <g id="Group_5761" data-name="Group 5761" transform="translate(1.657)">
                    <g id="Group_5759" data-name="Group 5759">
                      <path id="Path_4207" data-name="Path 4207" d="M435.492,264.21a.34.34,0,1,0,.34-.34A.34.34,0,0,0,435.492,264.21Z" transform="translate(-435.492 -263.87)" fill="#616161"/>
                      <path id="Path_4208" data-name="Path 4208" d="M435.656,264.285a.251.251,0,1,0,.252-.252A.251.251,0,0,0,435.656,264.285Z" transform="translate(-435.567 -263.945)" fill="#7b7b7b"/>
                    </g>
                    <g id="Group_5760" data-name="Group 5760" transform="translate(0 3.844)">
                      <path id="Path_4209" data-name="Path 4209" d="M435.492,271.3a.34.34,0,1,0,.34-.34A.34.34,0,0,0,435.492,271.3Z" transform="translate(-435.492 -270.962)" fill="#616161"/>
                      <circle id="Ellipse_113" data-name="Ellipse 113" cx="0.251" cy="0.251" r="0.251" transform="translate(0.089 0.089)" fill="#7b7b7b"/>
                    </g>
                  </g>
                  <g id="Group_5764" data-name="Group 5764" transform="translate(0 0.948)">
                    <g id="Group_5762" data-name="Group 5762">
                      <path id="Path_4210" data-name="Path 4210" d="M438.718,266.252a.34.34,0,1,0-.121-.465A.34.34,0,0,0,438.718,266.252Z" transform="translate(-438.55 -265.619)" fill="#616161"/>
                      <path id="Path_4211" data-name="Path 4211" d="M438.838,266.251a.251.251,0,1,0-.089-.344A.251.251,0,0,0,438.838,266.251Z" transform="translate(-438.625 -265.694)" fill="#7b7b7b"/>
                    </g>
                    <g id="Group_5763" data-name="Group 5763" transform="translate(3.315 1.948)">
                      <path id="Path_4212" data-name="Path 4212" d="M432.6,269.846a.34.34,0,1,0-.121-.466A.341.341,0,0,0,432.6,269.846Z" transform="translate(-432.434 -269.213)" fill="#616161"/>
                      <path id="Path_4213" data-name="Path 4213" d="M432.722,269.844a.251.251,0,1,0-.089-.344A.252.252,0,0,0,432.722,269.844Z" transform="translate(-432.509 -269.287)" fill="#7b7b7b"/>
                    </g>
                  </g>
                  <g id="Group_5767" data-name="Group 5767" transform="translate(0.009 0.933)">
                    <g id="Group_5765" data-name="Group 5765" transform="translate(0 1.978)">
                      <path id="Path_4214" data-name="Path 4214" d="M439.047,269.872a.34.34,0,1,0-.466-.117A.339.339,0,0,0,439.047,269.872Z" transform="translate(-438.533 -269.241)" fill="#616161"/>
                      <path id="Path_4215" data-name="Path 4215" d="M439.077,269.872a.251.251,0,1,0-.345-.086A.251.251,0,0,0,439.077,269.872Z" transform="translate(-438.608 -269.316)" fill="#7b7b7b"/>
                    </g>
                    <g id="Group_5766" data-name="Group 5766" transform="translate(3.296)">
                      <path id="Path_4216" data-name="Path 4216" d="M432.966,266.222a.34.34,0,1,0-.466-.117A.34.34,0,0,0,432.966,266.222Z" transform="translate(-432.451 -265.591)" fill="#616161"/>
                      <path id="Path_4217" data-name="Path 4217" d="M433,266.221a.251.251,0,1,0-.345-.086A.251.251,0,0,0,433,266.221Z" transform="translate(-432.526 -265.666)" fill="#7b7b7b"/>
                    </g>
                  </g>
                </g>
                <path id="Path_4218" data-name="Path 4218" d="M434.006,267.075a1.146,1.146,0,1,0,1.146-1.145A1.146,1.146,0,0,0,434.006,267.075Z" transform="translate(-425.536 -257.456)" fill="#171717"/>
                <path id="Path_4219" data-name="Path 4219" d="M434.291,267.206a.991.991,0,1,0,.991-.991A.991.991,0,0,0,434.291,267.206Z" transform="translate(-425.667 -257.587)" fill="#7b7b7b"/>
                <path id="Path_4220" data-name="Path 4220" d="M428.29,250.948a9.266,9.266,0,1,1-9.267,9.266A9.266,9.266,0,0,1,428.29,250.948Zm0,17.733a8.467,8.467,0,1,0-8.468-8.467A8.467,8.467,0,0,0,428.29,268.681Z" transform="translate(-418.675 -250.595)" fill="#222"/>
                <path id="Path_4221" data-name="Path 4221" d="M421.462,254.243l-.588-.913.666-.657.618.883Zm.739,12.146-.913.588-.656-.665.883-.618Zm5.181-15.03.23-1.061.935.007-.188,1.061Zm6.226,2.146.913-.588.657.666-.883.617Zm2.885,5.919,1.061.23-.006.935-1.061-.188Zm-2.146,6.226.588.913-.666.656-.618-.883Zm-15.031-5.181-1.061-.23.006-.935,1.061.188Zm9.111,8.065-.23,1.061-.935-.007.188-1.061Zm7.183-12.416,1.067-.2.359.863-1.051.241Zm-3.677,12.6-.864.358-.241-1.051.9-.374ZM419.749,257.2l-.9-.612.357-.864.913.572Zm.449,6.57-1.067.2-.359-.863,1.051-.241Zm3.677-12.6.864-.358.241,1.05-.9.374Zm12.184,11.515.9.612-.357.864-.913-.572Zm-5.413-10.9.611-.9.865.357-.573.913ZM425.162,268.1l-.612.9-.864-.357.572-.913Zm1.074-16.6.086-1.082.927-.119-.044,1.077Zm6.457,1.293.826-.7.74.571-.792.731Zm-11.937,2.359-.7-.826.572-.74.73.792Zm15.589,3.121,1.082.086.119.927-1.077-.043Zm-16.882,3.336-1.082-.086-.119-.927,1.077.044Zm3.652,5.48-.826.7-.74-.571.792-.731Zm6.457,1.293-.086,1.082-.927.119.044-1.077Zm5.48-3.652.7.826-.571.74-.731-.792Zm-5.5-13.235.488-.969.9.24-.448.981Zm-8.781,13.254-1.031.34-.469-.809,1.01-.377Zm-1.31-6.454-.97-.488.24-.9.98.447Zm6.8,10.091-.488.969-.9-.24.447-.981ZM423.1,252.811l-.34-1.031.809-.469.377,1.01Zm11.944,2.327,1.031-.34.469.809-1.01.377Zm-2.327,11.944.34,1.031-.809.469-.377-1.01Zm3.637-5.49.97.489-.24.9-.98-.447ZM425.1,250.709l.9-.238.1,1.073-.945.25Zm10.516,13.056.806.727-.47.808-.827-.691Zm.443-6.57,1.084-.055.238.9-1.073.1Zm-11.972,10.461-.727.806-.808-.47.691-.828Zm6.626,1.527-.9.239-.1-1.073.945-.25ZM419.752,262.7l-1.084.055-.239-.9,1.074-.1Zm11.972-10.461.727-.805.808.47-.691.828Zm-11.53,3.891-.806-.727.47-.808.827.691Zm1.26,9.514-.978.471-.57-.74.952-.505Zm-2.138-6.229-1.024-.358.12-.927,1.03.316ZM433.6,266.4l.471.978-.741.57-.505-.952Zm2.893-5.916,1.025.358-.121.927-1.03-.316ZM422.209,253.5l-.471-.978.741-.57.5.952Zm12.145.755.978-.471.57.741-.952.5Zm-6.984,14.282-.358,1.025-.927-.121.317-1.03Zm2.354-18.079-.317,1.03-.969-.126.358-1.025Z" transform="translate(-418.255 -250.297)" fill="#222"/>
                <path id="Path_4222" data-name="Path 4222" d="M428.873,252.218A8.578,8.578,0,1,1,420.3,260.8,8.577,8.577,0,0,1,428.873,252.218Zm0,14.366a5.788,5.788,0,1,0-5.789-5.788A5.788,5.788,0,0,0,428.873,266.584Z" transform="translate(-419.257 -251.177)" fill="#262626"/>
                <path id="Path_4223" data-name="Path 4223" d="M430.257,255.241a6.939,6.939,0,1,1-6.94,6.939A6.939,6.939,0,0,1,430.257,255.241Zm0,12.734a5.8,5.8,0,1,0-5.8-5.8A5.8,5.8,0,0,0,430.257,267.975Z" transform="translate(-420.641 -252.561)" fill="#222"/>
                <path id="Path_4224" data-name="Path 4224" d="M430.771,256.364a6.33,6.33,0,1,1-6.331,6.33A6.33,6.33,0,0,1,430.771,256.364Zm0,12.117a5.787,5.787,0,1,0-5.787-5.787A5.787,5.787,0,0,0,430.771,268.481Z" transform="translate(-421.155 -253.076)" fill="#171717"/>
              </g>
            </g>
            <g id="Group_5771" data-name="Group 5771" transform="translate(4.283 3.853)">
              <path id="Path_4225" data-name="Path 4225" d="M428.084,268.925l-.167-.1-.148-.089-.648-.385a.434.434,0,0,1-.105-.654.439.439,0,0,0,.169.569l.648.386.148.088.166.1,1.021.608c-.01.035-.018.071-.029.106Z" transform="translate(-418.845 -262.119)" fill="#adaeb0"/>
              <path id="Path_4226" data-name="Path 4226" d="M435.689,259.379v.991a5.486,5.486,0,0,0,0,2.068.422.422,0,0,0,.712.06c0,.008-.006.018-.01.025a.435.435,0,0,1-.765,0,5.488,5.488,0,0,1,0-2.068v-1.075Z" transform="translate(-430.74 -258.31)" fill="#adaeb0"/>
              <path id="Path_4227" data-name="Path 4227" d="M429.322,260.874a.444.444,0,0,0,.671.382l.531-.316.151-.089.165-.1.958-.57c.01.01.022.018.031.028l-1.053.627-.166.1-.15.089-.531.317a.444.444,0,0,1-.671-.382v-2.211c.022.005.042.015.063.02Z" transform="translate(-422.779 -258.021)" fill="#adaeb0"/>
              <path id="Path_4228" data-name="Path 4228" d="M429.259,273.317a.435.435,0,0,1,.122-.3.435.435,0,0,0-.059.218v2.211a5.251,5.251,0,0,0,2.489-1.387l.018.011a5.253,5.253,0,0,1-2.571,1.46Z" transform="translate(-422.779 -264.554)" fill="#adaeb0"/>
              <path id="Path_4229" data-name="Path 4229" d="M428.342,265.214a.568.568,0,0,1,.07-.095l-.007.01a.667.667,0,0,0,0,.478.552.552,0,0,0,.346.206c.531,0,1.822-1.085,1.822-1.085l.006,0,.3-.181.531-.317.021.035-.615.367-.3.181,0,0s-1.292,1.085-1.822,1.085a.55.55,0,0,1-.346-.206A.668.668,0,0,1,428.342,265.214Z" transform="translate(-421.862 -260.53)" fill="#adaeb0"/>
              <path id="Path_4230" data-name="Path 4230" d="M428.964,269.415a.265.265,0,0,1,.057-.065.67.67,0,0,0,.006.458c.255.45,1.777,1.059,1.777,1.059l0,0,.3.181.606.361-.054.091-.615-.366-.3-.181,0,0s-1.522-.609-1.777-1.059A.667.667,0,0,1,428.964,269.415Z" transform="translate(-422.484 -262.876)" fill="#adaeb0"/>
              <path id="Path_4231" data-name="Path 4231" d="M435.645,273.239a5.487,5.487,0,0,1,0-2.068.321.321,0,0,1,.053-.06,5.711,5.711,0,0,0,.011,2.043v1.075h.7v.085h-.765Z" transform="translate(-430.759 -263.682)" fill="#adaeb0"/>
              <path id="Path_4232" data-name="Path 4232" d="M439.7,261.922l.165.1.151.089.531.317a.441.441,0,0,0,.549-.079.444.444,0,0,1-.613.164l-.531-.317-.15-.089-.166-.1-1.053-.627c.025-.027.056-.048.082-.074Z" transform="translate(-437.093 -259.192)" fill="#adaeb0"/>
              <path id="Path_4233" data-name="Path 4233" d="M435.7,263.257a5.766,5.766,0,0,0-10.214-3.669,5.764,5.764,0,1,1,8.96,7.253A5.738,5.738,0,0,0,435.7,263.257Z" transform="translate(-424.661 -257.406)" fill="#adaeb0"/>
              <path id="Path_4234" data-name="Path 4234" d="M438.861,263.086l-.338.566.615.366.3.181.005,0s1.292,1.085,1.822,1.085a.553.553,0,0,0,.288-.14.188.188,0,0,1-.007.019.549.549,0,0,1-.346.206c-.53,0-1.822-1.085-1.822-1.085l0,0-.3-.18-.615-.367.391-.657Z" transform="translate(-437.495 -260.005)" fill="#adaeb0"/>
              <path id="Path_4235" data-name="Path 4235" d="M441.473,266.862a5.271,5.271,0,0,1,.243-1.583l.035.021a5.256,5.256,0,0,0,.029,3.061l1.055-.629.166-.1.149-.088.647-.386a.422.422,0,0,0,.106-.109.431.431,0,0,1-.169.194l-.648.385-.149.089-.167.1-1.055.628A5.27,5.27,0,0,1,441.473,266.862Z" transform="translate(-441.473 -261.012)" fill="#adaeb0"/>
              <path id="Path_4236" data-name="Path 4236" d="M438.567,274.853a5.255,5.255,0,0,0,2.476,1.412v.1a5.252,5.252,0,0,1-2.571-1.46Z" transform="translate(-436.986 -265.396)" fill="#adaeb0"/>
              <path id="Path_4237" data-name="Path 4237" d="M438.485,271.312l.084-.05.371.622.616-.366.3-.181,0,0a6.522,6.522,0,0,0,1.706-.963c-.272.448-1.77,1.048-1.77,1.048l0,0-.3.181-.615.366Z" transform="translate(-437.52 -263.344)" fill="#adaeb0"/>
            </g>
          </g>
          <path id="Path_4238" data-name="Path 4238" d="M267.926,238.464v2.125l-1.948-1.339a.211.211,0,0,1-.092-.174v-.514a.211.211,0,0,1,.224-.21Z" transform="translate(-149.599 -221.336)" fill="#dff3f4"/>
          <path id="Path_4239" data-name="Path 4239" d="M264.13,246.111a.924.924,0,0,0-.894,1.5,1.723,1.723,0,0,0,.48.35h.415v-1.849Z" transform="translate(-144.243 -224.882)" fill="#dff3f4"/>
        </g>
        <path id="Path_4240" data-name="Path 4240" d="M255.739,238.8l.68,8.5-1.275-1.1V238.8Z" transform="translate(-131.898 -221.54)" fill="#ffda00"/>
        <path id="Path_4241" data-name="Path 4241" d="M259.451,237.949l-1.487.722.042,5.015,1.445,1.657-.595.085-1.36-.935v-7.225l.63-.322Z" transform="translate(-136.205 -220.693)" fill="#2f2f2f"/>
        <path id="Path_4242" data-name="Path 4242" d="M258.476,244.186h5.642v1.147h-4.877Z" transform="translate(-141.403 -224.008)" fill="#33bfcf"/>
        <g id="Group_5774" data-name="Group 5774" transform="translate(119.421 27.03)">
          <path id="Path_4243" data-name="Path 4243" d="M258.28,256.829h3.4l-1.094.51v2.175l-2.305-.432Z" transform="translate(-258.28 -256.829)" fill="#0c0c0c"/>
          <path id="Path_4244" data-name="Path 4244" d="M259.375,256.829v2.89l-1.094-.205v-2.175Z" transform="translate(-255.975 -256.829)" fill="#494752"/>
        </g>
        <g id="Group_5775" data-name="Group 5775" transform="translate(123.161 15.683)">
          <path id="Path_4245" data-name="Path 4245" d="M248.154,256.231a1.275,1.275,0,0,0,1.127-.678l2.15-4.049a11.039,11.039,0,0,0,1.038-7.512l-1.538-7.093a1.275,1.275,0,1,0-2.492.541l1.538,7.092a8.486,8.486,0,0,1-.8,5.776l-2.15,4.05a1.276,1.276,0,0,0,1.125,1.873Z" transform="translate(-246.88 -235.895)" fill="#57565e"/>
        </g>
        <path id="Path_4246" data-name="Path 4246" d="M250.06,250.978a8.994,8.994,0,0,0,.846-6.123l-1.538-7.092a.765.765,0,1,1,1.495-.324l1.538,7.091a10.529,10.529,0,0,1-.989,7.165l-2.15,4.049a.778.778,0,0,1-1.034.317.765.765,0,0,1-.318-1.034Z" transform="translate(-124.15 -220.642)" fill="#5d5c63"/>
        <g id="Group_5776" data-name="Group 5776" transform="translate(0 26.265)">
          <path id="Path_4247" data-name="Path 4247" d="M461.69,258.987l-.9-.34v-2.72h2.975v-.51h10.083a20.1,20.1,0,0,0-.717,3.57Z" transform="translate(-460.785 -255.417)" fill="#11828e"/>
          <path id="Path_4248" data-name="Path 4248" d="M461.69,258.987l-.9-.34v-2.72h2.975v-.51h10.083a20.1,20.1,0,0,0-.717,3.57Z" transform="translate(-460.785 -255.417)" fill="#11828e"/>
        </g>
        <path id="Path_4249" data-name="Path 4249" d="M473.961,256.358c-.051.189-.1.379-.145.574H461.044v-.574h12.917Z" transform="translate(-461.044 -229.583)" fill="#20aab9"/>
        <path id="Path_4250" data-name="Path 4250" d="M477.5,265.914h3.549l-.754-.755h-2.815S477.263,265.276,477.5,265.914Z" transform="translate(-476.986 -233.614)" fill="#222"/>
      </g>
      <g id="Group_5778" data-name="Group 5778" transform="translate(47.088 34.404)">
        <path id="Path_4251" data-name="Path 4251" d="M318.841,270.432v.446h.222v-.446h.815v.446h.222v-.446h.815v.446h.222v-.446h.815v.446h.222v-.446h.815v.446h.223v-.446h.815v.446h.223v-.446h.815v.446h.223v-.446h.815v.446h.223v-.446h.815v.446h.223v-.446h.815v.446h.223v-.446h.815v.446h.223v-.446h.815v.446h.223v-.446h.815v.446h.223v-.446h.815v.446h.222v-.446h.815v.446h.222v-.446h.815v.446h.222v-.446h.815v.446h.222v-.446h.815v.446h.222v-.446h.815v.446h.222v-.446h.815v.446h.222v-.446h.815v.446h.223v-.446h.815v.446h.223v-.446h.815v.446h.223v-.446h.815v.446h.223v-.446h.815v.446h.223v-.446h.815v.446H345v-.446h.815v.446h.223v-.446h.815v.446h.223v-.446h.815v.446h.223v-.446h.815v.446h.222v-.446h.815v.446h.222v-.446H351v.446h.222v-.446h.815v.446h.222v-.446h.815v.446h.222v-.446h.815v.446h.223v-.446h.815v.446h.223v-.446h.815v.446h.223v-.446h.815v.446h.223v-.446h.815v.446h.223v-.446h.815v.446h.223v-.446h.815v.446h.223v-.446h.815a1.211,1.211,0,0,1-1.211,1.211H319.237a1.212,1.212,0,0,1-1.211-1.211h.815Z" transform="translate(-318.026 -270.432)" fill="#222"/>
        <path id="Path_4252" data-name="Path 4252" d="M318.329,271.5H361.2l.151-.262H318.178Z" transform="translate(-318.085 -270.803)" fill="#494752"/>
      </g>
      <path id="Path_4253" data-name="Path 4253" d="M324.379,210.664c-1.105,0-1.782,0-1.782,0a1.553,1.553,0,0,0-1.553,1.6c-.006.055-.613,5.5-.53,6.927.039.675,2.069,1.382,3.512,1.672l17.956.213a7.055,7.055,0,0,1,3.074.66l1.72.775a7.246,7.246,0,0,0,2.6.648l10.944.171h.026c.144,0,.211-.168.23-.229a15.18,15.18,0,0,0-.08-1.847,3.96,3.96,0,0,0-.808-1.437c-2.176-2.5-10.017-6.677-10.1-6.723-3.046-1.751-3.921-1.83-5.835-2.006-.382-.035-.8-.074-1.292-.13-2.35-.268-13.426-.3-18.078-.3m0-.255c4.425,0,15.727.027,18.107.3,2.975.34,3.528.042,7.225,2.168,0,0,7.937,4.212,10.169,6.776a4.17,4.17,0,0,1,.864,1.549,16.627,16.627,0,0,1,.086,1.938s-.1.449-.485.449l-.051,0-10.922-.17a7.456,7.456,0,0,1-2.72-.68l-1.7-.765a6.852,6.852,0,0,0-2.975-.637L324,221.12s-3.671-.73-3.74-1.912c-.085-1.466.532-6.97.532-6.97a1.8,1.8,0,0,1,1.806-1.827s.676,0,1.782,0Z" transform="translate(-271.598 -208.54)" fill="#2f2f2f"/>
      <path id="Path_4254" data-name="Path 4254" d="M446.294,231.053h-3.007l1.53,2.167-3.782-2.167H404.783l1.02-1.275H446.41S446.315,231.064,446.294,231.053Z" transform="translate(-402.998 -217.41)" fill="#11828e"/>
      <path id="Path_4255" data-name="Path 4255" d="M472.7,236.286h5.833v1.588a1.048,1.048,0,0,1-.194.608l-.031.043a1.052,1.052,0,0,1-.221.227l-1.216.919a.554.554,0,0,0-.22.437l-.025,3.386a.553.553,0,0,1-.553.549h-3.175A19.884,19.884,0,0,1,472.7,236.286Z" transform="translate(-471.772 -220.391)" fill="#5e0000"/>
      <g id="Group_5779" data-name="Group 5779" transform="translate(0.542 16.129)">
        <path id="Path_4256" data-name="Path 4256" d="M474.332,236.717h5.058v1.493a1.037,1.037,0,0,1-.169.571l-.027.041a.935.935,0,0,1-.191.213l-1.055.863a.533.533,0,0,0-.191.41l-.015,2.21h-3.492A20.376,20.376,0,0,1,474.332,236.717Z" transform="translate(-474.082 -236.717)" fill="#ba0000"/>
        <path id="Path_4257" data-name="Path 4257" d="M480.128,248.907h-2.754c-.094-.445-.181-.943-.252-1.487h3.492l-.007.972A.5.5,0,0,1,480.128,248.907Z" transform="translate(-476.953 -241.619)" fill="#930606"/>
      </g>
      <path id="Path_4258" data-name="Path 4258" d="M481.108,243.578h1.035a.255.255,0,0,1,.253.218l.2,1.358a.256.256,0,0,1-.253.293h-1.1C481.175,244.872,481.125,244.247,481.108,243.578Z" transform="translate(-480.557 -223.73)" fill="#acbebf"/>
      <path id="Path_4259" data-name="Path 4259" d="M477.3,237.345h3.01a.458.458,0,0,1,.458.457v1.035a1.037,1.037,0,0,1-.169.571l-.027.041a.943.943,0,0,1-.192.212l-.882.722h-2.4A20.513,20.513,0,0,1,477.3,237.345Z" transform="translate(-476.556 -220.876)" fill="#930606"/>
      <path id="Path_4260" data-name="Path 4260" d="M478.143,241.936a18.877,18.877,0,0,1-.975-10.246,21.066,21.066,0,0,1,1.03-3.824c.021-.022-.106-1.3.531-1.615h1.647l.2,1.53c-3.485,3.57-1.36,14.279-1.36,14.279Z" transform="translate(-476.243 -215.794)" opacity="0.3"/>
    </g>
  </g>
</svg>
