<svg xmlns="http://www.w3.org/2000/svg" width="14.219" height="16.25" viewBox="0 0 14.219 16.25">
  <path id="Icon_awesome-calendar-alt" data-name="Icon awesome-calendar-alt" d="M0,14.727A1.524,1.524,0,0,0,1.523,16.25H12.7a1.524,1.524,0,0,0,1.523-1.523V6.094H0ZM10.156,8.506a.382.382,0,0,1,.381-.381h1.27a.382.382,0,0,1,.381.381v1.27a.382.382,0,0,1-.381.381h-1.27a.382.382,0,0,1-.381-.381Zm0,4.063a.382.382,0,0,1,.381-.381h1.27a.382.382,0,0,1,.381.381v1.27a.382.382,0,0,1-.381.381h-1.27a.382.382,0,0,1-.381-.381ZM6.094,8.506a.382.382,0,0,1,.381-.381h1.27a.382.382,0,0,1,.381.381v1.27a.382.382,0,0,1-.381.381H6.475a.382.382,0,0,1-.381-.381Zm0,4.063a.382.382,0,0,1,.381-.381h1.27a.382.382,0,0,1,.381.381v1.27a.382.382,0,0,1-.381.381H6.475a.382.382,0,0,1-.381-.381ZM2.031,8.506a.382.382,0,0,1,.381-.381h1.27a.382.382,0,0,1,.381.381v1.27a.382.382,0,0,1-.381.381H2.412a.382.382,0,0,1-.381-.381Zm0,4.063a.382.382,0,0,1,.381-.381h1.27a.382.382,0,0,1,.381.381v1.27a.382.382,0,0,1-.381.381H2.412a.382.382,0,0,1-.381-.381ZM12.7,2.031H11.172V.508A.509.509,0,0,0,10.664,0H9.648a.509.509,0,0,0-.508.508V2.031H5.078V.508A.509.509,0,0,0,4.57,0H3.555a.509.509,0,0,0-.508.508V2.031H1.523A1.524,1.524,0,0,0,0,3.555V5.078H14.219V3.555A1.524,1.524,0,0,0,12.7,2.031Z" fill="#50d8e8"/>
</svg>
