<svg xmlns="http://www.w3.org/2000/svg" width="16.995" height="16.673" viewBox="0 0 16.995 16.673">
  <g id="noun_schedule_2080593" transform="translate(-2.5 -3.4)">
    <g id="Group_5919" data-name="Group 5919" transform="translate(2.5 3.4)">
      <path id="Path_4265" data-name="Path 4265" d="M40.822,60.3H39.337a.538.538,0,0,0-.537.537v.912a.538.538,0,0,0,.537.537h1.485a.538.538,0,0,0,.537-.537v-.912A.55.55,0,0,0,40.822,60.3Z" transform="translate(-32.306 -50.121)" fill="#50d8e8"/>
      <path id="Path_4266" data-name="Path 4266" d="M19.422,60.3H17.937a.538.538,0,0,0-.537.537v.912a.538.538,0,0,0,.537.537h1.485a.538.538,0,0,0,.537-.537v-.912A.55.55,0,0,0,19.422,60.3Z" transform="translate(-14.734 -50.121)" fill="#50d8e8"/>
      <path id="Path_4267" data-name="Path 4267" d="M40.822,41.6H39.337a.538.538,0,0,0-.537.537v.912a.538.538,0,0,0,.537.537h1.485a.538.538,0,0,0,.537-.537v-.912A.55.55,0,0,0,40.822,41.6Z" transform="translate(-32.306 -34.766)" fill="#50d8e8"/>
      <path id="Path_4268" data-name="Path 4268" d="M19.422,41.6H17.937a.538.538,0,0,0-.537.537v.912a.538.538,0,0,0,.537.537h1.485a.538.538,0,0,0,.537-.537v-.912A.55.55,0,0,0,19.422,41.6Z" transform="translate(-14.734 -34.766)" fill="#50d8e8"/>
      <path id="Path_4269" data-name="Path 4269" d="M62.222,41.6H60.737a.538.538,0,0,0-.537.537v.912a.538.538,0,0,0,.537.537h1.485a.538.538,0,0,0,.537-.537v-.912A.55.55,0,0,0,62.222,41.6Z" transform="translate(-49.878 -34.766)" fill="#50d8e8"/>
      <path id="Path_4270" data-name="Path 4270" d="M18.046,13.74v-7.1a1.789,1.789,0,0,0-.465-1.2V5.422h-.018a1.826,1.826,0,0,0-1.36-.608H14.862V4.008a.6.6,0,0,0-.608-.608h-.912a.6.6,0,0,0-.608.608v.805H7.8V4.008A.6.6,0,0,0,7.187,3.4H6.275a.6.6,0,0,0-.608.608v.805H4.325a1.826,1.826,0,0,0-1.36.608h0v.018a1.789,1.789,0,0,0-.465,1.2v9.75a1.832,1.832,0,0,0,1.825,1.825h8.569a3.5,3.5,0,1,0,5.152-4.472Zm-5.564,2.827a3.474,3.474,0,0,0,.036.429H4.325a.6.6,0,0,1-.608-.608V8.946h13.1v4.222a3.147,3.147,0,0,0-.823-.107A3.512,3.512,0,0,0,12.483,16.567Zm4.955.733H15.721a.462.462,0,0,1-.465-.465V15.028a.465.465,0,1,1,.93,0v1.36h1.252a.462.462,0,0,1,.465.465A.47.47,0,0,1,17.438,17.3Z" transform="translate(-2.5 -3.4)" fill="#50d8e8"/>
    </g>
  </g>
</svg>
