<svg xmlns="http://www.w3.org/2000/svg" width="19.67" height="15.736" viewBox="0 0 19.67 15.736">
  <g id="credit-card_1_" data-name="credit-card (1)" transform="translate(0 -54.821)">
    <g id="Group_5915" data-name="Group 5915" transform="translate(0 54.821)">
      <path id="Path_4264" data-name="Path 4264" d="M19.189,55.3a1.578,1.578,0,0,0-1.158-.481H1.639A1.579,1.579,0,0,0,.481,55.3,1.578,1.578,0,0,0,0,56.46V68.918a1.578,1.578,0,0,0,.481,1.158,1.579,1.579,0,0,0,1.158.482H18.031a1.644,1.644,0,0,0,1.639-1.639V56.46A1.579,1.579,0,0,0,19.189,55.3Zm-.83,13.616a.332.332,0,0,1-.328.328H1.639a.332.332,0,0,1-.328-.328V62.689H18.359v6.229Zm0-10.163H1.311V56.46a.332.332,0,0,1,.328-.328H18.031a.332.332,0,0,1,.328.328v2.295Z" transform="translate(0 -54.821)" fill="#50d8e8"/>
      <rect id="Rectangle_4250" data-name="Rectangle 4250" width="2.623" height="1.311" transform="translate(2.623 11.802)" fill="#50d8e8"/>
      <rect id="Rectangle_4251" data-name="Rectangle 4251" width="3.934" height="1.311" transform="translate(6.557 11.802)" fill="#50d8e8"/>
    </g>
  </g>
</svg>
