<svg xmlns="http://www.w3.org/2000/svg" width="95.5" height="32.587" viewBox="0 0 95.5 32.587">
  <g id="Group_5908" data-name="Group 5908" transform="translate(-140 -682.413)">
    <path id="Path_4122" data-name="Path 4122" d="M246.966,282.471c0,.79,17.908,1.431,40,1.431s40-.64,40-1.431-17.908-1.43-40-1.43S246.966,281.682,246.966,282.471Z" transform="translate(-98.966 431.098)" opacity="0.3"/>
    <g id="Group_5780" data-name="Group 5780" transform="translate(140 682.413)">
      <g id="Group_5777" data-name="Group 5777">
        <path id="Path_4123" data-name="Path 4123" d="M250.675,256.16v2.784a2.633,2.633,0,0,1-1.227,2.045l1.61.405a11.241,11.241,0,0,0,2.013-5.367Z" transform="translate(-158.601 -236.339)" fill="#0c0c0c"/>
        <g id="Group_5773" data-name="Group 5773" transform="translate(0.275)">
          <path id="Path_4124" data-name="Path 4124" d="M322.148,216.566s-8.872-5.49-11.515-6.607l-2.643-.409s9.675,5.427,11.279,7.551Z" transform="translate(-251.445 -208.511)" fill="#acbebf"/>
          <path id="Path_4125" data-name="Path 4125" d="M251.369,246.051l5.16-2.936V234.04h79.893l3.456,7.76h1.774l1.272.927,1.7-.031.007.378-1.825.033-1.276-.93h-1.483l1.091,2.45,1.246,1.691s-.555.373-1.435.848l1.759.6-.264.867-2.4-1a16.074,16.074,0,0,1-4.334,1.448l-14.146-.534H259.376l-3.292-1.246v.623h-2.669l-.178-.356h-1.868A1.257,1.257,0,0,1,251.369,246.051Z" transform="translate(-251.098 -223.174)" fill="#0c0c0c"/>
          <g id="Group_5737" data-name="Group 5737" transform="translate(0.195)">
            <path id="Path_4126" data-name="Path 4126" d="M259.516,207.9c.44-.629,1.951-.755,1.951-.755a177.484,177.484,0,0,1,20.01.189,17.94,17.94,0,0,1,3.713,1.07h-1.321c3.461,1.573,10.571,6.607,10.571,6.607H296.7l.692.315a64.709,64.709,0,0,1,7.991.315,97.661,97.661,0,0,1,10.634,2.2l.646.881h-58.43C258.358,211.869,259.225,208.32,259.516,207.9Z" transform="translate(-226.196 -206.96)" fill="#33bfcf"/>
            <path id="Path_4127" data-name="Path 4127" d="M259.9,228.148c35.017,1.006,36.114-1.114,36.114-1.114h2.265l.692.315a64.706,64.706,0,0,1,7.991.315,97.649,97.649,0,0,1,10.634,2.2c-4.767-.631-6.6.105-7.3.881h-8.56l-1.133-1.133h-3.776l-1.9,1.133H261.221l-1.373-1.229C259.863,229.042,259.883,228.589,259.9,228.148Z" transform="translate(-227.775 -218.979)" fill="#50d8e8"/>
            <path id="Path_4128" data-name="Path 4128" d="M405.507,229.23h30.707s-.1,1.044-.16,2.831H404.744A15.6,15.6,0,0,1,405.507,229.23Z" transform="translate(-404.53 -220.294)" fill="#1eb1c2"/>
            <path id="Path_4129" data-name="Path 4129" d="M404.7,227.446H435.4a.982.982,0,0,0-.865-1.2H405.091C404.62,226.486,404.714,227.43,404.7,227.446Z" transform="translate(-403.721 -218.51)" fill="#33bfcf"/>
            <path id="Path_4130" data-name="Path 4130" d="M313.886,237.293v5.475l.944.818-.252.378-1.07-.818h-2.832l-.092-.008c-.207-1.08-1.6-6.389-8.967-6.674-6.316-.244-10.137,3.831-11.144,10.142h-34.98c-.306-4.026-.386-7.46-.335-10.32h58.43l.738,1.007Z" transform="translate(-223.116 -224.518)" fill="#33bfcf"/>
            <rect id="Rectangle_4244" data-name="Rectangle 4244" width="3.891" height="1.534" transform="translate(47.073 11.849)" fill="#38373f"/>
            <rect id="Rectangle_4245" data-name="Rectangle 4245" width="3.891" height="0.238" transform="translate(47.073 13.145)" fill="#403f47"/>
            <path id="Path_4131" data-name="Path 4131" d="M350.561,264.9H316.091q-.145-1.5-.25-2.894h34.98A21.955,21.955,0,0,0,350.561,264.9Z" transform="translate(-283.463 -239.917)" fill="#33bfcf"/>
            <path id="Path_4132" data-name="Path 4132" d="M470.468,264.9h-.662l-7.7-2.894h8.466A20.274,20.274,0,0,0,470.468,264.9Z" transform="translate(-461.908 -239.917)" fill="#1eb1c2"/>
            <path id="Path_4133" data-name="Path 4133" d="M405.294,264.9a8.317,8.317,0,0,1-1.272.035,18.793,18.793,0,0,0-.2-2.93h1.184Q405.124,263.411,405.294,264.9Z" transform="translate(-373.242 -239.917)" fill="#44444b"/>
            <path id="Path_4134" data-name="Path 4134" d="M405.511,243.963a13.8,13.8,0,0,1-.763-7.677h31.309a90.356,90.356,0,0,0,.244,10.32h-1.184c-.593-4.038-2.85-9.691-10.808-10.052a10.212,10.212,0,0,0-10.579,7.409h-8.219Z" transform="translate(-404.534 -224.518)" fill="#33bfcf"/>
            <path id="Path_4135" data-name="Path 4135" d="M353.412,262.6l-34.1,0-.046-.6,34.211,0Zm-34.759-.6s.047.591.051.6h-.953a.989.989,0,0,1,.126-.6Z" transform="translate(-286.886 -239.917)" fill="#50d8e8"/>
            <g id="Group_5735" data-name="Group 5735" transform="translate(30.862 22.087)">
              <path id="Path_4136" data-name="Path 4136" d="M405.441,262.192h-.776a.77.77,0,0,0-.126.4.972.972,0,0,1,.126-.591h.776S405.44,262.19,405.441,262.192Z" transform="translate(-404.535 -262.004)" fill="#20aab9"/>
              <path id="Path_4137" data-name="Path 4137" d="M351.938,262.194l-34.176,0-.014-.189,34.211,0Z" transform="translate(-316.228 -262.003)" fill="#20aab9"/>
            </g>
            <path id="Path_4138" data-name="Path 4138" d="M353.787,254.147H319.271l-.059-.994,34.642,0Zm-35.187-.994q.02.489.047.994h-.211a1.214,1.214,0,0,1-1.131-.777q-.043-.108-.087-.217Z" transform="translate(-287.048 -234.617)" fill="#50d8e8"/>
            <g id="Group_5736" data-name="Group 5736" transform="translate(30.182 18.536)">
              <path id="Path_4139" data-name="Path 4139" d="M406.327,253.484h-1.242c-.042-.11-.083-.22-.128-.33h1.37q.02.489.047.994h-.016C406.347,253.925,406.336,253.7,406.327,253.484Z" transform="translate(-404.957 -253.154)" fill="#20aab9"/>
              <path id="Path_4140" data-name="Path 4140" d="M351.838,253.487l-34.6,0-.02-.33,34.641,0Z" transform="translate(-315.236 -253.153)" fill="#20aab9"/>
            </g>
          </g>
          <path id="Path_4141" data-name="Path 4141" d="M349.894,220.163l-8.086-.126a5.519,5.519,0,0,1-2.014-.5l-1.258-.566a5.072,5.072,0,0,0-2.2-.472l-13.308-.158s-2.718-.541-2.769-1.416c-.063-1.085.394-5.16.394-5.16a1.333,1.333,0,0,1,1.337-1.353s12.522-.031,14.724.22,2.611.031,5.349,1.6c0,0,5.876,3.118,7.528,5.016a3.087,3.087,0,0,1,.64,1.147,12.307,12.307,0,0,1,.063,1.435S350.209,220.195,349.894,220.163Z" transform="translate(-284.508 -209.025)" fill="#acbebf"/>
          <g id="Group_5738" data-name="Group 5738" transform="translate(60.669 6.296)">
            <path id="Path_4142" data-name="Path 4142" d="M322.148,225.039l.144-2.388a13.4,13.4,0,0,1,2.37,1.93,3.085,3.085,0,0,1,.64,1.147,12.313,12.313,0,0,1,.063,1.435s-.083.362-.4.33l-4.717-.073Z" transform="translate(-320.251 -222.651)" fill="#212123"/>
          </g>
          <g id="Group_5739" data-name="Group 5739" transform="translate(38.394 1.402)">
            <path id="Path_4143" data-name="Path 4143" d="M330.612,217.509c-.047-.755.85-.708.85-.708s5.285.094,5.616.142,3.634,1.982,3.634,1.982l.236.566,3.115,1.935-1.133,1.746-.85-.094-.094-.378-1.085-.472s.566-1.368.661-1.652-.472-.378-.472-.378l-1.778,3.556a4.7,4.7,0,0,1-1.557-.457l-1.258-.566a5.069,5.069,0,0,0-2.2-.472l-3.51-.042Z" transform="translate(-320.83 -214.254)" fill="#dff3f4"/>
            <path id="Path_4144" data-name="Path 4144" d="M325.247,226.468c.045-1.017.054-1.575.049-1.876a9.6,9.6,0,0,1,1.175.13,1.089,1.089,0,0,1,.692.629l.031.755v.818Z" transform="translate(-301.81 -218.919)" fill="#57565e"/>
            <path id="Path_4145" data-name="Path 4145" d="M331.97,226.334l-.034-.007-1.959-.1.04-1.421a.754.754,0,0,1,.409-.441s.827.035,1.594.09C332.023,224.759,332.014,225.317,331.97,226.334Z" transform="translate(-308.533 -218.785)" fill="#494752"/>
            <path id="Path_4146" data-name="Path 4146" d="M324.01,229.626l-.724-.441v-.818l.787.346Z" transform="translate(-297.902 -221.179)" fill="#494752"/>
            <path id="Path_4147" data-name="Path 4147" d="M326.834,230.423l-1.587-.416c.014-.274.025-.514.034-.74l1.948.457v.126Z" transform="translate(-301.845 -221.718)" fill="#494752"/>
            <path id="Path_4148" data-name="Path 4148" d="M330.1,229.8l.022-.794,1.959.1.034.007c-.01.226-.021.466-.034.74Z" transform="translate(-308.68 -221.562)" fill="#44444b"/>
            <path id="Path_4149" data-name="Path 4149" d="M323.443,231.1l.4-.573V230.4l.724.441-.566.566Z" transform="translate(-298.454 -222.399)" fill="#44444b"/>
            <path id="Path_4150" data-name="Path 4150" d="M328.423,231.451l.552.308-3.366-.22-.755-.554,1.982.051Z" transform="translate(-303.434 -222.747)" fill="#222"/>
            <path id="Path_4151" data-name="Path 4151" d="M376.281,217.33c.047-1.085.755-1.038.755-1.038h4.011l-.113,5.5-4.7-.055s-.073-.015-.186-.041C376.148,219.865,376.256,217.879,376.281,217.33Z" transform="translate(-376.047 -213.949)" fill="#dff3f4"/>
            <path id="Path_4152" data-name="Path 4152" d="M368.77,218.477l-4.117-.049.323-7.974c1.168.008,2.361.02,3.469.038Z" transform="translate(-359.198 -210.454)" fill="#212123"/>
          </g>
          <g id="Group_5740" data-name="Group 5740" transform="translate(34.092 0.745)">
            <path id="Path_4153" data-name="Path 4153" d="M316.631,232.283h32.181l0-.045.661-12.884c0-.024.312-2.776-1.483-3.958a78.38,78.38,0,0,0-8.927-5.62,17.411,17.411,0,0,0-3.98-.759c-.091,0-8.988-.329-14.588-.142h-1.65a1.86,1.86,0,0,0-.813.23,2.072,2.072,0,0,0-1.027,1.6c-.013.059-1.361,6.353-.614,16.67Zm32.092-.094h-32l-.234-4.816c-.746-10.3.6-16.584.612-16.647a1.851,1.851,0,0,1,1.747-1.756H320.5c5.6-.187,14.492.138,14.581.142a17.376,17.376,0,0,1,3.951.752,78.386,78.386,0,0,1,8.907,5.61h0c1.748,1.15,1.446,3.845,1.442,3.872Z" transform="translate(-316.167 -208.817)" fill="#2f2f2f"/>
          </g>
          <g id="Group_5741" data-name="Group 5741" transform="translate(45.832 0.85)">
            <path id="Path_4154" data-name="Path 4154" d="M369.359,232.488l.189-4.767L369.5,219.6l-.142-1.938.095-8.585h-.094l-.094,8.589.142,1.939.047,8.114-.189,4.764Z" transform="translate(-369.264 -209.078)" fill="#2f2f2f"/>
          </g>
          <path id="Path_4155" data-name="Path 4155" d="M256.065,254.418l.661,2.831a4.317,4.317,0,0,0,1.416.921c.566.118,3.3,1.014,3.3,1.014a2.36,2.36,0,0,0,.425-1.132l.024-2.855-1.062-.778Z" transform="translate(-170.354 -235.375)" fill="#2f2f2f"/>
          <path id="Path_4156" data-name="Path 4156" d="M260.334,258.558l-3.681-.9v-2.95h2.9l.873.873Z" transform="translate(-169.126 -235.55)" fill="#3d3d3d"/>
          <path id="Path_4157" data-name="Path 4157" d="M277.128,236.712c7.371.285,8.76,5.594,8.967,6.674l-1.858-.15c-1.825-3.492-5.606-4.028-7.771-3.87a9.051,9.051,0,0,0-8.684,8.86l-.094,1.523h-1.963C265.929,241.823,269.892,236.432,277.128,236.712Z" transform="translate(-198.432 -224.768)" fill="#2f2f2f"/>
          <path id="Path_4158" data-name="Path 4158" d="M278.939,241.012a7.683,7.683,0,0,1,7.674,4.854l-.61-.049c-1.825-3.492-5.607-4.028-7.771-3.87a9.052,9.052,0,0,0-8.684,8.86l-.094,1.523h-.62C269.015,245.449,272.552,241.074,278.939,241.012Z" transform="translate(-200.198 -227.348)" fill="#222"/>
          <path id="Path_4159" data-name="Path 4159" d="M418.22,236.937c10.257.466,11.045,9.722,11,12.982-1.114-.005-2.557-.035-2.557-.035s.881-9.816-8.935-10.131c0,0-9-.315-8.557,10.131h-2.17C406.662,239.1,413.907,236.74,418.22,236.937Z" transform="translate(-398.25 -224.901)" fill="#1eb1c2"/>
          <path id="Path_4160" data-name="Path 4160" d="M420.578,241.567c8.772.4,9.462,8.3,9.43,11.107-.553-.009-.966-.017-.966-.017s.881-9.816-8.935-10.131c0,0-9-.315-8.557,10.131h-.581C410.676,243.42,416.883,241.4,420.578,241.567Z" transform="translate(-400.623 -227.675)" fill="#11828e"/>
          <path id="Path_4161" data-name="Path 4161" d="M264.389,228.108a97.651,97.651,0,0,1,10.634,2.2l1.384,1.888h-.441l-1.793-1.353a93.69,93.69,0,0,0-15.385-1.668l-2.391-1.384A64.705,64.705,0,0,1,264.389,228.108Z" transform="translate(-185.003 -219.424)" fill="#20aab9"/>
          <g id="Group_5742" data-name="Group 5742" transform="translate(47.39 12.176)">
            <rect id="Rectangle_4246" data-name="Rectangle 4246" width="3.516" height="0.661" transform="translate(0.047 0.047)" fill="#525159"/>
            <path id="Path_4162" data-name="Path 4162" d="M357.092,238.06h3.61V237.3h-3.61Zm3.516-.094h-3.422V237.4h3.422Z" transform="translate(-357.092 -237.305)" fill="#2f2f2f"/>
          </g>
          <rect id="Rectangle_4247" data-name="Rectangle 4247" width="3.384" height="0.207" transform="translate(47.502 12.334)" fill="#5c5b63"/>
          <rect id="Rectangle_4248" data-name="Rectangle 4248" width="1.137" height="0.214" transform="translate(49.35 12.224)" fill="#2f2f2f"/>
          <path id="Path_4163" data-name="Path 4163" d="M265.539,237.317l-4.216-.15a.212.212,0,0,0-.22.212v.744a.212.212,0,0,0,.085.17l1.74,1.3a1.132,1.132,0,0,1,.452.881l.02.9.472,1.321,1.667-.031Z" transform="translate(-176.022 -225.046)" fill="#acbebf"/>
          <path id="Path_4164" data-name="Path 4164" d="M261.323,237.168l4.216.15v.192l-3.65-.13a.213.213,0,0,0-.22.212v.744a.212.212,0,0,0,.085.17l1.74,1.305c.278.208.1,1.565.1,1.565l.762,1.312-.487.009-.472-1.321-.02-.9a1.132,1.132,0,0,0-.452-.881l-1.74-1.3a.212.212,0,0,1-.085-.17v-.744A.212.212,0,0,1,261.323,237.168Z" transform="translate(-176.022 -225.046)" fill="#9cafaf"/>
          <g id="Group_5757" data-name="Group 5757" transform="translate(71.445 17.39)">
            <g id="Group_5755" data-name="Group 5755">
              <path id="Path_4165" data-name="Path 4165" d="M283.764,266.514a3.108,3.108,0,1,0-3.108-3.108A3.108,3.108,0,0,0,283.764,266.514Z" transform="translate(-276.646 -256.285)" fill="#171717"/>
              <path id="Path_4166" data-name="Path 4166" d="M284.257,266.676a2.778,2.778,0,1,0-2.777-2.778A2.778,2.778,0,0,0,284.257,266.676Z" transform="translate(-277.139 -256.778)" fill="#262626"/>
              <g id="Group_5754" data-name="Group 5754">
                <g id="Group_5743" data-name="Group 5743" transform="translate(3.111 2.991)">
                  <path id="Path_4167" data-name="Path 4167" d="M281.659,263.382a2.722,2.722,0,0,1,.178-.549l.026-.044s.956.8,1.349.8a.409.409,0,0,0,.256-.152.494.494,0,0,0,0-.354c-.189-.333-1.315-.783-1.315-.783l.018-.031a2.768,2.768,0,0,1,.407-.43l.393.234a.329.329,0,0,0,.5-.282v-.457a2.748,2.748,0,0,1,.567-.13h.046a4.053,4.053,0,0,0,0,1.531.322.322,0,0,0,.566,0,4.06,4.06,0,0,0,0-1.531h.046a2.748,2.748,0,0,1,.567.13v.457a.329.329,0,0,0,.5.282l.393-.234a2.767,2.767,0,0,1,.407.43l.018.031s-1.126.451-1.315.783a.494.494,0,0,0,0,.354.409.409,0,0,0,.256.152c.393,0,1.349-.8,1.349-.8l.026.044a2.727,2.727,0,0,1,.178.549l-.479.285a.329.329,0,0,0,0,.565l.479.286a2.741,2.741,0,0,1-.178.549l-.026.043s-.956-.8-1.349-.8a.411.411,0,0,0-.256.152.494.494,0,0,0,0,.354c.189.333,1.315.784,1.315.784l-.018.031a2.779,2.779,0,0,1-.407.429l-.393-.234a.328.328,0,0,0-.5.282v.457a2.717,2.717,0,0,1-.567.13h-.046a4.062,4.062,0,0,0,0-1.531.322.322,0,0,0-.566,0,4.054,4.054,0,0,0,0,1.531h-.046a2.717,2.717,0,0,1-.567-.13v-.457a.328.328,0,0,0-.5-.282l-.393.234a2.78,2.78,0,0,1-.407-.429l-.018-.031s1.126-.451,1.315-.784a.494.494,0,0,0,0-.354.411.411,0,0,0-.256-.152c-.393,0-1.349.8-1.349.8l-.026-.043a2.736,2.736,0,0,1-.178-.549l.48-.286a.329.329,0,0,0,0-.565Zm2.706.9.283-.169v-.322l-.283-.169-.283.169v.322Z" transform="translate(-280.358 -259.821)" fill="#616161"/>
                  <path id="Path_4168" data-name="Path 4168" d="M283.319,259.268a2.744,2.744,0,0,0-.567-.13h-.046v-.8h-.566v.8h-.046a2.744,2.744,0,0,0-.567.13v-1.516h1.793Zm-1.18,5.357v.8h.566v-.8h.046a2.72,2.72,0,0,0,.567-.13v1.517h-1.793v-1.517a2.719,2.719,0,0,0,.567.13Zm-2.533-2.11.11-.065a2.75,2.75,0,0,0,.178.549l.026.043,0,0-.225.134-.455.271.29.486.456-.271.225-.134,0,0,.018.031a2.784,2.784,0,0,0,.407.429l-.112.066-.123.073-1.068.636-.918-1.54,1.068-.636Zm4.836-2.881,1.069-.636.918,1.541-1.068.636-.123.073-.11.065a2.724,2.724,0,0,0-.178-.549l-.026-.044,0,0,.225-.134.455-.271-.29-.487-.456.272-.225.134,0,0-.018-.031a2.772,2.772,0,0,0-.407-.43l.112-.066Zm-4.214.569-.018.031,0,0-.225-.134-.456-.272-.29.487.455.271.225.134,0,0-.026.044a2.733,2.733,0,0,0-.178.549l-.11-.065-.123-.073-1.068-.636.918-1.541,1.068.636.123.073.112.066A2.769,2.769,0,0,0,280.229,260.2Zm4.387,3.357.018-.031,0,0,.225.134.456.271.29-.486-.455-.271-.225-.134,0,0,.026-.043a2.741,2.741,0,0,0,.178-.549l.11.065.123.073,1.068.636-.918,1.54-1.069-.636-.122-.073-.112-.066A2.787,2.787,0,0,0,284.616,263.56Z" transform="translate(-278.416 -257.752)" fill="#7b7b7b"/>
                </g>
                <path id="Path_4169" data-name="Path 4169" d="M282.033,257.406a4.268,4.268,0,1,1-4.268,4.268A4.268,4.268,0,0,1,282.033,257.406Zm0,8.169a3.9,3.9,0,1,0-3.9-3.9A3.9,3.9,0,0,0,282.033,265.575Z" transform="translate(-274.915 -254.553)" fill="#696a6b"/>
                <g id="Group_5753" data-name="Group 5753" transform="translate(5.639 5.446)">
                  <g id="Group_5746" data-name="Group 5746" transform="translate(1.227)">
                    <g id="Group_5744" data-name="Group 5744">
                      <path id="Path_4170" data-name="Path 4170" d="M287.774,264.122a.252.252,0,1,0,.252-.252A.252.252,0,0,0,287.774,264.122Z" transform="translate(-287.774 -263.87)" fill="#616161"/>
                      <path id="Path_4171" data-name="Path 4171" d="M287.938,264.219a.186.186,0,1,0,.186-.186A.186.186,0,0,0,287.938,264.219Z" transform="translate(-287.872 -263.968)" fill="#7b7b7b"/>
                    </g>
                    <g id="Group_5745" data-name="Group 5745" transform="translate(0 2.846)">
                      <path id="Path_4172" data-name="Path 4172" d="M287.774,271.214a.252.252,0,1,0,.252-.252A.252.252,0,0,0,287.774,271.214Z" transform="translate(-287.774 -270.962)" fill="#616161"/>
                      <path id="Path_4173" data-name="Path 4173" d="M287.938,271.312a.186.186,0,1,0,.186-.186A.186.186,0,0,0,287.938,271.312Z" transform="translate(-287.872 -271.06)" fill="#7b7b7b"/>
                    </g>
                  </g>
                  <g id="Group_5749" data-name="Group 5749" transform="translate(0 0.702)">
                    <g id="Group_5747" data-name="Group 5747">
                      <path id="Path_4174" data-name="Path 4174" d="M290.956,266.088a.252.252,0,1,0-.09-.344A.252.252,0,0,0,290.956,266.088Z" transform="translate(-290.832 -265.619)" fill="#616161"/>
                      <path id="Path_4175" data-name="Path 4175" d="M291.088,266.129a.186.186,0,1,0-.066-.254A.185.185,0,0,0,291.088,266.129Z" transform="translate(-290.93 -265.717)" fill="#7b7b7b"/>
                    </g>
                    <g id="Group_5748" data-name="Group 5748" transform="translate(2.454 1.442)">
                      <path id="Path_4176" data-name="Path 4176" d="M284.841,269.681a.252.252,0,1,0-.09-.345A.252.252,0,0,0,284.841,269.681Z" transform="translate(-284.717 -269.213)" fill="#616161"/>
                      <path id="Path_4177" data-name="Path 4177" d="M284.972,269.723a.186.186,0,1,0-.066-.255A.186.186,0,0,0,284.972,269.723Z" transform="translate(-284.814 -269.31)" fill="#7b7b7b"/>
                    </g>
                  </g>
                  <g id="Group_5752" data-name="Group 5752" transform="translate(0.007 0.69)">
                    <g id="Group_5750" data-name="Group 5750" transform="translate(0 1.465)">
                      <path id="Path_4178" data-name="Path 4178" d="M291.2,269.708a.252.252,0,1,0-.345-.086A.251.251,0,0,0,291.2,269.708Z" transform="translate(-290.815 -269.241)" fill="#616161"/>
                      <path id="Path_4179" data-name="Path 4179" d="M291.26,269.75a.186.186,0,1,0-.255-.064A.186.186,0,0,0,291.26,269.75Z" transform="translate(-290.913 -269.339)" fill="#7b7b7b"/>
                    </g>
                    <g id="Group_5751" data-name="Group 5751" transform="translate(2.44)">
                      <path id="Path_4180" data-name="Path 4180" d="M285.115,266.058a.252.252,0,1,0-.345-.086A.252.252,0,0,0,285.115,266.058Z" transform="translate(-284.734 -265.591)" fill="#616161"/>
                      <path id="Path_4181" data-name="Path 4181" d="M285.179,266.1a.186.186,0,1,0-.255-.064A.186.186,0,0,0,285.179,266.1Z" transform="translate(-284.831 -265.689)" fill="#7b7b7b"/>
                    </g>
                  </g>
                </g>
                <path id="Path_4182" data-name="Path 4182" d="M286.288,266.778a.848.848,0,1,0,.848-.848A.848.848,0,0,0,286.288,266.778Z" transform="translate(-280.018 -259.657)" fill="#171717"/>
                <path id="Path_4183" data-name="Path 4183" d="M286.573,266.948a.734.734,0,1,0,.734-.733A.734.734,0,0,0,286.573,266.948Z" transform="translate(-280.188 -259.828)" fill="#7b7b7b"/>
                <path id="Path_4184" data-name="Path 4184" d="M278.167,250.948a6.86,6.86,0,1,1-6.86,6.86A6.86,6.86,0,0,1,278.167,250.948Zm0,13.128a6.268,6.268,0,1,0-6.268-6.268A6.268,6.268,0,0,0,278.167,264.076Z" transform="translate(-271.049 -250.687)" fill="#222"/>
                <path id="Path_4185" data-name="Path 4185" d="M272.911,253.218l-.435-.676.493-.486.457.654Zm.547,8.992-.676.435-.486-.492.654-.457Zm3.835-11.127.171-.786.692,0-.139.786Zm4.609,1.589.676-.435.486.493-.654.457Zm2.136,4.382.786.171,0,.692-.786-.139Zm-1.588,4.609.435.676-.492.486-.457-.654Zm-11.128-3.835-.785-.171,0-.692.786.139Zm6.745,5.971-.171.786-.692,0,.139-.785Zm5.318-9.191.79-.149.265.639-.778.178Zm-2.722,9.328-.639.265-.178-.778.668-.277Zm-9.02-8.525-.664-.453.264-.64.676.424Zm.333,4.864-.79.149-.266-.639.778-.178Zm2.722-9.328.639-.265.178.778-.669.277Zm9.02,8.525.664.453-.264.64-.676-.424ZM279.71,251.4l.453-.664.64.264-.424.676Zm-4.06,12.075-.453.664-.64-.264.424-.676Zm.8-12.286.064-.8.687-.088-.033.8Zm4.78.957.612-.522.548.423-.587.541Zm-8.837,1.746-.522-.612.423-.548.541.587Zm11.541,2.311.8.064.088.686-.8-.032Zm-12.5,2.47-.8-.063-.088-.687.8.033Zm2.7,4.057-.612.522-.548-.423.587-.541Zm4.78.957-.063.8-.687.088.033-.8Zm4.057-2.7.521.612-.423.548-.541-.587Zm-4.074-9.8.362-.717.669.178-.331.726ZM272.4,261l-.763.252-.348-.6.748-.279Zm-.97-4.778-.718-.362.178-.669.726.331Zm5.034,7.47-.362.717-.669-.178.331-.726Zm-2.341-11.535-.252-.763.6-.347.279.748Zm8.842,1.723.763-.252.347.6-.747.279Zm-1.723,8.842.252.763-.6.347-.279-.748Zm2.693-4.064.718.362-.178.668-.725-.331ZM275.6,250.6l.669-.177.071.795-.7.185Zm7.785,9.666.6.539-.348.6-.612-.511Zm.328-4.864.8-.041.177.669-.794.071Zm-8.863,7.744-.538.6-.6-.348.512-.613Zm4.905,1.13-.669.177-.072-.795.7-.185Zm-8.113-4.8-.8.041-.177-.669.795-.071Zm8.863-7.745.539-.6.6.348-.511.613Zm-8.535,2.88-.6-.539.348-.6.612.511Zm.933,7.043-.724.349-.422-.548.7-.374Zm-1.583-4.611-.758-.265.089-.686.763.234Zm10.573,5.17.349.724-.549.422-.374-.705Zm2.142-4.379.759.265-.09.686-.763-.234Zm-10.573-5.17-.349-.724.549-.422.374.7Zm8.991.559.724-.349.422.549-.705.374Zm-5.17,10.573-.266.759-.686-.09.234-.763Zm1.742-13.384-.234.763-.717-.094.265-.759Z" transform="translate(-270.537 -250.297)" fill="#222"/>
                <path id="Path_4186" data-name="Path 4186" d="M278.927,252.218a6.35,6.35,0,1,1-6.35,6.35A6.35,6.35,0,0,1,278.927,252.218Zm0,10.635a4.285,4.285,0,1,0-4.285-4.285A4.285,4.285,0,0,0,278.927,262.853Z" transform="translate(-271.809 -251.447)" fill="#262626"/>
                <path id="Path_4187" data-name="Path 4187" d="M280.736,255.241a5.137,5.137,0,1,1-5.137,5.137A5.137,5.137,0,0,1,280.736,255.241Zm0,9.427a4.29,4.29,0,1,0-4.29-4.29A4.29,4.29,0,0,0,280.736,264.668Z" transform="translate(-273.618 -253.257)" fill="#222"/>
                <path id="Path_4188" data-name="Path 4188" d="M281.409,256.364a4.686,4.686,0,1,1-4.686,4.686A4.686,4.686,0,0,1,281.409,256.364Zm0,8.97a4.284,4.284,0,1,0-4.284-4.284A4.284,4.284,0,0,0,281.409,265.334Z" transform="translate(-274.291 -253.93)" fill="#171717"/>
              </g>
            </g>
            <g id="Group_5756" data-name="Group 5756" transform="translate(3.171 2.853)">
              <path id="Path_4189" data-name="Path 4189" d="M280.061,268.606l-.123-.073-.11-.066-.48-.285a.321.321,0,0,1-.078-.484.325.325,0,0,0,.125.421l.479.286.11.065.123.073.756.45c-.008.026-.013.053-.022.078Z" transform="translate(-273.222 -263.568)" fill="#adaeb0"/>
              <path id="Path_4190" data-name="Path 4190" d="M287.925,259.379v.734a4.051,4.051,0,0,0,0,1.531.313.313,0,0,0,.527.044c0,.006,0,.013-.008.018a.322.322,0,0,1-.566,0,4.063,4.063,0,0,1,0-1.531v-.8Z" transform="translate(-284.261 -258.587)" fill="#adaeb0"/>
              <path id="Path_4191" data-name="Path 4191" d="M281.588,260.322a.329.329,0,0,0,.5.282l.393-.234.112-.066.122-.073.709-.422c.007.007.016.013.023.021l-.779.464-.123.073-.112.066-.393.234a.329.329,0,0,1-.5-.283v-1.637c.016,0,.031.011.047.015Z" transform="translate(-276.744 -258.21)" fill="#adaeb0"/>
              <path id="Path_4192" data-name="Path 4192" d="M281.541,273.238a.324.324,0,0,1,.09-.224.326.326,0,0,0-.043.161v1.637a3.888,3.888,0,0,0,1.843-1.026l.014.008a3.888,3.888,0,0,1-1.9,1.081Z" transform="translate(-276.744 -266.751)" fill="#adaeb0"/>
              <path id="Path_4193" data-name="Path 4193" d="M280.613,264.958a.428.428,0,0,1,.053-.07l-.005.007a.494.494,0,0,0,0,.354.409.409,0,0,0,.256.152c.393,0,1.349-.8,1.349-.8l0,0,.225-.134.393-.234.015.026-.455.272-.225.134,0,0s-.957.8-1.349.8a.409.409,0,0,1-.256-.152A.494.494,0,0,1,280.613,264.958Z" transform="translate(-275.816 -261.491)" fill="#adaeb0"/>
              <path id="Path_4194" data-name="Path 4194" d="M281.235,269.4a.217.217,0,0,1,.043-.048.5.5,0,0,0,0,.339c.189.333,1.315.784,1.315.784l0,0,.225.134.449.267-.04.067-.456-.271-.225-.134,0,0s-1.126-.451-1.315-.784A.494.494,0,0,1,281.235,269.4Z" transform="translate(-276.438 -264.557)" fill="#adaeb0"/>
              <path id="Path_4195" data-name="Path 4195" d="M287.9,272.686a4.062,4.062,0,0,1,0-1.531.239.239,0,0,1,.039-.045,4.227,4.227,0,0,0,.008,1.513v.8h.519v.063H287.9Z" transform="translate(-284.281 -265.611)" fill="#adaeb0"/>
              <path id="Path_4196" data-name="Path 4196" d="M291.688,261.762l.122.073.112.066.393.234a.327.327,0,0,0,.406-.058.328.328,0,0,1-.454.121l-.393-.234-.111-.066-.123-.073-.78-.464c.019-.02.042-.036.061-.055Z" transform="translate(-289.761 -259.741)" fill="#adaeb0"/>
              <path id="Path_4197" data-name="Path 4197" d="M285.325,261.737a4.268,4.268,0,0,0-7.561-2.716,4.267,4.267,0,1,1,6.633,5.369A4.246,4.246,0,0,0,285.325,261.737Z" transform="translate(-277.156 -257.406)" fill="#adaeb0"/>
              <path id="Path_4198" data-name="Path 4198" d="M291.039,263.084l-.25.419.455.271.225.134,0,0s.956.8,1.349.8a.411.411,0,0,0,.213-.1s0,.011,0,.014a.408.408,0,0,1-.256.152c-.392,0-1.349-.8-1.349-.8l0,0-.225-.134-.455-.272.29-.486Z" transform="translate(-290.028 -260.803)" fill="#adaeb0"/>
              <path id="Path_4199" data-name="Path 4199" d="M293.755,266.451a3.9,3.9,0,0,1,.18-1.172l.026.015a3.88,3.88,0,0,0,.022,2.266l.781-.465.123-.073.11-.065.479-.286a.313.313,0,0,0,.078-.081.318.318,0,0,1-.126.144l-.479.285-.11.066-.124.073-.781.465A3.9,3.9,0,0,1,293.755,266.451Z" transform="translate(-293.755 -262.12)" fill="#adaeb0"/>
              <path id="Path_4200" data-name="Path 4200" d="M290.824,274.853a3.887,3.887,0,0,0,1.833,1.045v.077a3.887,3.887,0,0,1-1.9-1.081Z" transform="translate(-289.654 -267.852)" fill="#adaeb0"/>
              <path id="Path_4201" data-name="Path 4201" d="M290.767,271.068l.063-.037.274.461.456-.271.225-.134,0,0a4.835,4.835,0,0,0,1.263-.713c-.2.332-1.31.776-1.31.776l0,0-.225.134-.455.271Z" transform="translate(-290.053 -265.169)" fill="#adaeb0"/>
            </g>
          </g>
          <g id="Group_5772" data-name="Group 5772" transform="translate(12.17 17.39)">
            <g id="Group_5770" data-name="Group 5770">
              <path id="Path_4202" data-name="Path 4202" d="M431.482,266.514a3.108,3.108,0,1,0-3.108-3.108A3.108,3.108,0,0,0,431.482,266.514Z" transform="translate(-424.364 -256.285)" fill="#171717"/>
              <path id="Path_4203" data-name="Path 4203" d="M431.976,266.676A2.778,2.778,0,1,0,429.2,263.9,2.777,2.777,0,0,0,431.976,266.676Z" transform="translate(-424.857 -256.778)" fill="#262626"/>
              <g id="Group_5769" data-name="Group 5769">
                <g id="Group_5758" data-name="Group 5758" transform="translate(3.111 2.991)">
                  <path id="Path_4204" data-name="Path 4204" d="M429.376,263.382a2.729,2.729,0,0,1,.178-.549l.026-.044s.956.8,1.349.8a.409.409,0,0,0,.256-.152.494.494,0,0,0,0-.354c-.189-.333-1.315-.783-1.315-.783l.018-.031a2.771,2.771,0,0,1,.407-.43l.393.234a.329.329,0,0,0,.5-.282v-.457a2.748,2.748,0,0,1,.567-.13h.046a4.062,4.062,0,0,0,0,1.531.322.322,0,0,0,.566,0,4.053,4.053,0,0,0,0-1.531h.046a2.748,2.748,0,0,1,.567.13v.457a.329.329,0,0,0,.5.282l.393-.234a2.768,2.768,0,0,1,.407.43l.018.031s-1.126.451-1.315.783a.494.494,0,0,0,0,.354.409.409,0,0,0,.256.152c.393,0,1.349-.8,1.349-.8l.026.044a2.726,2.726,0,0,1,.178.549l-.479.285a.329.329,0,0,0,0,.565l.479.286a2.74,2.74,0,0,1-.178.549l-.026.043s-.956-.8-1.349-.8a.411.411,0,0,0-.256.152.494.494,0,0,0,0,.354c.189.333,1.315.784,1.315.784l-.018.031a2.78,2.78,0,0,1-.407.429l-.393-.234a.328.328,0,0,0-.5.282v.457a2.718,2.718,0,0,1-.567.13h-.046a4.054,4.054,0,0,0,0-1.531.322.322,0,0,0-.566,0,4.063,4.063,0,0,0,0,1.531h-.046a2.718,2.718,0,0,1-.567-.13v-.457a.328.328,0,0,0-.5-.282l-.393.234a2.783,2.783,0,0,1-.407-.429l-.018-.031s1.126-.451,1.315-.784a.494.494,0,0,0,0-.354.411.411,0,0,0-.256-.152c-.393,0-1.349.8-1.349.8l-.026-.043a2.743,2.743,0,0,1-.178-.549l.479-.286a.329.329,0,0,0,0-.565Zm2.706.9.283-.169v-.322l-.283-.169-.283.169v.322Z" transform="translate(-428.075 -259.821)" fill="#616161"/>
                  <path id="Path_4205" data-name="Path 4205" d="M431.037,259.268a2.743,2.743,0,0,0-.567-.13h-.046v-.8h-.566v.8h-.046a2.742,2.742,0,0,0-.567.13v-1.516h1.793Zm-1.18,5.357v.8h.566v-.8h.046a2.718,2.718,0,0,0,.567-.13v1.517h-1.793v-1.517a2.718,2.718,0,0,0,.567.13Zm-2.533-2.11.11-.065a2.749,2.749,0,0,0,.178.549l.026.043,0,0-.225.134-.455.271.29.486.456-.271.225-.134,0,0,.018.031a2.787,2.787,0,0,0,.407.429l-.112.066-.122.073-1.069.636-.918-1.54,1.068-.636Zm4.836-2.881L433.23,259l.918,1.541-1.068.636-.123.073-.11.065a2.729,2.729,0,0,0-.178-.549l-.026-.044,0,0,.225-.134.455-.271-.29-.487-.456.272-.225.134,0,0-.018-.031a2.77,2.77,0,0,0-.407-.43l.112-.066Zm-4.214.569-.018.031,0,0-.225-.134-.456-.272-.29.487.455.271.225.134,0,0-.026.044a2.732,2.732,0,0,0-.178.549l-.11-.065-.123-.073-1.068-.636.918-1.541,1.069.636.122.073.112.066A2.772,2.772,0,0,0,427.947,260.2Zm4.387,3.357.018-.031,0,0,.225.134.456.271.29-.486-.455-.271-.225-.134,0,0,.026-.043a2.746,2.746,0,0,0,.178-.549l.11.065.123.073,1.068.636-.918,1.54-1.069-.636-.122-.073-.112-.066A2.785,2.785,0,0,0,432.334,263.56Z" transform="translate(-426.134 -257.752)" fill="#7b7b7b"/>
                </g>
                <path id="Path_4206" data-name="Path 4206" d="M429.751,257.406a4.268,4.268,0,1,1-4.269,4.268A4.268,4.268,0,0,1,429.751,257.406Zm0,8.169a3.9,3.9,0,1,0-3.9-3.9A3.9,3.9,0,0,0,429.751,265.575Z" transform="translate(-422.632 -254.553)" fill="#696a6b"/>
                <g id="Group_5768" data-name="Group 5768" transform="translate(5.64 5.446)">
                  <g id="Group_5761" data-name="Group 5761" transform="translate(1.227)">
                    <g id="Group_5759" data-name="Group 5759">
                      <path id="Path_4207" data-name="Path 4207" d="M435.492,264.122a.252.252,0,1,0,.252-.252A.252.252,0,0,0,435.492,264.122Z" transform="translate(-435.492 -263.87)" fill="#616161"/>
                      <path id="Path_4208" data-name="Path 4208" d="M435.656,264.219a.186.186,0,1,0,.186-.186A.186.186,0,0,0,435.656,264.219Z" transform="translate(-435.59 -263.968)" fill="#7b7b7b"/>
                    </g>
                    <g id="Group_5760" data-name="Group 5760" transform="translate(0 2.846)">
                      <path id="Path_4209" data-name="Path 4209" d="M435.492,271.214a.252.252,0,1,0,.252-.252A.252.252,0,0,0,435.492,271.214Z" transform="translate(-435.492 -270.962)" fill="#616161"/>
                      <circle id="Ellipse_113" data-name="Ellipse 113" cx="0.186" cy="0.186" r="0.186" transform="translate(0.066 0.066)" fill="#7b7b7b"/>
                    </g>
                  </g>
                  <g id="Group_5764" data-name="Group 5764" transform="translate(0 0.702)">
                    <g id="Group_5762" data-name="Group 5762">
                      <path id="Path_4210" data-name="Path 4210" d="M438.674,266.088a.252.252,0,1,0-.089-.344A.252.252,0,0,0,438.674,266.088Z" transform="translate(-438.55 -265.619)" fill="#616161"/>
                      <path id="Path_4211" data-name="Path 4211" d="M438.805,266.129a.186.186,0,1,0-.066-.254A.186.186,0,0,0,438.805,266.129Z" transform="translate(-438.648 -265.717)" fill="#7b7b7b"/>
                    </g>
                    <g id="Group_5763" data-name="Group 5763" transform="translate(2.454 1.442)">
                      <path id="Path_4212" data-name="Path 4212" d="M432.558,269.681a.252.252,0,1,0-.089-.345A.252.252,0,0,0,432.558,269.681Z" transform="translate(-432.434 -269.213)" fill="#616161"/>
                      <path id="Path_4213" data-name="Path 4213" d="M432.69,269.723a.186.186,0,1,0-.066-.255A.186.186,0,0,0,432.69,269.723Z" transform="translate(-432.532 -269.31)" fill="#7b7b7b"/>
                    </g>
                  </g>
                  <g id="Group_5767" data-name="Group 5767" transform="translate(0.007 0.69)">
                    <g id="Group_5765" data-name="Group 5765" transform="translate(0 1.465)">
                      <path id="Path_4214" data-name="Path 4214" d="M438.914,269.708a.252.252,0,1,0-.345-.086A.251.251,0,0,0,438.914,269.708Z" transform="translate(-438.533 -269.241)" fill="#616161"/>
                      <path id="Path_4215" data-name="Path 4215" d="M438.978,269.75a.186.186,0,1,0-.255-.064A.186.186,0,0,0,438.978,269.75Z" transform="translate(-438.631 -269.339)" fill="#7b7b7b"/>
                    </g>
                    <g id="Group_5766" data-name="Group 5766" transform="translate(2.44)">
                      <path id="Path_4216" data-name="Path 4216" d="M432.832,266.058a.252.252,0,1,0-.345-.086A.252.252,0,0,0,432.832,266.058Z" transform="translate(-432.451 -265.591)" fill="#616161"/>
                      <path id="Path_4217" data-name="Path 4217" d="M432.9,266.1a.186.186,0,1,0-.255-.064A.186.186,0,0,0,432.9,266.1Z" transform="translate(-432.549 -265.689)" fill="#7b7b7b"/>
                    </g>
                  </g>
                </g>
                <path id="Path_4218" data-name="Path 4218" d="M434.006,266.778a.848.848,0,1,0,.848-.848A.848.848,0,0,0,434.006,266.778Z" transform="translate(-427.736 -259.657)" fill="#171717"/>
                <path id="Path_4219" data-name="Path 4219" d="M434.291,266.948a.734.734,0,1,0,.734-.733A.734.734,0,0,0,434.291,266.948Z" transform="translate(-427.906 -259.828)" fill="#7b7b7b"/>
                <path id="Path_4220" data-name="Path 4220" d="M425.884,250.948a6.86,6.86,0,1,1-6.86,6.86A6.86,6.86,0,0,1,425.884,250.948Zm0,13.128a6.268,6.268,0,1,0-6.269-6.268A6.268,6.268,0,0,0,425.884,264.076Z" transform="translate(-418.766 -250.687)" fill="#222"/>
                <path id="Path_4221" data-name="Path 4221" d="M420.629,253.218l-.435-.676.493-.486.457.654Zm.547,8.992-.676.435-.486-.492.654-.457Zm3.835-11.127.17-.786.692,0-.139.786Zm4.609,1.589.676-.435.486.493-.654.457Zm2.136,4.382.785.171,0,.692-.786-.139Zm-1.589,4.609.435.676-.493.486-.457-.654Zm-11.128-3.835-.785-.171,0-.692.786.139Zm6.745,5.971-.17.786-.692,0,.139-.785Zm5.318-9.191.79-.149.266.639-.778.178Zm-2.722,9.328-.639.265-.178-.778.668-.277Zm-9.02-8.525-.664-.453.264-.64.676.424Zm.333,4.864-.79.149-.266-.639.778-.178Zm2.722-9.328.639-.265.178.778-.668.277Zm9.02,8.525.664.453-.264.64-.676-.424Zm-4.007-8.068.453-.664.64.264-.424.676Zm-4.061,12.075-.453.664-.64-.264.424-.676Zm.8-12.286.064-.8.687-.088-.033.8Zm4.78.957.612-.522.548.423-.586.541Zm-8.837,1.746-.522-.612.423-.548.54.587Zm11.541,2.311.8.064.088.686-.8-.032Zm-12.5,2.47-.8-.063-.088-.687.8.033Zm2.7,4.057-.612.522-.548-.423.587-.541Zm4.78.957-.063.8-.687.088.032-.8Zm4.057-2.7.521.612-.423.548-.541-.587Zm-4.074-9.8.362-.717.669.178-.331.726Zm-6.5,9.812-.763.252-.348-.6.748-.279Zm-.97-4.778-.718-.362.178-.669.726.331Zm5.034,7.47-.362.717-.669-.178.331-.726Zm-2.341-11.535-.252-.763.6-.347.279.748Zm8.842,1.723.763-.252.347.6-.748.279Zm-1.723,8.842.252.763-.6.347-.279-.748Zm2.693-4.064.718.362-.178.668-.726-.331Zm-8.33-8.056.669-.177.071.795-.7.185Zm7.785,9.666.6.539-.348.6-.612-.511Zm.328-4.864.8-.041.177.669-.794.071Zm-8.863,7.744-.539.6-.6-.348.512-.613Zm4.905,1.13-.669.177-.071-.795.7-.185Zm-8.113-4.8-.8.041-.177-.669.795-.071Zm8.863-7.745.539-.6.6.348-.511.613Zm-8.535,2.88-.6-.539.348-.6.612.511Zm.933,7.043-.724.349-.422-.548.7-.374Zm-1.583-4.611-.758-.265.089-.686.763.234Zm10.573,5.17.349.724-.549.422-.374-.705Zm2.142-4.379.759.265-.089.686-.762-.234Zm-10.573-5.17-.349-.724.549-.422.374.7Zm8.991.559.724-.349.422.549-.705.374ZM425,263.8l-.265.759-.687-.09.234-.763Zm1.742-13.384-.234.763-.717-.094.265-.759Z" transform="translate(-418.255 -250.297)" fill="#222"/>
                <path id="Path_4222" data-name="Path 4222" d="M426.645,252.218a6.35,6.35,0,1,1-6.35,6.35A6.35,6.35,0,0,1,426.645,252.218Zm0,10.635a4.285,4.285,0,1,0-4.286-4.285A4.285,4.285,0,0,0,426.645,262.853Z" transform="translate(-419.527 -251.447)" fill="#262626"/>
                <path id="Path_4223" data-name="Path 4223" d="M428.454,255.241a5.137,5.137,0,1,1-5.137,5.137A5.137,5.137,0,0,1,428.454,255.241Zm0,9.427a4.29,4.29,0,1,0-4.29-4.29A4.29,4.29,0,0,0,428.454,264.668Z" transform="translate(-421.336 -253.257)" fill="#222"/>
                <path id="Path_4224" data-name="Path 4224" d="M429.127,256.364a4.686,4.686,0,1,1-4.687,4.686A4.686,4.686,0,0,1,429.127,256.364Zm0,8.97a4.284,4.284,0,1,0-4.284-4.284A4.284,4.284,0,0,0,429.127,265.334Z" transform="translate(-422.008 -253.93)" fill="#171717"/>
              </g>
            </g>
            <g id="Group_5771" data-name="Group 5771" transform="translate(3.171 2.853)">
              <path id="Path_4225" data-name="Path 4225" d="M427.78,268.606l-.124-.073-.11-.066-.48-.285a.322.322,0,0,1-.078-.484.325.325,0,0,0,.125.421l.479.286.11.065.123.073.756.45c-.008.026-.013.053-.021.078Z" transform="translate(-420.94 -263.568)" fill="#adaeb0"/>
              <path id="Path_4226" data-name="Path 4226" d="M435.643,259.379v.734a4.061,4.061,0,0,0,0,1.531.313.313,0,0,0,.527.044c0,.006,0,.013-.008.018a.322.322,0,0,1-.567,0,4.062,4.062,0,0,1,0-1.531v-.8Z" transform="translate(-431.979 -258.587)" fill="#adaeb0"/>
              <path id="Path_4227" data-name="Path 4227" d="M429.306,260.322a.329.329,0,0,0,.5.282l.393-.234.112-.066.122-.073.709-.422c.007.007.016.013.023.021l-.779.464-.123.073-.111.066-.393.234a.329.329,0,0,1-.5-.283v-1.637c.016,0,.031.011.047.015Z" transform="translate(-424.462 -258.21)" fill="#adaeb0"/>
              <path id="Path_4228" data-name="Path 4228" d="M429.259,273.238a.322.322,0,0,1,.09-.224.322.322,0,0,0-.043.161v1.637a3.888,3.888,0,0,0,1.843-1.026l.014.008a3.889,3.889,0,0,1-1.9,1.081Z" transform="translate(-424.462 -266.751)" fill="#adaeb0"/>
              <path id="Path_4229" data-name="Path 4229" d="M428.331,264.958a.426.426,0,0,1,.052-.07l-.005.007a.5.5,0,0,0,0,.354.409.409,0,0,0,.256.152c.393,0,1.349-.8,1.349-.8l0,0,.225-.134.393-.234.015.026-.455.272-.225.134,0,0s-.957.8-1.349.8a.407.407,0,0,1-.256-.152A.5.5,0,0,1,428.331,264.958Z" transform="translate(-423.534 -261.491)" fill="#adaeb0"/>
              <path id="Path_4230" data-name="Path 4230" d="M428.953,269.4a.2.2,0,0,1,.043-.048.5.5,0,0,0,0,.339c.189.333,1.315.784,1.315.784l0,0,.225.134.449.267-.04.067-.455-.271-.225-.134,0,0s-1.126-.451-1.315-.784A.493.493,0,0,1,428.953,269.4Z" transform="translate(-424.156 -264.557)" fill="#adaeb0"/>
              <path id="Path_4231" data-name="Path 4231" d="M435.615,272.686a4.062,4.062,0,0,1,0-1.531.239.239,0,0,1,.039-.045,4.228,4.228,0,0,0,.008,1.513v.8h.519v.063h-.567Z" transform="translate(-431.998 -265.611)" fill="#adaeb0"/>
              <path id="Path_4232" data-name="Path 4232" d="M439.406,261.762l.122.073.112.066.393.234a.327.327,0,0,0,.407-.058.328.328,0,0,1-.454.121l-.393-.234-.111-.066-.123-.073-.779-.464c.019-.02.041-.036.061-.055Z" transform="translate(-437.479 -259.741)" fill="#adaeb0"/>
              <path id="Path_4233" data-name="Path 4233" d="M433.043,261.737a4.268,4.268,0,0,0-7.561-2.716,4.267,4.267,0,1,1,6.633,5.369A4.248,4.248,0,0,0,433.043,261.737Z" transform="translate(-424.874 -257.406)" fill="#adaeb0"/>
              <path id="Path_4234" data-name="Path 4234" d="M438.757,263.084l-.25.419.456.271.225.134,0,0s.956.8,1.349.8a.41.41,0,0,0,.214-.1.133.133,0,0,1,0,.014.407.407,0,0,1-.256.152c-.392,0-1.349-.8-1.349-.8l0,0-.225-.134-.455-.272.29-.486Z" transform="translate(-437.745 -260.803)" fill="#adaeb0"/>
              <path id="Path_4235" data-name="Path 4235" d="M441.473,266.451a3.9,3.9,0,0,1,.18-1.172l.026.015a3.89,3.89,0,0,0,.022,2.266l.781-.465.123-.073.11-.065.479-.286a.312.312,0,0,0,.078-.081.319.319,0,0,1-.125.144l-.479.285-.11.066-.124.073-.781.465A3.9,3.9,0,0,1,441.473,266.451Z" transform="translate(-441.473 -262.12)" fill="#adaeb0"/>
              <path id="Path_4236" data-name="Path 4236" d="M438.542,274.853a3.89,3.89,0,0,0,1.833,1.045v.077a3.889,3.889,0,0,1-1.9-1.081Z" transform="translate(-437.372 -267.852)" fill="#adaeb0"/>
              <path id="Path_4237" data-name="Path 4237" d="M438.485,271.068l.062-.037.274.461.456-.271.225-.134,0,0a4.828,4.828,0,0,0,1.263-.713c-.2.332-1.31.776-1.31.776l0,0-.225.134-.456.271Z" transform="translate(-437.77 -265.169)" fill="#adaeb0"/>
            </g>
          </g>
          <path id="Path_4238" data-name="Path 4238" d="M267.4,238.434v1.573l-1.442-.992a.156.156,0,0,1-.068-.129v-.381a.156.156,0,0,1,.166-.156Z" transform="translate(-179.798 -225.754)" fill="#dff3f4"/>
          <path id="Path_4239" data-name="Path 4239" d="M263.838,246.107a.684.684,0,0,0-.662,1.109,1.275,1.275,0,0,0,.356.259h.307v-1.369Z" transform="translate(-175.084 -230.391)" fill="#dff3f4"/>
        </g>
        <path id="Path_4240" data-name="Path 4240" d="M255.584,238.8l.5,6.292-.944-.818V238.8Z" transform="translate(-163.904 -226.021)" fill="#ffda00"/>
        <path id="Path_4241" data-name="Path 4241" d="M258.943,237.688l-1.1.535.031,3.713,1.07,1.227-.44.063-1.007-.692v-5.349l.466-.238Z" transform="translate(-167.703 -224.914)" fill="#2f2f2f"/>
        <path id="Path_4242" data-name="Path 4242" d="M258.476,244.186h4.177v.849h-3.61Z" transform="translate(-171.806 -229.248)" fill="#33bfcf"/>
        <g id="Group_5774" data-name="Group 5774" transform="translate(88.409 20.011)">
          <path id="Path_4243" data-name="Path 4243" d="M258.28,256.829H260.8l-.81.378v1.61l-1.707-.32Z" transform="translate(-258.28 -256.829)" fill="#0c0c0c"/>
          <path id="Path_4244" data-name="Path 4244" d="M259.09,256.829v2.139l-.81-.152v-1.61Z" transform="translate(-256.573 -256.829)" fill="#494752"/>
        </g>
        <g id="Group_5775" data-name="Group 5775" transform="translate(91.177 11.611)">
          <path id="Path_4245" data-name="Path 4245" d="M247.823,250.95a.944.944,0,0,0,.835-.5l1.591-3a8.172,8.172,0,0,0,.768-5.561l-1.138-5.251a.944.944,0,1,0-1.845.4l1.138,5.25a6.283,6.283,0,0,1-.591,4.276l-1.591,3a.945.945,0,0,0,.833,1.387Z" transform="translate(-246.88 -235.895)" fill="#57565e"/>
        </g>
        <path id="Path_4246" data-name="Path 4246" d="M249.479,247.305a6.658,6.658,0,0,0,.626-4.533l-1.138-5.25a.566.566,0,0,1,1.107-.24l1.138,5.25a7.794,7.794,0,0,1-.732,5.3l-1.592,3a.576.576,0,0,1-.765.235.566.566,0,0,1-.236-.766Z" transform="translate(-156.266 -224.848)" fill="#5d5c63"/>
        <g id="Group_5776" data-name="Group 5776" transform="translate(0 19.444)">
          <path id="Path_4247" data-name="Path 4247" d="M461.455,258.06l-.67-.252v-2.014h2.2v-.378h7.464a14.878,14.878,0,0,0-.531,2.643Z" transform="translate(-460.785 -255.417)" fill="#11828e"/>
          <path id="Path_4248" data-name="Path 4248" d="M461.455,258.06l-.67-.252v-2.014h2.2v-.378h7.464a14.878,14.878,0,0,0-.531,2.643Z" transform="translate(-460.785 -255.417)" fill="#11828e"/>
        </g>
        <path id="Path_4249" data-name="Path 4249" d="M470.607,256.358c-.038.14-.073.281-.107.425h-9.455v-.425h9.563Z" transform="translate(-461.044 -236.536)" fill="#20aab9"/>
        <path id="Path_4250" data-name="Path 4250" d="M477.468,265.718H480.1l-.559-.559h-2.084S477.3,265.246,477.468,265.718Z" transform="translate(-477.091 -241.806)" fill="#222"/>
      </g>
      <g id="Group_5778" data-name="Group 5778" transform="translate(34.86 25.469)">
        <path id="Path_4251" data-name="Path 4251" d="M318.63,270.432v.33h.164v-.33h.6v.33h.165v-.33h.6v.33h.164v-.33h.6v.33h.165v-.33h.6v.33h.165v-.33h.6v.33h.165v-.33h.6v.33h.165v-.33h.6v.33h.165v-.33h.6v.33h.165v-.33h.6v.33h.165v-.33h.6v.33h.165v-.33h.6v.33h.165v-.33h.6v.33h.165v-.33h.6v.33h.165v-.33h.6v.33h.164v-.33h.6v.33h.164v-.33h.6v.33h.164v-.33h.6v.33h.165v-.33h.6v.33h.165v-.33h.6v.33h.165v-.33h.6v.33h.165v-.33h.6v.33h.165v-.33h.6v.33h.165v-.33h.6v.33h.165v-.33h.6v.33h.165v-.33h.6v.33h.165v-.33h.6v.33h.165v-.33h.6v.33h.165v-.33h.6v.33h.165v-.33h.6v.33h.164v-.33h.6v.33h.164v-.33h.6v.33h.165v-.33h.6v.33h.165v-.33h.6v.33h.165v-.33h.6v.33h.165v-.33h.6v.33h.165v-.33h.6v.33h.165v-.33h.6v.33h.165v-.33h.6v.33h.165v-.33h.6v.33h.165v-.33h.6v.33h.165v-.33h.6a.9.9,0,0,1-.9.9h-30.3a.9.9,0,0,1-.9-.9h.6Z" transform="translate(-318.026 -270.432)" fill="#222"/>
        <path id="Path_4252" data-name="Path 4252" d="M318.29,271.436h31.737l.112-.194H318.178Z" transform="translate(-318.109 -270.917)" fill="#494752"/>
      </g>
      <path id="Path_4253" data-name="Path 4253" d="M323.307,210.6h-1.319a1.15,1.15,0,0,0-1.15,1.185c0,.04-.454,4.07-.392,5.128.029.5,1.532,1.023,2.6,1.238l13.293.157a5.223,5.223,0,0,1,2.276.489l1.273.573a5.365,5.365,0,0,0,1.924.48l8.1.127h.019c.106,0,.156-.124.171-.169a11.245,11.245,0,0,0-.059-1.368,2.932,2.932,0,0,0-.6-1.064c-1.611-1.85-7.416-4.943-7.48-4.977a8.229,8.229,0,0,0-4.32-1.485c-.283-.026-.6-.055-.956-.1-1.74-.2-9.939-.22-13.384-.22m0-.189c3.276,0,11.643.02,13.4.221,2.2.252,2.611.031,5.349,1.6,0,0,5.876,3.118,7.528,5.016a3.087,3.087,0,0,1,.64,1.147,12.307,12.307,0,0,1,.063,1.435s-.076.332-.359.332l-.038,0-8.086-.126a5.52,5.52,0,0,1-2.014-.5l-1.258-.566a5.072,5.072,0,0,0-2.2-.472l-13.308-.158s-2.718-.54-2.769-1.416c-.063-1.085.394-5.16.394-5.16a1.333,1.333,0,0,1,1.337-1.353Z" transform="translate(-284.233 -209.025)" fill="#2f2f2f"/>
      <path id="Path_4254" data-name="Path 4254" d="M435.514,230.722h-2.226l1.133,1.6-2.8-1.6H404.783l.755-.944H435.6S435.529,230.73,435.514,230.722Z" transform="translate(-403.462 -220.622)" fill="#11828e"/>
      <path id="Path_4255" data-name="Path 4255" d="M472.622,236.286h4.318v1.176a.775.775,0,0,1-.144.45l-.023.032a.778.778,0,0,1-.163.168l-.9.68a.41.41,0,0,0-.163.323l-.019,2.507a.409.409,0,0,1-.409.406h-2.35A14.721,14.721,0,0,1,472.622,236.286Z" transform="translate(-471.937 -224.518)" fill="#5e0000"/>
      <g id="Group_5779" data-name="Group 5779" transform="translate(0.401 11.94)">
        <path id="Path_4256" data-name="Path 4256" d="M474.267,236.717h3.744v1.105a.768.768,0,0,1-.125.423l-.02.03a.693.693,0,0,1-.142.158l-.781.639a.4.4,0,0,0-.141.3l-.011,1.636h-2.585A15.083,15.083,0,0,1,474.267,236.717Z" transform="translate(-474.082 -236.717)" fill="#ba0000"/>
        <path id="Path_4257" data-name="Path 4257" d="M479.347,248.521h-2.039c-.069-.329-.134-.7-.187-1.1h2.585l-.005.719A.37.37,0,0,1,479.347,248.521Z" transform="translate(-476.997 -243.125)" fill="#930606"/>
      </g>
      <path id="Path_4258" data-name="Path 4258" d="M481.108,243.578h.766a.189.189,0,0,1,.187.162l.149,1.006a.19.19,0,0,1-.187.217h-.814C481.157,244.536,481.121,244.074,481.108,243.578Z" transform="translate(-480.7 -228.884)" fill="#acbebf"/>
      <path id="Path_4259" data-name="Path 4259" d="M477.249,237.345h2.229a.339.339,0,0,1,.339.339v.766a.768.768,0,0,1-.125.422l-.02.031a.7.7,0,0,1-.142.157l-.653.535H477.1A15.194,15.194,0,0,1,477.249,237.345Z" transform="translate(-476.697 -225.153)" fill="#930606"/>
      <path id="Path_4260" data-name="Path 4260" d="M477.815,237.862a13.975,13.975,0,0,1-.722-7.585,15.6,15.6,0,0,1,.763-2.831c.016-.016-.079-.96.393-1.2h1.219l.149,1.133c-2.58,2.643-1.007,10.571-1.007,10.571Z" transform="translate(-476.408 -218.51)" opacity="0.3"/>
    </g>
  </g>
</svg>
