<svg xmlns="http://www.w3.org/2000/svg" width="23.564" height="16.2" viewBox="0 0 23.564 16.2">
  <g id="coupon" transform="translate(0 -80)">
    <g id="Group_5914" data-name="Group 5914" transform="translate(0 80)">
      <g id="Group_5913" data-name="Group 5913">
        <path id="Path_4263" data-name="Path 4263" d="M22.091,80H8.1a.742.742,0,0,0-.521.215l-.951.953-.951-.953A.742.742,0,0,0,5.155,80H1.473A1.475,1.475,0,0,0,0,81.473V94.727A1.474,1.474,0,0,0,1.473,96.2H5.155a.742.742,0,0,0,.521-.215l.951-.953.951.951A.737.737,0,0,0,8.1,96.2H22.091a1.473,1.473,0,0,0,1.473-1.473V81.473A1.474,1.474,0,0,0,22.091,80ZM7.364,93.255H5.891V91.782H7.364Zm0-2.945H5.891V88.836H7.364Zm0-2.945H5.891V85.891H7.364Zm0-2.945H5.891V82.946H7.364Zm5.155-1.473a2.209,2.209,0,1,1-2.209,2.209A2.212,2.212,0,0,1,12.518,82.946ZM11.046,93.255a.736.736,0,0,1-.566-1.208l7.364-8.836a.736.736,0,1,1,1.13.944L11.61,92.991A.736.736,0,0,1,11.046,93.255Zm5.891,0a2.209,2.209,0,1,1,2.209-2.209A2.212,2.212,0,0,1,16.937,93.255Z" transform="translate(0 -80)" fill="#50d8e8"/>
      </g>
    </g>
  </g>
</svg>
