<svg xmlns="http://www.w3.org/2000/svg" width="22.716" height="31.732" viewBox="0 0 22.716 31.732">
  <g id="noun_Coupon_1347063" transform="translate(-17.784 -5)">
    <path id="Path_4271" data-name="Path 4271" d="M38.579,51.738l.593.593a2.595,2.595,0,0,0,3.2,3.884A2.882,2.882,0,0,0,43,55.784a2.945,2.945,0,0,1,.286-.221,2.031,2.031,0,0,1,.775-.3A1.668,1.668,0,0,1,45.5,55.7a1.566,1.566,0,0,1,0,2.214l-.1.1a1.565,1.565,0,0,1-2.214,0,.564.564,0,1,0-.8.8,2.688,2.688,0,0,0,3.518.249l.78.78a.564.564,0,0,0,.8-.8l-.808-.808A2.689,2.689,0,0,0,46.3,54.9a2.8,2.8,0,0,0-2.418-.745,3.178,3.178,0,0,0-1.209.46,3.982,3.982,0,0,0-.4.306,1.909,1.909,0,0,1-.383.275,1.492,1.492,0,0,1-1.667-.289,1.469,1.469,0,0,1,0-2.076l.1-.1a1.469,1.469,0,0,1,2.076,0,.564.564,0,0,0,.8-.8,2.6,2.6,0,0,0-3.2-.373l-.621-.621a.564.564,0,1,0-.8.8Z" transform="translate(-13.356 -29.636)" fill="#50d8e8"/>
    <path id="Path_4272" data-name="Path 4272" d="M17.952,23.721c0,.013,0,.026,0,.038a4.473,4.473,0,0,0,1.285,2.718l9.472,9.472a2.674,2.674,0,0,0,3.782,0l7.224-7.224a2.678,2.678,0,0,0,0-3.783L30.246,15.47a4.476,4.476,0,0,0-2.718-1.285l-.038,0-2.153-.054a11.755,11.755,0,0,0,.411-2.148,10.122,10.122,0,0,0-.533-4.639,3.234,3.234,0,0,0-2.492-2.331,2.591,2.591,0,0,0-1.9.651,8.517,8.517,0,0,0-2.431,5.59,10.856,10.856,0,0,0,.227,3.674,2.952,2.952,0,0,0-.831,2.081Zm11.546-7.5,9.472,9.472a1.619,1.619,0,0,1,0,2.287L31.746,35.2a1.617,1.617,0,0,1-2.287,0l-9.472-9.472a3.411,3.411,0,0,1-.978-2.055l-.167-6.682a1.911,1.911,0,0,1,1.909-1.919l3.067.077a5.315,5.315,0,0,1-.917,1.37c-.039-.047-.073-.1-.116-.141A1.865,1.865,0,1,0,23.33,17.7c0-.042-.01-.083-.012-.125a6.175,6.175,0,0,0,1.646-2.394l2.48.062A3.42,3.42,0,0,1,29.5,16.218Zm-8.085,2.005a2.073,2.073,0,0,0,.214.011A2.25,2.25,0,0,0,22,18.2c0,.005-.008.012-.014.017a.754.754,0,0,1-1.042,0,.744.744,0,0,1-.106-.139A2.176,2.176,0,0,0,21.414,18.223Zm-.3-1.171a.717.717,0,0,1,.823.082,1.2,1.2,0,0,1-.421.036A1.177,1.177,0,0,1,21.114,17.052Zm-1.673-5.7A7.582,7.582,0,0,1,21.489,6.48a1.543,1.543,0,0,1,1.129-.417c.627.061,1.215.67,1.614,1.67a9.058,9.058,0,0,1,.463,4.143,10.488,10.488,0,0,1-.462,2.224l-3.481-.087a2.963,2.963,0,0,0-1.2.254A10.244,10.244,0,0,1,19.44,11.357Z" fill="#50d8e8"/>
  </g>
</svg>
