<svg xmlns="http://www.w3.org/2000/svg" width="14" height="9.333" viewBox="0 0 14 9.333">
  <path id="Icon_awesome-eye" data-name="Icon awesome-eye" d="M13.916,8.812A7.8,7.8,0,0,0,7,4.5,7.8,7.8,0,0,0,.085,8.812a.786.786,0,0,0,0,.709A7.8,7.8,0,0,0,7,13.833a7.8,7.8,0,0,0,6.915-4.312A.786.786,0,0,0,13.916,8.812ZM7,12.667a3.5,3.5,0,1,1,3.5-3.5A3.5,3.5,0,0,1,7,12.667ZM7,6.833a2.317,2.317,0,0,0-.615.092A1.163,1.163,0,0,1,4.759,8.552,2.328,2.328,0,1,0,7,6.833Z" transform="translate(0 -4.5)" fill="#fff"/>
</svg>
