<svg xmlns="http://www.w3.org/2000/svg" width="22.758" height="22.758" viewBox="0 0 22.758 22.758">
  <path id="Icon_metro-plus" data-name="Icon metro-plus" d="M24.617,10.462H16.794V2.639a.711.711,0,0,0-.711-.711H11.816a.711.711,0,0,0-.711.711v7.823H3.282a.711.711,0,0,0-.711.711V15.44a.711.711,0,0,0,.711.711H11.1v7.823a.711.711,0,0,0,.711.711h4.267a.711.711,0,0,0,.711-.711V16.151h7.823a.711.711,0,0,0,.711-.711V11.173A.711.711,0,0,0,24.617,10.462Z" transform="translate(-2.571 -1.928)" fill="#fff"/>
</svg>
