<svg xmlns="http://www.w3.org/2000/svg" width="18.934" height="12.055" viewBox="0 0 18.934 12.055">
  <g id="Group_622" data-name="Group 622" transform="translate(-57 -1701)">
    <path id="Path_45" data-name="Path 45" d="M11.767,11.639l-.059-.259H5.917v2.37H9.271A3,3,0,0,1,6.161,16.1a3.546,3.546,0,0,1-2.526-.936,3.73,3.73,0,0,1-.048-5.177A3.488,3.488,0,0,1,6.128,9.05a3.2,3.2,0,0,1,2.149.78l1.775-1.764A6.01,6.01,0,0,0,6.068,6.539h0A6.132,6.132,0,0,0,1.716,8.307,6.138,6.138,0,0,0,0,12.567a6.066,6.066,0,0,0,1.649,4.19,6.3,6.3,0,0,0,4.545,1.838,5.608,5.608,0,0,0,4.079-1.712,6.005,6.005,0,0,0,1.568-4.168A6.932,6.932,0,0,0,11.767,11.639Z" transform="translate(57 1694.461)" fill="#fff"/>
    <path id="Path_46" data-name="Path 46" d="M30.833,13.85H28.726V11.742H27.209V13.85H25.1v1.516h2.108v2.108h1.516V15.366h2.108Z" transform="translate(45.1 1691.994)" fill="#fff"/>
  </g>
</svg>
