<svg xmlns="http://www.w3.org/2000/svg" width="78.265" height="42.211" viewBox="0 0 78.265 42.211">
  <g id="Group_5907" data-name="Group 5907" transform="translate(-265 -672)">
    <path id="Path_4261" data-name="Path 4261" d="M316.966,282.679c0,.9-15.67,1.638-35,1.638s-35-.733-35-1.638,15.67-1.638,35-1.638S316.966,281.775,316.966,282.679Z" transform="translate(22.034 429.894)" opacity="0.3"/>
    <g id="Group_5782" data-name="Group 5782" transform="translate(265 672)">
      <g id="Group_5614" data-name="Group 5614" transform="translate(2.764 33.196)">
        <path id="Path_4047" data-name="Path 4047" d="M402.392,178.621a1.427,1.427,0,0,1-1.427,1.427h-9.272a1.316,1.316,0,0,1-1.315-1.318v-.109h12.015Z" transform="translate(-390.377 -178.621)" fill="#3a3a4c"/>
      </g>
      <g id="Group_5615" data-name="Group 5615" transform="translate(0.86 30.964)">
        <path id="Path_4048" data-name="Path 4048" d="M394.128,169.518a2.249,2.249,0,0,0,2.232,2.232H384.213l-1.6,1.2v-1.969l.516-.353v-1.108Z" transform="translate(-382.612 -169.518)" fill="#5b5b77"/>
      </g>
      <g id="Group_5616" data-name="Group 5616" transform="translate(0.315 32.425)">
        <path id="Path_4049" data-name="Path 4049" d="M380.393,177.852v-2.005l.544-.37v1.969Z" transform="translate(-380.393 -175.477)" fill="#e44c23"/>
      </g>
      <g id="Group_5626" data-name="Group 5626" transform="translate(3.883 30.005)">
        <g id="Group_5617" data-name="Group 5617" transform="translate(6.298 5.198)">
          <path id="Path_4050" data-name="Path 4050" d="M420.969,186.8c.495,0,.557.769.058.769S420.47,186.8,420.969,186.8Z" transform="translate(-420.624 -186.803)" fill="#373747"/>
        </g>
        <g id="Group_5618" data-name="Group 5618" transform="translate(5.125 6.237)">
          <path id="Path_4051" data-name="Path 4051" d="M416.183,191.042c.5,0,.557.773.058.773S415.688,191.042,416.183,191.042Z" transform="translate(-415.84 -191.042)" fill="#373747"/>
        </g>
        <g id="Group_5619" data-name="Group 5619" transform="translate(5.066 5.066)">
          <path id="Path_4052" data-name="Path 4052" d="M415.6,186.727a.462.462,0,1,1,.46.46A.464.464,0,0,1,415.6,186.727Z" transform="translate(-415.6 -186.267)" fill="#373747"/>
        </g>
        <g id="Group_5620" data-name="Group 5620" transform="translate(5.16 3.988)">
          <path id="Path_4053" data-name="Path 4053" d="M416.383,182.643c-.495,0-.553-.773-.058-.773S416.881,182.643,416.383,182.643Z" transform="translate(-415.981 -181.87)" fill="#373747"/>
        </g>
        <g id="Group_5621" data-name="Group 5621" transform="translate(4.022 5.221)">
          <path id="Path_4054" data-name="Path 4054" d="M411.687,186.9c.495,0,.556.773.058.773S411.188,186.9,411.687,186.9Z" transform="translate(-411.342 -186.898)" fill="#373747"/>
        </g>
        <g id="Group_5622" data-name="Group 5622" transform="translate(3.756 3.756)">
          <path id="Path_4055" data-name="Path 4055" d="M413.2,183.135c.5,0,.437-.769-.058-.769S412.708,183.135,413.2,183.135Zm-1.175,1.043c.5,0,.44-.773-.058-.773S411.533,184.179,412.028,184.179Zm.035-2.249c.5,0,.44-.773-.058-.773S411.568,181.93,412.063,181.93Zm-.035.305a.46.46,0,1,0,.464.46A.464.464,0,0,0,412.028,182.235Zm-1.159.155c-.5,0-.437.773.058.773S411.363,182.39,410.869,182.39Zm-.611.305a1.772,1.772,0,1,1,1.77,1.774A1.77,1.77,0,0,1,410.258,182.7Z" transform="translate(-410.258 -180.925)" fill="#d9d9e7"/>
        </g>
        <g id="Group_5623" data-name="Group 5623" transform="translate(2.342 2.342)">
          <path id="Path_4056" data-name="Path 4056" d="M407.674,176.571a1.772,1.772,0,1,0,1.774,1.77A1.77,1.77,0,0,0,407.674,176.571Zm-3.185,1.77a3.186,3.186,0,1,1,3.185,3.188A3.185,3.185,0,0,1,404.49,178.342Z" transform="translate(-404.49 -175.157)" fill="#bdbdcb"/>
        </g>
        <g id="Group_5624" data-name="Group 5624" transform="translate(1.179 1.179)">
          <path id="Path_4057" data-name="Path 4057" d="M404.095,171.576a3.186,3.186,0,1,0,3.188,3.185A3.185,3.185,0,0,0,404.095,171.576Zm0-1.163a4.35,4.35,0,1,1-4.348,4.348A4.35,4.35,0,0,1,404.095,170.413Z" transform="translate(-399.747 -170.413)" fill="#3a3a4c"/>
        </g>
        <g id="Group_5625" data-name="Group 5625">
          <path id="Path_4058" data-name="Path 4058" d="M406,171.133a5.528,5.528,0,1,1-5.53-5.526A5.527,5.527,0,0,1,406,171.133Zm-5.53,4.352a4.35,4.35,0,1,0-4.348-4.352A4.351,4.351,0,0,0,400.466,175.485Z" transform="translate(-394.94 -165.607)" fill="#1d1d28"/>
        </g>
      </g>
      <g id="Group_5627" data-name="Group 5627" transform="translate(54.96 27.39)">
        <rect id="Rectangle_4197" data-name="Rectangle 4197" width="14.634" height="7.681" fill="#0e0e16"/>
      </g>
      <g id="Group_5637" data-name="Group 5637" transform="translate(56.227 30.005)">
        <g id="Group_5628" data-name="Group 5628" transform="translate(6.299 5.198)">
          <path id="Path_4059" data-name="Path 4059" d="M634.421,186.8c.495,0,.556.769.058.769S633.922,186.8,634.421,186.8Z" transform="translate(-634.076 -186.803)" fill="#373747"/>
        </g>
        <g id="Group_5629" data-name="Group 5629" transform="translate(5.125 6.237)">
          <path id="Path_4060" data-name="Path 4060" d="M629.634,191.042c.5,0,.556.773.058.773S629.14,191.042,629.634,191.042Z" transform="translate(-629.291 -191.042)" fill="#373747"/>
        </g>
        <g id="Group_5630" data-name="Group 5630" transform="translate(5.067 5.066)">
          <path id="Path_4061" data-name="Path 4061" d="M629.052,186.727a.462.462,0,1,1,.46.46A.464.464,0,0,1,629.052,186.727Z" transform="translate(-629.052 -186.267)" fill="#373747"/>
        </g>
        <g id="Group_5631" data-name="Group 5631" transform="translate(5.16 3.988)">
          <path id="Path_4062" data-name="Path 4062" d="M629.834,182.643c-.495,0-.553-.773-.058-.773S630.333,182.643,629.834,182.643Z" transform="translate(-629.433 -181.87)" fill="#373747"/>
        </g>
        <g id="Group_5632" data-name="Group 5632" transform="translate(4.022 5.221)">
          <path id="Path_4063" data-name="Path 4063" d="M625.138,186.9c.495,0,.557.773.058.773S624.639,186.9,625.138,186.9Z" transform="translate(-624.793 -186.898)" fill="#373747"/>
        </g>
        <g id="Group_5633" data-name="Group 5633" transform="translate(3.756 3.756)">
          <path id="Path_4064" data-name="Path 4064" d="M626.654,183.135c.5,0,.437-.769-.058-.769S626.159,183.135,626.654,183.135Zm-1.175,1.043c.5,0,.441-.773-.058-.773S624.984,184.179,625.479,184.179Zm.035-2.249c.5,0,.441-.773-.058-.773S625.019,181.93,625.514,181.93Zm-.035.305a.46.46,0,1,0,.464.46A.464.464,0,0,0,625.479,182.235Zm-1.159.155c-.5,0-.437.773.058.773S624.815,182.39,624.32,182.39Zm-.611.305a1.772,1.772,0,1,1,1.77,1.774A1.77,1.77,0,0,1,623.709,182.7Z" transform="translate(-623.709 -180.925)" fill="#d9d9e7"/>
        </g>
        <g id="Group_5634" data-name="Group 5634" transform="translate(2.342 2.342)">
          <path id="Path_4065" data-name="Path 4065" d="M621.125,176.571a1.772,1.772,0,1,0,1.774,1.77A1.77,1.77,0,0,0,621.125,176.571Zm-3.185,1.77a3.187,3.187,0,1,1,3.185,3.188A3.185,3.185,0,0,1,617.941,178.342Z" transform="translate(-617.941 -175.157)" fill="#bdbdcb"/>
        </g>
        <g id="Group_5635" data-name="Group 5635" transform="translate(1.179 1.179)">
          <path id="Path_4066" data-name="Path 4066" d="M617.546,171.576a3.186,3.186,0,1,0,3.189,3.185A3.185,3.185,0,0,0,617.546,171.576Zm0-1.163a4.35,4.35,0,1,1-4.348,4.348A4.35,4.35,0,0,1,617.546,170.413Z" transform="translate(-613.198 -170.413)" fill="#3a3a4c"/>
        </g>
        <g id="Group_5636" data-name="Group 5636">
          <path id="Path_4067" data-name="Path 4067" d="M619.448,171.133a5.528,5.528,0,1,1-5.53-5.526A5.527,5.527,0,0,1,619.448,171.133Zm-5.53,4.352a4.35,4.35,0,1,0-4.348-4.352A4.351,4.351,0,0,0,613.917,175.485Z" transform="translate(-608.391 -165.607)" fill="#1d1d28"/>
        </g>
      </g>
      <g id="Group_5638" data-name="Group 5638" transform="translate(15.717 32.003)">
        <rect id="Rectangle_4198" data-name="Rectangle 4198" width="30.27" height="3.22" fill="#1d1d28"/>
      </g>
      <g id="Group_5639" data-name="Group 5639" transform="translate(44.322 29.449)">
        <path id="Path_4068" data-name="Path 4068" d="M563.83,164.857v-1.514h.74V165.1h1.455v1.4s-.028,1.133,2.062,1.133v.833h2.875v1.915H559.845v-5.525Z" transform="translate(-559.845 -163.343)" fill="#3a3a4c"/>
      </g>
      <g id="Group_5640" data-name="Group 5640" transform="translate(1.631 9.121)">
        <rect id="Rectangle_4199" data-name="Rectangle 4199" width="47.955" height="1.543" fill="#e5e5e7"/>
      </g>
      <g id="Group_5641" data-name="Group 5641" transform="translate(1.631 7.309)">
        <rect id="Rectangle_4200" data-name="Rectangle 4200" width="47.955" height="1.813" fill="#d3d3d5"/>
      </g>
      <g id="Group_5642" data-name="Group 5642" transform="translate(1.631 5.499)">
        <rect id="Rectangle_4201" data-name="Rectangle 4201" width="47.955" height="1.81" fill="#e5e5e7"/>
      </g>
      <g id="Group_5643" data-name="Group 5643" transform="translate(1.631 3.686)">
        <rect id="Rectangle_4202" data-name="Rectangle 4202" width="47.955" height="1.813" fill="#d3d3d5"/>
      </g>
      <g id="Group_5644" data-name="Group 5644" transform="translate(1.631 2.055)">
        <rect id="Rectangle_4203" data-name="Rectangle 4203" width="47.955" height="1.631" fill="#e5e5e7"/>
      </g>
      <g id="Group_5645" data-name="Group 5645" transform="translate(34.831 30.964)">
        <path id="Path_4069" data-name="Path 4069" d="M521.14,170.626l.3-1.108h12.095l0,1.108h-12.4Z" transform="translate(-521.14 -169.518)" fill="#5b5b77"/>
      </g>
      <g id="Group_5646" data-name="Group 5646" transform="translate(29.814 30.964)">
        <path id="Path_4070" data-name="Path 4070" d="M503.533,170.286h-2.852v-.74h4.428v-.028H506l-.3,1.108-.356.465a2.24,2.24,0,0,1-1.59.659h-3.071v-.55h2.852Z" transform="translate(-500.681 -169.518)" fill="#8e8e9a"/>
      </g>
      <g id="Group_5647" data-name="Group 5647" transform="translate(29.813 31.732)">
        <rect id="Rectangle_4204" data-name="Rectangle 4204" width="2.852" height="0.914" fill="#bdbdcb"/>
      </g>
      <g id="Group_5648" data-name="Group 5648" transform="translate(27.948 32.646)">
        <rect id="Rectangle_4205" data-name="Rectangle 4205" width="1.865" height="0.55" fill="#373747"/>
      </g>
      <g id="Group_5649" data-name="Group 5649" transform="translate(27.948 31.732)">
        <rect id="Rectangle_4206" data-name="Rectangle 4206" width="1.865" height="0.914" fill="#bdbdcb"/>
      </g>
      <g id="Group_5650" data-name="Group 5650" transform="translate(27.948 30.992)">
        <rect id="Rectangle_4207" data-name="Rectangle 4207" width="1.865" height="0.74" fill="#373747"/>
      </g>
      <g id="Group_5651" data-name="Group 5651" transform="translate(27.948 30.964)">
        <rect id="Rectangle_4208" data-name="Rectangle 4208" width="1.865" height="0.028" fill="#5b5b77"/>
      </g>
      <g id="Group_5652" data-name="Group 5652" transform="translate(19.423 32.646)">
        <rect id="Rectangle_4209" data-name="Rectangle 4209" width="8.526" height="0.55" fill="#8e8e9a"/>
      </g>
      <g id="Group_5653" data-name="Group 5653" transform="translate(19.423 31.732)">
        <rect id="Rectangle_4210" data-name="Rectangle 4210" width="8.526" height="0.914" fill="#bdbdcb"/>
      </g>
      <g id="Group_5654" data-name="Group 5654" transform="translate(19.423 30.992)">
        <rect id="Rectangle_4211" data-name="Rectangle 4211" width="8.526" height="0.74" fill="#8e8e9a"/>
      </g>
      <g id="Group_5655" data-name="Group 5655" transform="translate(1.631 12.474)">
        <rect id="Rectangle_4212" data-name="Rectangle 4212" width="47.955" height="1.813" fill="#e5e5e7"/>
      </g>
      <g id="Group_5656" data-name="Group 5656" transform="translate(17.558 32.646)">
        <rect id="Rectangle_4213" data-name="Rectangle 4213" width="1.865" height="0.55" fill="#373747"/>
      </g>
      <g id="Group_5657" data-name="Group 5657" transform="translate(17.558 31.732)">
        <rect id="Rectangle_4214" data-name="Rectangle 4214" width="1.865" height="0.914" fill="#bdbdcb"/>
      </g>
      <g id="Group_5658" data-name="Group 5658" transform="translate(17.558 30.992)">
        <rect id="Rectangle_4215" data-name="Rectangle 4215" width="1.865" height="0.74" fill="#373747"/>
      </g>
      <g id="Group_5659" data-name="Group 5659" transform="translate(17.558 30.964)">
        <rect id="Rectangle_4216" data-name="Rectangle 4216" width="1.865" height="0.028" fill="#5b5b77"/>
      </g>
      <g id="Group_5660" data-name="Group 5660" transform="translate(13.267 30.08)">
        <path id="Path_4071" data-name="Path 4071" d="M454.182,166.891H433.207v-.976h20.975Z" transform="translate(-433.207 -165.916)" fill="#5b5b77"/>
      </g>
      <g id="Group_5661" data-name="Group 5661" transform="translate(1.631 26.629)">
        <rect id="Rectangle_4217" data-name="Rectangle 4217" width="47.955" height="1.722" fill="#e5e5e7"/>
      </g>
      <g id="Group_5662" data-name="Group 5662" transform="translate(1.631 24.819)">
        <rect id="Rectangle_4218" data-name="Rectangle 4218" width="47.955" height="1.81" fill="#d3d3d5"/>
      </g>
      <g id="Group_5663" data-name="Group 5663" transform="translate(1.631 23.141)">
        <rect id="Rectangle_4219" data-name="Rectangle 4219" width="47.955" height="1.678" fill="#e5e5e7"/>
      </g>
      <g id="Group_5664" data-name="Group 5664" transform="translate(1.631 21.328)">
        <rect id="Rectangle_4220" data-name="Rectangle 4220" width="47.955" height="1.813" fill="#d3d3d5"/>
      </g>
      <g id="Group_5665" data-name="Group 5665" transform="translate(1.631 19.519)">
        <rect id="Rectangle_4221" data-name="Rectangle 4221" width="47.955" height="1.81" fill="#e5e5e7"/>
      </g>
      <g id="Group_5666" data-name="Group 5666" transform="translate(1.631 17.706)">
        <rect id="Rectangle_4222" data-name="Rectangle 4222" width="47.955" height="1.813" fill="#d3d3d5"/>
      </g>
      <g id="Group_5667" data-name="Group 5667" transform="translate(1.631 16.097)">
        <rect id="Rectangle_4223" data-name="Rectangle 4223" width="47.955" height="1.609" fill="#e5e5e7"/>
      </g>
      <g id="Group_5668" data-name="Group 5668" transform="translate(1.631 14.287)">
        <rect id="Rectangle_4224" data-name="Rectangle 4224" width="47.955" height="1.81" fill="#d3d3d5"/>
      </g>
      <g id="Group_5669" data-name="Group 5669" transform="translate(14.779 31.732)">
        <rect id="Rectangle_4225" data-name="Rectangle 4225" width="2.779" height="0.914" fill="#bdbdcb"/>
      </g>
      <g id="Group_5670" data-name="Group 5670" transform="translate(12.375 30.964)">
        <path id="Path_4072" data-name="Path 4072" d="M431.974,171.75H431.8a2.249,2.249,0,0,1-2.232-2.232h.892v.028h4.291v.74h-2.779v.914h2.779v.55Z" transform="translate(-429.571 -169.518)" fill="#8e8e9a"/>
      </g>
      <g id="Group_5671" data-name="Group 5671" transform="translate(1.631 10.665)">
        <rect id="Rectangle_4226" data-name="Rectangle 4226" width="47.955" height="1.81" fill="#d3d3d5"/>
      </g>
      <g id="Group_5672" data-name="Group 5672" transform="translate(0 0)">
        <path id="Path_4073" data-name="Path 4073" d="M379.107,43.254V74.219l13.266-.017v-.867h20.976V74.2h10.687v.017h6.287V43.254Zm49.585,28.909H380.738V45.31h47.953Z" transform="translate(-379.107 -43.254)" fill="#b7b7c8"/>
      </g>
      <g id="Group_5674" data-name="Group 5674" transform="translate(44.943 29.664)">
        <g id="Group_5673" data-name="Group 5673">
          <rect id="Rectangle_4227" data-name="Rectangle 4227" width="2.628" height="0.416" fill="#e44c23"/>
        </g>
      </g>
      <g id="Group_5676" data-name="Group 5676" transform="translate(41.265 29.664)">
        <g id="Group_5675" data-name="Group 5675">
          <rect id="Rectangle_4228" data-name="Rectangle 4228" width="2.628" height="0.416" fill="#e44c23"/>
        </g>
      </g>
      <g id="Group_5678" data-name="Group 5678" transform="translate(6.299 29.756)">
        <g id="Group_5677" data-name="Group 5677">
          <rect id="Rectangle_4229" data-name="Rectangle 4229" width="2.628" height="0.416" fill="#e44c23"/>
        </g>
      </g>
      <g id="Group_5680" data-name="Group 5680" transform="translate(2.622 29.756)">
        <g id="Group_5679" data-name="Group 5679">
          <rect id="Rectangle_4230" data-name="Rectangle 4230" width="2.628" height="0.416" fill="#e44c23"/>
        </g>
      </g>
      <g id="Group_5681" data-name="Group 5681" transform="translate(1.631 28.35)">
        <rect id="Rectangle_4231" data-name="Rectangle 4231" width="47.954" height="0.558" fill="#3a3a4c"/>
      </g>
      <g id="Group_5683" data-name="Group 5683" transform="translate(53.365 8.215)">
        <g id="Group_5682" data-name="Group 5682">
          <path id="Path_4074" data-name="Path 4074" d="M662.589,87.45a15.384,15.384,0,0,1,3.129,4.223h-.454v1.41q-.161-.323-.332-.654h0a22.239,22.239,0,0,0-1.666-2.737,13.7,13.7,0,0,0-1.57-1.85l.718-.16Z" transform="translate(-645.76 -84.827)" fill="#50d8e8"/>
          <path id="Path_4075" data-name="Path 4075" d="M663.778,108.406v1.46l-3.859.9-.195-2.187,3.719-.826h0Q663.616,108.083,663.778,108.406Z" transform="translate(-644.274 -100.15)" fill="#3a3a4c"/>
          <path id="Path_4076" data-name="Path 4076" d="M662.611,99.33l-3.719.826-.27-3.021,2.324-.541A22.268,22.268,0,0,1,662.611,99.33Z" transform="translate(-643.441 -91.728)" fill="#3a3a4c"/>
          <path id="Path_4077" data-name="Path 4077" d="M664.988,81.355a22.342,22.342,0,0,1,4.118,5.406l-.137.078h-.608a26.2,26.2,0,0,0-3.74-5.2V81.05l0,0C664.75,81.143,664.872,81.248,664.988,81.355Z" transform="translate(-647.971 -79.994)" fill="#3a3a4c"/>
          <path id="Path_4078" data-name="Path 4078" d="M620.193,106.306v.006l-1.428-.026L618.434,103a3.625,3.625,0,0,0-3.5-2.687h-3.908a4.113,4.113,0,0,0-3.792,2.516H607.2V81.059h2.669V99.3h6.2a3.3,3.3,0,0,1,3.187,2.449Z" transform="translate(-604.632 -80.003)" fill="#33bfcf"/>
          <path id="Path_4079" data-name="Path 4079" d="M658.555,113.385l-.195-2.193.334-.073.195,2.187Z" transform="translate(-643.245 -102.692)" fill="#1d1d28"/>
          <path id="Path_4080" data-name="Path 4080" d="M659.489,120.037l.006.081-.168.017h-.009l-.163-.012v-.009Z" transform="translate(-643.844 -109.423)" fill="#1d1d28"/>
          <path id="Path_4081" data-name="Path 4081" d="M677.284,108.394c-.282-.7-.625-1.492-1.029-2.315v-1.41h.454a23.554,23.554,0,0,1,1.041,2.309v2.641C677.622,109.261,677.465,108.845,677.284,108.394Z" transform="translate(-656.751 -97.823)" fill="#15151c"/>
          <path id="Path_4082" data-name="Path 4082" d="M620.384,110.063l7.747.518-6.165,1.44a.407.407,0,0,0,.119-.291v-.52h-3.4v.52h-.6v-4.243h.512l.393-.09v1.495a1.154,1.154,0,0,0,1.079,1.152Z" transform="translate(-612.849 -99.882)" fill="#50d8e8"/>
          <path id="Path_4083" data-name="Path 4083" d="M633.848,114.084a29.242,29.242,0,0,1,1.175,3.78l.131,9.829v3.655l-6.744-.111v-.006l-.934-4.562a3.3,3.3,0,0,0-3.187-2.449h-6.2v-7.445h.6a.427.427,0,0,0,.424.425h2.545a.422.422,0,0,0,.308-.134l6.165-1.439.029,0,0,.026.16-.015h.009a.462.462,0,0,1,.384.244l1.114,2.024a.471.471,0,0,0,.413.247h3.437a.474.474,0,0,0,.451-.622c-.073-.221-.166-.494-.282-.811Zm.026,14.747v-.913h-1.951v.913Z" transform="translate(-612.849 -104.93)" fill="#50d8e8"/>
          <path id="Path_4084" data-name="Path 4084" d="M657.6,98.8l.27,3.021-.334.073-.268-3.016Z" transform="translate(-642.421 -93.393)" fill="#1d1d28"/>
          <path id="Path_4085" data-name="Path 4085" d="M631.572,126.385l.57-.134a.422.422,0,0,1-.308.134Z" transform="translate(-623.025 -114.113)" fill="#3a3a4c"/>
          <path id="Path_4086" data-name="Path 4086" d="M676.255,110.42c.4.823.747,1.614,1.029,2.315l-1.029,1.524V110.42Z" transform="translate(-656.751 -102.164)" fill="#15151c"/>
          <path id="Path_4087" data-name="Path 4087" d="M679.146,105.8v1.175a23.569,23.569,0,0,0-1.041-2.309h.433Q678.844,105.21,679.146,105.8Z" transform="translate(-658.147 -97.823)" fill="#15151c"/>
          <path id="Path_4088" data-name="Path 4088" d="M635.027,111.416l.195,2.193-.029.006-7.747-.518Z" transform="translate(-619.911 -102.916)" fill="#3a3a4c"/>
          <path id="Path_4089" data-name="Path 4089" d="M679.872,104.669h.608V105.8Q680.179,105.21,679.872,104.669Z" transform="translate(-659.481 -97.823)" fill="#15151c"/>
          <path id="Path_4090" data-name="Path 4090" d="M684.345,110.627a28.178,28.178,0,0,0-1.995-5.066v-1.134l.137-.078a34.61,34.61,0,0,1,2.44,5.464,10.454,10.454,0,0,1,.4,1.477A1.261,1.261,0,0,1,684.345,110.627Z" transform="translate(-661.351 -97.582)" fill="#3a3a4c"/>
          <path id="Path_4091" data-name="Path 4091" d="M659.065,120.357v.009l-.029,0Z" transform="translate(-643.755 -109.665)" fill="#3a3a4c"/>
          <path id="Path_4092" data-name="Path 4092" d="M683.525,114.249a29.262,29.262,0,0,0-1.175-3.78v-1.175a28.177,28.177,0,0,1,1.995,5.066,1.261,1.261,0,0,0,.977.663,9.879,9.879,0,0,1,.163,1.172c.049.59.084,1.175.111,1.742H684.29V120.3a2.185,2.185,0,0,0,.535.948,1.142,1.142,0,0,0,.809.332c-.032,1.48-.111,2.437-.111,2.437a.06.06,0,0,0,.02.006l-.02.055h-1.867Z" transform="translate(-661.351 -101.314)" fill="#33bfcf"/>
          <path id="Path_4093" data-name="Path 4093" d="M660.239,117.615a.462.462,0,0,0-.384-.245l.169-.017-.006-.081,3.859-.9v2.379l-.768,1.134h-1.343a.471.471,0,0,1-.413-.247Z" transform="translate(-644.373 -106.657)" fill="#3a3a4c"/>
          <path id="Path_4094" data-name="Path 4094" d="M623.929,122.943v.52a.406.406,0,0,1-.119.291l-.57.134h-2.283a.427.427,0,0,1-.424-.425v-.52Z" transform="translate(-614.693 -111.616)" fill="#3a3a4c"/>
          <path id="Path_4095" data-name="Path 4095" d="M630.481,99.119l.268,3.016-7.581,1.681-.311-.02a1.154,1.154,0,0,1-1.079-1.152v-1.495Z" transform="translate(-615.632 -93.634)" fill="#3a3a4c"/>
          <path id="Path_4096" data-name="Path 4096" d="M630.286,90.2l.195,2.187-8.7,2.03V92.092Z" transform="translate(-615.632 -86.904)" fill="#3a3a4c"/>
          <path id="Path_4097" data-name="Path 4097" d="M627.726,82l-.169.014a.487.487,0,0,0-.273-.081h-7.817a.472.472,0,0,0-.474.471v5.118l-.393.09h-.512V81.059h9.262a7.433,7.433,0,0,1,2.326,1.567l-.177.233-.718.16a8.627,8.627,0,0,0-1.044-.878Z" transform="translate(-612.849 -80.003)" fill="#50d8e8"/>
          <path id="Path_4098" data-name="Path 4098" d="M656.809,89.905,657,92.086l-.331.079-.195-2.187Z" transform="translate(-641.821 -86.68)" fill="#1d1d28"/>
          <path id="Path_4099" data-name="Path 4099" d="M660.354,90.9l-2.324.541-.192-2.181.945-.209A13.709,13.709,0,0,1,660.354,90.9Z" transform="translate(-642.851 -86.035)" fill="#3a3a4c"/>
          <path id="Path_4100" data-name="Path 4100" d="M656.361,85.067l.1,1.088-.334.073-.114-1.276.169-.015C656.242,84.977,656.3,85.02,656.361,85.067Z" transform="translate(-641.472 -82.93)" fill="#1d1d28"/>
          <path id="Path_4101" data-name="Path 4101" d="M658.479,86.348l-.945.209-.1-1.088A8.614,8.614,0,0,1,658.479,86.348Z" transform="translate(-642.546 -83.333)" fill="#3a3a4c"/>
          <path id="Path_4102" data-name="Path 4102" d="M630.341,84.685l-.169.015.114,1.276-8.509,1.89V85.075a.472.472,0,0,1,.474-.471h7.817A.486.486,0,0,1,630.341,84.685Z" transform="translate(-615.632 -82.679)" fill="#3a3a4c"/>
          <path id="Path_4103" data-name="Path 4103" d="M661.314,86.849a15.383,15.383,0,0,0-3.129-4.223,7.433,7.433,0,0,0-2.327-1.567h2.149v.593a26.2,26.2,0,0,1,3.74,5.2Z" transform="translate(-641.356 -80.003)" fill="#15919b"/>
          <path id="Path_4104" data-name="Path 4104" d="M674.412,126.1h.974v-1.25c.116.317.209.59.282.811a.474.474,0,0,1-.451.622h-2.094l.768-1.134v.509h.52Z" transform="translate(-654.388 -113.057)" fill="#1d1d28"/>
          <path id="Path_4105" data-name="Path 4105" d="M676.775,121.892h-.52v-.509l1.029-1.524c.18.451.337.867.465,1.224v.808Z" transform="translate(-656.751 -109.288)" fill="#15151c"/>
          <rect id="Rectangle_4232" data-name="Rectangle 4232" width="0.974" height="0.442" transform="translate(20.025 12.603)" fill="#31313f"/>
          <path id="Path_4106" data-name="Path 4106" d="M653.544,187.488l.1,1.032h-.329l-.154-1.032Z" transform="translate(-639.324 -160.333)" fill="#3a3a4c"/>
          <path id="Path_4107" data-name="Path 4107" d="M654.708,187.488h9.951l.05.032a2.026,2.026,0,0,1-1.748,1h-8.148Z" transform="translate(-640.488 -160.333)" fill="#3a3a4c"/>
          <path id="Path_4108" data-name="Path 4108" d="M664.411,169.356a1.063,1.063,0,0,1,.7,1.166l-.407,2.594a2.019,2.019,0,0,1-.259.718l-.05-.032h-9.951l-.087-.873,1.428.026,6.744.111v-3.655h1.867Z" transform="translate(-640.219 -146.647)" fill="#1d1d28"/>
          <path id="Path_4109" data-name="Path 4109" d="M653.055,183.912l.087.872h-.378l-.131-.878Z" transform="translate(-638.922 -157.63)" fill="#1d1d28"/>
          <rect id="Rectangle_4233" data-name="Rectangle 4233" width="0.407" height="5.365" transform="translate(0 22.822)" fill="#1d1d28"/>
          <path id="Path_4110" data-name="Path 4110" d="M600.544,169.819v.073a4.089,4.089,0,0,0-.294,1.527v3.766h-1.87v-5.365Z" transform="translate(-597.974 -146.997)" fill="#1d1d28"/>
          <path id="Path_4111" data-name="Path 4111" d="M606.919,169.819s-.782,1.474-.506,5.365h-.407v-3.766a4.088,4.088,0,0,1,.294-1.527.538.538,0,0,1,.029-.073Z" transform="translate(-603.729 -146.997)" fill="#1d1d28"/>
          <path id="Path_4112" data-name="Path 4112" d="M615.505,77.807l0,0H599.543c.227-.591.567-1.018.951-1.021l11.885-.035A5.122,5.122,0,0,1,615.505,77.807Z" transform="translate(-598.851 -76.754)" fill="#21a9b8"/>
          <rect id="Rectangle_4234" data-name="Rectangle 4234" width="1.951" height="0.913" transform="translate(19.074 22.988)" fill="#e44c23"/>
          <path id="Path_4113" data-name="Path 4113" d="M690.795,144.537v3.312a2.184,2.184,0,0,1-.535-.948v-2.364Z" transform="translate(-667.321 -127.915)" fill="#e44c23"/>
          <path id="Path_4114" data-name="Path 4114" d="M693.264,146.922l-.015,1.259a1.141,1.141,0,0,1-.808-.332v-3.312h.771C693.25,145.383,693.264,146.189,693.264,146.922Z" transform="translate(-668.968 -127.915)" fill="#f8a912"/>
          <path id="Path_4115" data-name="Path 4115" d="M600.544,81.059v21.767h-2.163V82.635a4.513,4.513,0,0,1,.285-1.576Z" transform="translate(-597.974 -80.003)" fill="#21a9b8"/>
        </g>
      </g>
    </g>
  </g>
</svg>
