<svg xmlns="http://www.w3.org/2000/svg" width="359.146" height="179.215" viewBox="0 0 359.146 179.215">
  <g id="onboarding_3" data-name="onboarding 3" transform="translate(-8 -234)">
    <path id="Path_3923" data-name="Path 3923" d="M1865.5,5652.5s91-55,180.5,0" transform="translate(-1780 -5340)" fill="none" stroke="#33bfcf" stroke-width="2" stroke-dasharray="2"/>
    <g id="Group_5567" data-name="Group 5567" transform="translate(0.211 9.215)">
      <g id="undraw_Eiffel_tower_3gw8" transform="translate(7.789 125.498)">
        <path id="Path_554" data-name="Path 554" d="M437.042,448.415,400.936,465.5,432.89,441.61a180.312,180.312,0,0,0-17.447-22.958L258.862,457.57,400.3,403.617a180.286,180.286,0,0,0-20.539-15.655L141.168,426.393a178.811,178.811,0,0,0-39.162,111.59H461.153a178.714,178.714,0,0,0-24.11-89.567Z" transform="translate(-102.006 -259.48)" fill="#50d8e8" opacity="0.1"/>
        <path id="Path_555" data-name="Path 555" d="M433.947,325.1A179.7,179.7,0,0,0,217.29,371.672C273.7,359.312,371.9,337.918,433.947,325.1Z" transform="translate(-175.72 -207.712)" fill="#50d8e8" opacity="0.1"/>
        <path id="Path_556" data-name="Path 556" d="M721.551,729.017q-7.435-1.26-14.3-2.164l1.809-3.508c-.61-.212-3.291,1.8-3.291,1.8l2.375-10.184c-3.069.37-4.629,10.768-4.629,10.768l-3.429-3.516,1.66,3.952a316.55,316.55,0,0,0-36.283-2.283l1.549-3c-.61-.212-3.291,1.8-3.291,1.8l2.375-10.184c-3.069.37-4.629,10.768-4.629,10.768l-3.428-3.516,1.758,4.186a203.81,203.81,0,0,0-20.858,1.417c1.566-4.678,6.888-9.126,6.888-9.126-4.064,1.209-6.2,3.234-7.309,5.122A82.021,82.021,0,0,1,643.257,693s-8.4,18.279-7.328,30.548l.128,2.179a83.718,83.718,0,0,0-10.7,2.08Z" transform="translate(-436.64 -454.526)" fill="#50d8e8"/>
        <path id="Path_557" data-name="Path 557" d="M413.394,727.2q-7.435-1.26-14.3-2.164l1.809-3.508c-.61-.212-3.291,1.8-3.291,1.8l2.375-10.184c-3.069.37-4.629,10.768-4.629,10.768l-3.428-3.516,1.66,3.952a316.578,316.578,0,0,0-36.283-2.283l1.549-3c-.61-.212-3.291,1.8-3.291,1.8l2.375-10.184c-3.069.37-4.629,10.768-4.629,10.768l-3.428-3.516,1.758,4.186a203.809,203.809,0,0,0-20.858,1.417c1.566-4.678,6.888-9.127,6.888-9.127-4.064,1.209-6.2,3.234-7.309,5.122a82.018,82.018,0,0,1,4.741-28.339s-8.4,18.279-7.328,30.548l.128,2.179A83.714,83.714,0,0,0,317.2,726Z" transform="translate(-239.602 -453.366)" fill="#50d8e8"/>
        <path id="Path_561" data-name="Path 561" d="M407.607,627.95l11.046-15.665-11.062,17.377-.017,1.79q-1.171-.017-2.318-.09l1.04-22.99-.011-.178.02-.034.1-2.172L395.07,588.725l11.356,15.635.031.46.786-17.37L397.519,569.6l9.821,14.8.692-36.006,0-.12v.118l.043,28.391,9.474-11.322-9.5,13.767-.143,15.549,8.819-14.983-8.838,17.269-.08,8.646,12.8-20.86-12.834,23.876Z" transform="translate(-289.393 -361.983)" fill="#50d8e8"/>
        <path id="Path_563" data-name="Path 563" d="M865.912,765.7c-4.52,2.665-6.3,8.022-6.3,8.022s5.549,1.036,10.069-1.629,6.3-8.022,6.3-8.022S870.432,763.036,865.912,765.7Z" transform="translate(-586.425 -499.841)" fill="#50d8e8"/>
        <path id="Path_564" data-name="Path 564" d="M867.079,755.593c-2.531,4.6-7.834,6.532-7.834,6.532s-1.2-5.516,1.332-10.112,7.834-6.532,7.834-6.532S869.61,751,867.079,755.593Z" transform="translate(-586.009 -488.08)" fill="#50d8e8"/>
      </g>
    </g>
    <g id="Group_5570" data-name="Group 5570" transform="translate(-108 -2)">
      <g id="Group_5568" data-name="Group 5568" transform="translate(-1227.334 -6000.071)">
        <path id="Path_3862" data-name="Path 3862" d="M448.891,415.277l-5.4,18.754c-.53,1.84,1.372,4.183,2.262,4.506.781.282,3.134-1.143,3.989-2.93l5.627-11.749c2.166-.982,3.553-6.348,4.118-7.287l-4.638-4.8C452.287,412.041,449.8,412.116,448.891,415.277Z" transform="translate(952.937 5878.868)" fill="#33bfcf" fill-rule="evenodd"/>
        <path id="Path_3863" data-name="Path 3863" d="M457.191,478.294l.071,2.936c.2,5.634-.7,5.111-.573,10.443.178,7.2.849,11.011.35,18.185-.049.706-.092,1.942-.206,3.079l0-.008c-.3,2.034-.6,4.06-.912,6.093l4.417,4.362,2.034.031,2.27-3.96c-.674-2.955-1.656-5.435-2.006-7.631a29.26,29.26,0,0,1,.353-9.706c.961-5.644,2.534-8.256,2.843-12.072.356-4.36-.238-1.79-.64-8.861l.46-2.648h.006a196.663,196.663,0,0,0,3.788-23.44c.5-4.535-.009-7.777.084-9.669.134-2.674-3.616-9.1-4.646-13.893l-8.167-.186-.442,19.6,1.024.023C457.251,457.537,457.031,471.717,457.191,478.294Z" transform="translate(959.634 5889.338)" fill="#ffdba7" fill-rule="evenodd"/>
        <path id="Path_3864" data-name="Path 3864" d="M460.056,478.294l-.071,2.936c-.2,5.634.706,5.111.574,10.443-.178,7.2-.849,11.011-.35,18.185.054.794.1,2.25.252,3.49.138,1.15.433,2.68.43,3.232l-1.314,2.907c-4.76,1.573-5.067,2.4-6.225-2.241a27.384,27.384,0,0,1,.95-3.94,15.088,15.088,0,0,0,.313-1.483,29.26,29.26,0,0,0-.352-9.706c-.962-5.644-2.534-8.256-2.844-12.072-.353-4.36.238-1.79.64-8.861l-.46-2.648h0a196.663,196.663,0,0,1-3.788-23.44c-.5-4.535.009-7.777-.086-9.669-.134-2.674,3.616-9.1,4.646-13.893l8.168-.186.442,19.6-1.025.023C460,457.537,460.216,471.717,460.056,478.294Z" transform="translate(955.177 5889.338)" fill="#ffdba7" fill-rule="evenodd"/>
        <path id="Path_3865" data-name="Path 3865" d="M459.13,486.532l.448,2.976-4.417,4.362-2.034.031-2.268-3.96.85-3.113C451.976,492.051,458.429,491.3,459.13,486.532Z" transform="translate(956.929 5918.852)" fill="#072c5e" fill-rule="evenodd"/>
        <path id="Path_3866" data-name="Path 3866" d="M468.267,427.936c1.122-1.249,2.78-5.814,3.684-9.257.465-1.764.912-3.271-.8-3.625a30.6,30.6,0,0,1-4.255-.642,4.771,4.771,0,0,1-2.144-1.077c-1.162-1.569-1.332-4.13-.634-6.8h-8.264c.7,2.669.6,5.484-.379,6.749-.992,1.3-5.05,1.579-5.331,1.619-2.465.356-.886,7.828,1.263,11.531C453.233,429.579,464.5,427.936,468.267,427.936Z" transform="translate(955.876 5876.066)" fill="#ffdba7" fill-rule="evenodd"/>
        <path id="Path_3867" data-name="Path 3867" d="M453.427,406.536a13.9,13.9,0,0,1,.447,3.044c1.955,1.667,5.822,3.209,8.7,3.964-1.45-1.306-1.559-4.4-.879-7.008Z" transform="translate(958.302 5876.066)" fill="#f0c17d" fill-rule="evenodd"/>
        <path id="Path_3868" data-name="Path 3868" d="M466.621,403.3c.7-1.044,1.53-.328,1.272.945-.209,1.041-.689,2.224-.955,3.409-.181.807-.471,1.383-1.176,1.24a9.96,9.96,0,0,1-1.258,2.79,11.543,11.543,0,0,1-2.351,2.824c-1.282,1.14-2.127,1.724-2.953,1.724-.8,0-1.584-.553-3.025-1.807a12.2,12.2,0,0,1-1.962-2.272,10.18,10.18,0,0,1-1.529-3.251c-.657.1-.936-.465-1.111-1.249-.266-1.185-.747-2.368-.956-3.409-.23-1.137.405-1.831,1.045-1.222a18.53,18.53,0,0,1,.236-3.538c1.027-6.7,13.494-5.733,14.6.6A13.582,13.582,0,0,1,466.621,403.3Z" transform="translate(956.773 5869.834)" fill="#ffdba7" fill-rule="evenodd"/>
        <path id="Path_3869" data-name="Path 3869" d="M471.7,431.119l-1.708,10.8c.378.9,1.022,2.9,1.722,4.918,1.61,3.553,3.934,8.607,3.833,10.646-.12,2.4-2.643,23.245-3.4,27.56H450.3c-.758-4.314-3.281-25.162-3.4-27.56-.1-2.02,2.181-7.007,3.79-10.555.709-2.052,1.368-4.1,1.751-5.008a152.9,152.9,0,0,1-2.466-17.35c-.152-1.048-1.372-9.165-2.126-10.752a3.542,3.542,0,0,1,2.7-1.541c1.573-.232,3.122-.6,4.686-.8l2.637.89,3.366,2.717,3.2-2.776,2.781-.858c.925.428,3.354.568,4.7.829a3.642,3.642,0,0,1,2.686,1.524,59.051,59.051,0,0,0-2.035,12.023l-.711,4.233Z" transform="translate(954.808 5878.694)" fill="#50d8e8" fill-rule="evenodd"/>
        <path id="Path_3870" data-name="Path 3870" d="M458.292,402.465c3.36,0,6.1-2.321,6.1-5.163s-2.741-5.163-6.1-5.163-6.1,2.318-6.1,5.163S454.933,402.465,458.292,402.465Z" transform="translate(957.642 5868.366)" fill="#632404" fill-rule="evenodd"/>
        <path id="Path_3871" data-name="Path 3871" d="M454.28,399.543c-1.553,1.546-2.661,4.384-2.206,8.07-3.522-9.808,2.777-13.953,6.832-13.189,4.057-.764,10.356,3.381,6.832,13.189C466.129,399.692,455.2,403.625,454.28,399.543Z" transform="translate(957.027 5869.541)" fill="#752a05" fill-rule="evenodd"/>
        <path id="Path_3872" data-name="Path 3872" d="M456.417,486.565l-.448,2.976,4.417,4.362,2.034.031,2.268-3.96-.85-3.113C463.571,492.084,457.119,491.334,456.417,486.565Z" transform="translate(959.662 5918.87)" fill="#072c5e" fill-rule="evenodd"/>
        <path id="Path_3873" data-name="Path 3873" d="M460.485,425.648l-7.794-13.869c-1.371.213-2.875.287-3.008.305.313,2.477,1.134,11.9-1.326,16.348l3.254,14.05h8.884v-16.85Z" transform="translate(955.591 5878.87)" fill="#50d8e8" fill-rule="evenodd"/>
        <path id="Path_3874" data-name="Path 3874" d="M459.464,415.68l-4.557-4.974a6.647,6.647,0,0,1-4.62,1.776,10.736,10.736,0,0,0,5.685.992Z" transform="translate(956.623 5878.296)" fill="#f2f6f7" fill-rule="evenodd"/>
        <path id="Path_3875" data-name="Path 3875" d="M456.27,415.68l4.554-4.974a6.655,6.655,0,0,0,4.62,1.776,10.731,10.731,0,0,1-5.685.992Z" transform="translate(959.823 5878.296)" fill="#f2f6f7" fill-rule="evenodd"/>
        <path id="Path_3876" data-name="Path 3876" d="M465.638,412.5c.863.078,1.952,3.266,2.488,5.932.674,3.355,1.914,10.675,2.74,15.5.623,3.645-.981,6.078-2.041,6.259a5.117,5.117,0,0,1-4.617-3.212c-.766-2.683-1.239-5.843-2.006-8.976C462.273,423.857,463.429,413.725,465.638,412.5Z" transform="translate(962.995 5879.257)" fill="#33bfcf" fill-rule="evenodd"/>
        <path id="Path_3877" data-name="Path 3877" d="M464.056,427.171c3.508-.652,3.077-1.22,5.978.716-.135,4.744.073,5.242-4.244,7.988l-1.734-2.1S463.965,427.171,464.056,427.171Z" transform="translate(963.966 5886.775)" fill="#f6d3a0" fill-rule="evenodd"/>
        <path id="Path_3878" data-name="Path 3878" d="M443.478,427.94c.009-3.065,2.959-3.192,6.2-2.777,5.676.732,13.292,4.29,15.072,4.91l-1.117,2.691c-4.374-.028-14.557.456-18.094-1.523A3.612,3.612,0,0,1,443.478,427.94Z" transform="translate(952.981 5885.937)" fill="#ffdba7" fill-rule="evenodd"/>
        <path id="Path_3879" data-name="Path 3879" d="M473.453,422.732H450.408l1.385,16.1h20.275Z" transform="translate(956.688 5884.729)" fill="#05345e" fill-rule="evenodd"/>
        <path id="Path_3880" data-name="Path 3880" d="M465.126,428.528l-1.862-.091c-.5-.023-.952.15-1.022.5-.149.767.557.907,1.1.984.506.072,1.169.172,1.787.244a8.8,8.8,0,0,1,1.616.223c.067.028-.24-.017-.312-.021a13.866,13.866,0,0,1-4.3-.718c-.441-.147-.775-.289-1.084-.361-.855-.2-1.513.157-.978,1.122-.568.734-.1,1.354.755,1.538-.069.351.164.56.915.973,1.183.652,2.428,1.088,3.679,1.628,1.854.8,2.534,1.3,3.176-.287.942-.206,1.251-.669.947-1.658a1.345,1.345,0,0,0,.56-1.958c.427-1.483-.141-2.173-.864-2.5a2.988,2.988,0,0,0-2.233.061A8.446,8.446,0,0,1,465.126,428.528Z" transform="translate(961.721 5887.528)" fill="#ffdba7" fill-rule="evenodd"/>
      </g>
      <path id="Icon_awesome-map-marker-alt" data-name="Icon awesome-map-marker-alt" d="M3.376,9.832C.529,5.7,0,5.28,0,3.763a3.763,3.763,0,0,1,7.526,0C7.526,5.28,7,5.7,4.15,9.832A.471.471,0,0,1,3.376,9.832Zm.387-4.5A1.568,1.568,0,1,0,2.2,3.763,1.568,1.568,0,0,0,3.763,5.331Z" transform="translate(187.058 310.483)" fill="#fff"/>
    </g>
    <g id="Group_5583" data-name="Group 5583" transform="translate(-63.622 257.185)">
      <path id="Path_3881" data-name="Path 3881" d="M342.356,83.8l16.676-9.558v4.695L342.356,88.5Z" transform="translate(28.753 19.4)" fill="#052145" fill-rule="evenodd"/>
      <path id="Path_3882" data-name="Path 3882" d="M306.354,51.666a123.071,123.071,0,0,1-12.771,4.664l.814,3.135c3.766-.676,13.393-2.01,18.427-3.342,1.564-.414,3.518-3.047,2.158-4.5C312.93,49.427,310.731,49.653,306.354,51.666Z" transform="translate(12.203 11.195)" fill="#f0c17d" fill-rule="evenodd"/>
      <path id="Path_3883" data-name="Path 3883" d="M309.977,83.782l-4.448.107a1.057,1.057,0,0,0-.948,1.116c2.084,12.025-4.406,9.8-7.029,10.158a3.12,3.12,0,0,0-3.2,2.58c-.545,2.967,4.041,2.977,6.267,2.9,3.213-.113,4.693-1.6,6.279-.4.429.323,3.583.348,4.26.189,1.551-.366,1.866-2.853,2.021-4.479.221-2.3-.718-3.376-1.815-5.79l-.517-5.282C310.8,84.358,310.5,83.751,309.977,83.782Z" transform="translate(12.449 22.636)" fill="#131314" fill-rule="evenodd"/>
      <g id="Group_5571" data-name="Group 5571" transform="translate(259.512 112.186)">
        <path id="Path_3884" data-name="Path 3884" d="M278.062,126.149a19.031,19.031,0,1,0-19.029-19.031A19.069,19.069,0,0,0,278.062,126.149Z" transform="translate(-259.033 -88.088)" fill="#121212" fill-rule="evenodd"/>
        <path id="Path_3885" data-name="Path 3885" d="M276.227,117.07a11.787,11.787,0,1,0-11.786-11.786A11.809,11.809,0,0,0,276.227,117.07Z" transform="translate(-257.198 -86.253)" fill="#e0e0e0" fill-rule="evenodd"/>
        <path id="Path_3886" data-name="Path 3886" d="M275.7,114.454a9.7,9.7,0,1,0-9.7-9.7A9.718,9.718,0,0,0,275.7,114.454Z" transform="translate(-256.669 -85.724)" fill="#777778" fill-rule="evenodd"/>
      </g>
      <path id="Path_3887" data-name="Path 3887" d="M297.863,54.215c-.548.731-2.1,7.163-2.683,7.878-8.666,10.622-20.713,19.889-18.735,33.649,10.332,3.7,12.647,7.265,17.181,16.152,3.585,7.029,6.6,9.663,10.565,10.646l33.907.123c9.517-26.609,5.886-16.835,46.656-12.156C387.58,96.53,364.224,90.4,361.96,83.688l-37.076.055c-.26,1.871,5.115,4.412,8.607,8.215,3.9,4.247-9.029,4.547-9.712,18.3l-21-.613a24.535,24.535,0,0,1-8.682-19.394c.384-8.652,6.693-17.8,7.863-25.613C303.277,55.818,301.9,54.9,297.863,54.215Z" transform="translate(6.314 12.603)" fill="#50d8e8" fill-rule="evenodd"/>
      <rect id="Rectangle_4137" data-name="Rectangle 4137" width="40.754" height="13.389" rx="2.869" transform="translate(328.738 85.235)" fill="#052145"/>
      <path id="Path_3888" data-name="Path 3888" d="M278.541,84.513a23.833,23.833,0,0,1,22.352,32.068c-18.626-5.652-16.012-14.351-43.271-19.647A23.815,23.815,0,0,1,278.541,84.513Z" transform="translate(0 22.884)" fill="#33bfcf" fill-rule="evenodd"/>
      <g id="Group_5572" data-name="Group 5572" transform="translate(350.473 112.185)">
        <circle id="Ellipse_110" data-name="Ellipse 110" cx="19.031" cy="19.031" r="19.031" fill="#121212"/>
        <path id="Path_3889" data-name="Path 3889" d="M344.143,117.07a11.787,11.787,0,1,0-11.786-11.786A11.809,11.809,0,0,0,344.143,117.07Z" transform="translate(-325.113 -86.253)" fill="#e0e0e0" fill-rule="evenodd"/>
        <path id="Path_3890" data-name="Path 3890" d="M343.615,114.454a9.7,9.7,0,1,0-9.7-9.7A9.717,9.717,0,0,0,343.615,114.454Z" transform="translate(-324.584 -85.724)" fill="#777778" fill-rule="evenodd"/>
      </g>
      <path id="Path_3891" data-name="Path 3891" d="M318.012,102.765a2.9,2.9,0,1,1,3.468-4.643l7.133,5.333c.035.027.071.054.1.082l.391.287a8.966,8.966,0,0,0,1.6,1.071,14.521,14.521,0,0,0,2.865.1h.216l20.843-.1a2.889,2.889,0,0,1,.021,5.778l-20.84.1H333.6a14.941,14.941,0,0,1-4.564-.348,10.419,10.419,0,0,1-3.348-1.933l-.391-.287c-.051-.033-.1-.067-.149-.1Z" transform="translate(20.097 27.306)" fill="#33bfcf" fill-rule="evenodd"/>
      <path id="Path_3892" data-name="Path 3892" d="M296,95.786h22.952a1.6,1.6,0,0,1,1.6,1.6h0a1.6,1.6,0,0,1-1.6,1.6H296a1.6,1.6,0,0,1-1.6-1.6h0A1.6,1.6,0,0,1,296,95.786Z" transform="translate(12.481 26.71)" fill="#052145" fill-rule="evenodd"/>
      <path id="Path_3893" data-name="Path 3893" d="M285.81,51.005h6.373a5.664,5.664,0,0,1,5.647,5.648v3.008a5.663,5.663,0,0,1-5.647,5.647H285.81c-3.106,0-3.328-2.541-3.328-5.647V56.653C282.482,53.546,282.7,51.005,285.81,51.005Z" transform="translate(8.436 11.514)" fill="#50d8e8" fill-rule="evenodd"/>
      <path id="Path_3894" data-name="Path 3894" d="M285.81,51.005l2.81,1.35-.244,11.786-2.566,1.167c-3.106,0-3.328-2.541-3.328-5.647V56.653C282.482,53.546,282.7,51.005,285.81,51.005Z" transform="translate(8.436 11.514)" fill="#e0e0e0" fill-rule="evenodd"/>
      <path id="Path_3895" data-name="Path 3895" d="M285.095,51.005h3.425v14.3h-3.425a5,5,0,0,1-.5-.024V51.029A5,5,0,0,1,285.095,51.005Z" transform="translate(9.152 11.514)" fill="#33bfcf" fill-rule="evenodd"/>
      <path id="Path_3896" data-name="Path 3896" d="M294.471,55.077l15.764,4.409a2.977,2.977,0,0,1,2.034,2.73h0a1.56,1.56,0,0,1-2.034,1.634l-15.764-4.409a2.978,2.978,0,0,1-2.033-2.73h0A1.56,1.56,0,0,1,294.471,55.077Z" transform="translate(11.814 12.872)" fill="#052145" fill-rule="evenodd"/>
      <path id="Path_3897" data-name="Path 3897" d="M300.391,70.947l1.145,27.631,9.069-.434L309.572,83l-.837-15.9C302.58,64.955,300.092,67.519,300.391,70.947Z" transform="translate(14.505 16.709)" fill="#072c5e" fill-rule="evenodd"/>
      <path id="Path_3898" data-name="Path 3898" d="M320.364,76.989c4.516.056,15.252-1.821,18.881-4.7l-4.806-12.3-15.192,4.025L304.1,68.3c-4.753,1.524-3.575,4.753-2.344,7.228l2.531,2.9A93.977,93.977,0,0,1,320.364,76.989Z" transform="translate(14.605 14.561)" fill="#072c5e" fill-rule="evenodd"/>
      <path id="Path_3899" data-name="Path 3899" d="M342.968,60.224l-9.653-4.874-6.442,5.357L325.7,62.791l-2.329,2.251-18.445,4.3c-1.483.475-2.159.478-3.22,1.753-2.166,2.6-.169,5.13,3.56,8.959,5.344-.043,16.3.048,20.871-.512C337.553,78.144,347.159,74.5,342.968,60.224Z" transform="translate(14.657 12.988)" fill="#0f4283" fill-rule="evenodd"/>
      <path id="Path_3900" data-name="Path 3900" d="M302.722,23.89c1.134,4.42,4.867,3.739,9.058,2.063l-.52-2.581-1.452-1.061-1.959-.082Z" transform="translate(15.304 1.749)" fill="#1b9cab" fill-rule="evenodd"/>
      <g id="Group_5573" data-name="Group 5573" transform="translate(323.051 17.745)">
        <path id="Path_3901" data-name="Path 3901" d="M319.821,28l2.48,4.883-4.674,6.74-1.592-.8c-2.838-3.939-1.414-3.883-4.475-8.763l5.485-5.616C318.357,27.452,318.616,25.953,319.821,28Z" transform="translate(-304.748 -15.242)" fill="#f0c17d" fill-rule="evenodd"/>
        <path id="Path_3902" data-name="Path 3902" d="M308.983,32.76a.813.813,0,0,1-.024,1.014.678.678,0,0,0,.668.542c1.215-.538,1.034.435.939.479-.875.414-.643.706-.384.94.276-.029.426.035.5.153.222.367-.228,1.4.575,1.894.966.589,4.084-2.436,5.538-3.837,1.2-1.159.418-1.99-.234-3.481.849-.155,1.4-.6,1.027-1.886a19.269,19.269,0,0,0,.676-5.095s-4.842-5.921-5.021-5.909-5.237,2.4-5.237,2.4c-.309,1.221-1.043,2.5-1.326,3.893a11.189,11.189,0,0,0-.063,3.793,1.786,1.786,0,0,0,.483,1.3,1.507,1.507,0,0,1,.347.442c.425,1.3-.467,2.835-.284,3.173A1.535,1.535,0,0,0,308.983,32.76Z" transform="translate(-306.474 -17.575)" fill="#ffdba7" fill-rule="evenodd"/>
        <path id="Path_3903" data-name="Path 3903" d="M312.835,27.065a16.475,16.475,0,0,1,1.189,2.253c.429-.834.431-1.374.784-2.061.518-.9,1.24-1.832,2.013-1.767.887.074.927,1.658.595,2.861a1.881,1.881,0,0,0,.208,1.57c.54.746,1.271.1,2.281.7a24.781,24.781,0,0,1,2.428,1.417,8.06,8.06,0,0,1-.225-4.1,8.212,8.212,0,0,0,.224-2.885,7.874,7.874,0,0,0-7.1-7.342c-4.381-.4-8.374,2.68-8.585,5.995a8.841,8.841,0,0,1,3.376-.092,5.169,5.169,0,0,1,2.549,4.074Z" transform="translate(-306.417 -17.542)" fill="#632404" fill-rule="evenodd"/>
      </g>
      <path id="Path_3904" data-name="Path 3904" d="M322.546,25.727a11.151,11.151,0,0,0-.162-2.052,8.105,8.105,0,0,0-7.933-6.592c-4.564.253-6.765,2.506-7.668,5.254a9.764,9.764,0,0,0-.446,2.018c2.945.212,5.724.457,8.7.625C317.654,25.13,320.188,24.81,322.546,25.727Z" transform="translate(16.531)" fill="#50d8e8" fill-rule="evenodd"/>
      <g id="Group_5574" data-name="Group 5574" transform="translate(322.094 41.104)">
        <path id="Path_3905" data-name="Path 3905" d="M317.269,50.127c-1.826,3.522-5.191,9.825-8.712,10.975-1.138.218-3.955-2.069-2.277-5.767.439-1.288,1.367-1.665,3.733-10.356,2.142-7.866,3.962-11.734,9.178-9.181C325.442,39,319.036,47.314,317.269,50.127Z" transform="translate(-305.759 -35.016)" fill="#f0c17d" fill-rule="evenodd"/>
        <path id="Path_3906" data-name="Path 3906" d="M316.589,50.285c-2.045-2.431-5.619-2.695-8.3-2.188.252-.884.536-1.914.865-3.118,2.142-7.865,3.962-11.734,9.178-9.181C324.583,39,318.558,47.489,316.589,50.285Z" transform="translate(-304.901 -35.016)" fill="#50d8e8" fill-rule="evenodd"/>
      </g>
      <path id="Path_3907" data-name="Path 3907" d="M322.688,30.058a13.58,13.58,0,0,0,2.909.454c4.394.571,5.742,1.52,7.406,3.093,2.9,2.743,3.532,13.542,4.61,24.314.3,2.991,1.834,8.3,2.259,11.118-1.654,2.719-15.761,2.652-17.32,1.157-3.6-6.527-6.45-10.127-8.759-16.427a48.876,48.876,0,0,1-2.689-10c-.409-3.218-.834-4.633,1.12-7.036a11.287,11.287,0,0,0,1.97-3.62C316.414,40.5,321.652,29.634,322.688,30.058Z" transform="translate(18.031 4.402)" fill="#50d8e8" fill-rule="evenodd"/>
      <path id="Path_3908" data-name="Path 3908" d="M322.552,69.418c-3.6-6.528-6.45-10.128-8.759-16.427a48.876,48.876,0,0,1-2.689-10c-.409-3.218-.834-4.633,1.12-7.036a11.287,11.287,0,0,0,1.97-3.62,8.266,8.266,0,0,0,.374,1.011c-.005,6.8.26,12.862,2.558,18.183,5.139,11.9,8.083,15,9.867,18.828C325.5,70.265,323.44,70.179,322.552,69.418Z" transform="translate(18.031 5.177)" fill="#33bfcf" fill-rule="evenodd"/>
      <g id="Group_5575" data-name="Group 5575" transform="translate(337.807 35.922)">
        <path id="Path_3909" data-name="Path 3909" d="M328.176,46.462c-.79,2.34-2.424,8.42-3.8,10.975-.086.157-6.77,4.953-6.847-2.483-.308-.7,1.382-4.408,2.5-13.6.927-7.59,5.544-9.4,7.97-7.708C330.249,35.207,330.45,39.724,328.176,46.462Z" transform="translate(-317.491 -30.498)" fill="#ffdba7" fill-rule="evenodd"/>
        <path id="Path_3910" data-name="Path 3910" d="M328.205,47.222c-2.271-2.353-6.926-2.763-9.422-2.022.125-.936.264-2.026.419-3.3,1.018-8.321,2.641-12.374,7.958-10.149C333.551,34.562,329.253,44.121,328.205,47.222Z" transform="translate(-317.053 -31.147)" fill="#33bfcf" fill-rule="evenodd"/>
      </g>
      <g id="Group_5576" data-name="Group 5576" transform="translate(311.648 56.72)">
        <path id="Path_3911" data-name="Path 3911" d="M327.38,53.807c-6.1,4.144-12.962,5.286-19.688,8.69-1.12-2.08-1.205-2.519-2.077-3.371,0,0,12.133-7.816,17.067-11.722C326.318,44.525,331.479,50.911,327.38,53.807Z" transform="translate(-295.363 -46.675)" fill="#ffdba7" fill-rule="evenodd"/>
        <path id="Path_3912" data-name="Path 3912" d="M302,57.57a3.164,3.164,0,0,0-1.688,1.116c-.565.548-1.48,1.248-1.568,1.341a20.314,20.314,0,0,0-.784,1.891c.1,1.358-.078,2.063.6,2.117.415.032.612-.588.891-1.915l.343-.623a2.984,2.984,0,0,0-.185,1.686A1.054,1.054,0,0,0,301.07,64c.222-.07.122-.245.1-.494l-.056-.664c.554-.516,1.029-1,1.551-1.547A5.675,5.675,0,0,0,301.519,63c-.145.553.317.755.775.954.644.277.829-.829,1.978-1.87a3.505,3.505,0,0,0-.95,1.53c-.059.534.581.52.98.358a27.183,27.183,0,0,0,5-2.74c.583-.429.928-.908,1.335-1.142,1.025-.512,2.519-1.446,3.577-1.886l-2.162-4.113-4.156,2.088A51.926,51.926,0,0,0,302,57.57Z" transform="translate(-297.96 -44.158)" fill="#ffdba7" fill-rule="evenodd"/>
      </g>
      <path id="Path_3913" data-name="Path 3913" d="M307.611,22.329c-2.219.6-2.929.9-4.9,1.551,3.184,2.037,7.582.179,10.972-.849C312.418,22.513,309.206,21.885,307.611,22.329Z" transform="translate(15.301 1.732)" fill="#33bfcf" fill-rule="evenodd"/>
      <g id="Group_5578" data-name="Group 5578" transform="translate(333.967 40.239)">
        <path id="Path_3914" data-name="Path 3914" d="M314.971,34.37a62.043,62.043,0,0,0,.793,7.357c.159.9.188,1,1.153.822.153-.028.326-.059.513-.09l.027.4c-.192.032-.358.062-.5.088-1.388.249-1.434.257-1.61-1.129a55.356,55.356,0,0,1-.718-7.381Z" transform="translate(-314.624 -34.37)" fill="#33bfcf" fill-rule="evenodd"/>
        <g id="Group_5577" data-name="Group 5577" transform="translate(0.92 2.194)">
          <path id="Path_3915" data-name="Path 3915" d="M316.128,39.577a.308.308,0,0,1,.374.307.452.452,0,0,1-.352.443.308.308,0,0,1-.375-.307A.451.451,0,0,1,316.128,39.577Z" transform="translate(-315.154 -34.799)" fill="#33bfcf" fill-rule="evenodd"/>
          <path id="Path_3916" data-name="Path 3916" d="M315.882,37.773a.308.308,0,0,1,.374.307.451.451,0,0,1-.352.443.31.31,0,0,1-.375-.307A.452.452,0,0,1,315.882,37.773Z" transform="translate(-315.237 -35.411)" fill="#33bfcf" fill-rule="evenodd"/>
          <path id="Path_3917" data-name="Path 3917" d="M315.663,36.015a.307.307,0,0,1,.375.305.454.454,0,0,1-.354.443.306.306,0,0,1-.374-.307A.448.448,0,0,1,315.663,36.015Z" transform="translate(-315.311 -36.008)" fill="#33bfcf" fill-rule="evenodd"/>
        </g>
      </g>
      <path id="Path_3918" data-name="Path 3918" d="M320.46,29.388a13.671,13.671,0,0,1-5.408,6.525.224.224,0,0,0,.078.131,9.6,9.6,0,0,1,3.118,2.944c1.29-2.506,3.474-5.609,3.149-8.647Z" transform="translate(19.488 4.178)" fill="#33bfcf" fill-rule="evenodd"/>
      <path id="Path_3919" data-name="Path 3919" d="M313.509,32.276a3.691,3.691,0,0,0,2.314,2.665c.017.008.094.043.021.1a4.9,4.9,0,0,0-1.653,3.271A11.556,11.556,0,0,1,312.8,33.78Z" transform="translate(18.724 5.158)" fill="#33bfcf" fill-rule="evenodd"/>
      <path id="Path_3920" data-name="Path 3920" d="M312.636,83.661l-4.448.107a1.057,1.057,0,0,0-.948,1.116c2.084,12.026-4.406,9.8-7.027,10.158a3.12,3.12,0,0,0-3.2,2.58c-.545,2.967,4.042,2.977,6.267,2.9,3.213-.113,4.694-1.6,6.279-.4.43.323,3.583.348,4.26.189,1.551-.366,1.866-2.853,2.022-4.479.22-2.3-.718-3.376-1.815-5.79l-.517-5.282C313.457,84.237,313.156,83.63,312.636,83.661Z" transform="translate(13.351 22.595)" fill="#2b2c2e" fill-rule="evenodd"/>
      <path id="Path_3921" data-name="Path 3921" d="M300.814,71.37,305.2,98.758l9.069-.434L313.153,79.13l-4-11.607C303,65.378,300.515,67.942,300.814,71.37Z" transform="translate(14.649 16.852)" fill="#0f4283" fill-rule="evenodd"/>
      <path id="Path_3922" data-name="Path 3922" d="M354.094,85.08a23.834,23.834,0,0,0-30.8,24.072c19.466.079,19.526-9,47.137-6.044A23.812,23.812,0,0,0,354.094,85.08Z" transform="translate(22.273 22.717)" fill="#33bfcf" fill-rule="evenodd"/>
      <g id="Group_5582" data-name="Group 5582" transform="translate(366.412 63.451)">
        <g id="Group_5579" data-name="Group 5579">
          <rect id="Rectangle_4138" data-name="Rectangle 4138" width="35.492" height="30.112" transform="translate(0.875 0.473)" fill="#d8bd76"/>
          <rect id="Rectangle_4139" data-name="Rectangle 4139" width="35.551" height="6.64" transform="translate(0.875 0.472)" fill="#c4aa68"/>
          <rect id="Rectangle_4140" data-name="Rectangle 4140" width="37.244" height="5.334" fill="#e7d691"/>
        </g>
        <g id="Group_5581" data-name="Group 5581" transform="translate(22.235 7.795)">
          <rect id="Rectangle_4141" data-name="Rectangle 4141" width="12.089" height="5.484" fill="#dfe9f2"/>
          <g id="Group_5580" data-name="Group 5580" transform="translate(0.884 0.702)">
            <rect id="Rectangle_4142" data-name="Rectangle 4142" width="1.284" height="4.079" fill="#818286"/>
            <rect id="Rectangle_4143" data-name="Rectangle 4143" width="1.286" height="4.079" transform="translate(2.293)" fill="#818286"/>
            <rect id="Rectangle_4144" data-name="Rectangle 4144" width="1.284" height="4.079" transform="translate(4.663)" fill="#818286"/>
            <rect id="Rectangle_4145" data-name="Rectangle 4145" width="1.286" height="4.079" transform="translate(6.834)" fill="#818286"/>
            <rect id="Rectangle_4146" data-name="Rectangle 4146" width="1.284" height="4.079" transform="translate(9.037)" fill="#818286"/>
          </g>
        </g>
      </g>
      <rect id="Rectangle_4147" data-name="Rectangle 4147" width="39.178" height="4.695" transform="translate(365.444 93.643)" fill="#052145"/>
    </g>
  </g>
</svg>
