<svg xmlns="http://www.w3.org/2000/svg" width="359.146" height="179.215" viewBox="0 0 359.146 179.215">
  <g id="onboarding_2" data-name="onboarding 2" transform="translate(-8 -234)">
    <g id="Group_5566" data-name="Group 5566" transform="translate(0.211 9.215)">
      <g id="undraw_Eiffel_tower_3gw8" transform="translate(7.789 125.498)">
        <path id="Path_554" data-name="Path 554" d="M437.042,448.415,400.936,465.5,432.89,441.61a180.312,180.312,0,0,0-17.447-22.958L258.862,457.57,400.3,403.617a180.286,180.286,0,0,0-20.539-15.655L141.168,426.393a178.811,178.811,0,0,0-39.162,111.59H461.153a178.714,178.714,0,0,0-24.11-89.567Z" transform="translate(-102.006 -259.48)" fill="#50d8e8" opacity="0.1"/>
        <path id="Path_555" data-name="Path 555" d="M433.947,325.1A179.7,179.7,0,0,0,217.29,371.672C273.7,359.312,371.9,337.918,433.947,325.1Z" transform="translate(-175.72 -207.712)" fill="#50d8e8" opacity="0.1"/>
        <path id="Path_556" data-name="Path 556" d="M721.551,729.017q-7.435-1.26-14.3-2.164l1.809-3.508c-.61-.212-3.291,1.8-3.291,1.8l2.375-10.184c-3.069.37-4.629,10.768-4.629,10.768l-3.429-3.516,1.66,3.952a316.55,316.55,0,0,0-36.283-2.283l1.549-3c-.61-.212-3.291,1.8-3.291,1.8l2.375-10.184c-3.069.37-4.629,10.768-4.629,10.768l-3.428-3.516,1.758,4.186a203.81,203.81,0,0,0-20.858,1.417c1.566-4.678,6.888-9.126,6.888-9.126-4.064,1.209-6.2,3.234-7.309,5.122A82.021,82.021,0,0,1,643.257,693s-8.4,18.279-7.328,30.548l.128,2.179a83.718,83.718,0,0,0-10.7,2.08Z" transform="translate(-436.64 -454.526)" fill="#50d8e8"/>
        <path id="Path_557" data-name="Path 557" d="M413.394,727.2q-7.435-1.26-14.3-2.164l1.809-3.508c-.61-.212-3.291,1.8-3.291,1.8l2.375-10.184c-3.069.37-4.629,10.768-4.629,10.768l-3.428-3.516,1.66,3.952a316.578,316.578,0,0,0-36.283-2.283l1.549-3c-.61-.212-3.291,1.8-3.291,1.8l2.375-10.184c-3.069.37-4.629,10.768-4.629,10.768l-3.428-3.516,1.758,4.186a203.809,203.809,0,0,0-20.858,1.417c1.566-4.678,6.888-9.127,6.888-9.127-4.064,1.209-6.2,3.234-7.309,5.122a82.018,82.018,0,0,1,4.741-28.339s-8.4,18.279-7.328,30.548l.128,2.179A83.714,83.714,0,0,0,317.2,726Z" transform="translate(-239.602 -453.366)" fill="#50d8e8"/>
        <path id="Path_561" data-name="Path 561" d="M407.607,627.95l11.046-15.665-11.062,17.377-.017,1.79q-1.171-.017-2.318-.09l1.04-22.99-.011-.178.02-.034.1-2.172L395.07,588.725l11.356,15.635.031.46.786-17.37L397.519,569.6l9.821,14.8.692-36.006,0-.12v.118l.043,28.391,9.474-11.322-9.5,13.767-.143,15.549,8.819-14.983-8.838,17.269-.08,8.646,12.8-20.86-12.834,23.876Z" transform="translate(-289.393 -361.983)" fill="#50d8e8"/>
        <path id="Path_563" data-name="Path 563" d="M865.912,765.7c-4.52,2.665-6.3,8.022-6.3,8.022s5.549,1.036,10.069-1.629,6.3-8.022,6.3-8.022S870.432,763.036,865.912,765.7Z" transform="translate(-586.425 -499.841)" fill="#50d8e8"/>
        <path id="Path_564" data-name="Path 564" d="M867.079,755.593c-2.531,4.6-7.834,6.532-7.834,6.532s-1.2-5.516,1.332-10.112,7.834-6.532,7.834-6.532S869.61,751,867.079,755.593Z" transform="translate(-586.009 -488.08)" fill="#50d8e8"/>
      </g>
    </g>
    <g id="Group_5569" data-name="Group 5569">
      <g id="Group_5568" data-name="Group 5568" transform="translate(-1227.334 -6000.071)">
        <path id="Path_3862" data-name="Path 3862" d="M448.891,415.277l-5.4,18.754c-.53,1.84,1.372,4.183,2.262,4.506.781.282,3.134-1.143,3.989-2.93l5.627-11.749c2.166-.982,3.553-6.348,4.118-7.287l-4.638-4.8C452.287,412.041,449.8,412.116,448.891,415.277Z" transform="translate(952.937 5878.868)" fill="#33bfcf" fill-rule="evenodd"/>
        <path id="Path_3863" data-name="Path 3863" d="M457.191,478.294l.071,2.936c.2,5.634-.7,5.111-.573,10.443.178,7.2.849,11.011.35,18.185-.049.706-.092,1.942-.206,3.079l0-.008c-.3,2.034-.6,4.06-.912,6.093l4.417,4.362,2.034.031,2.27-3.96c-.674-2.955-1.656-5.435-2.006-7.631a29.26,29.26,0,0,1,.353-9.706c.961-5.644,2.534-8.256,2.843-12.072.356-4.36-.238-1.79-.64-8.861l.46-2.648h.006a196.663,196.663,0,0,0,3.788-23.44c.5-4.535-.009-7.777.084-9.669.134-2.674-3.616-9.1-4.646-13.893l-8.167-.186-.442,19.6,1.024.023C457.251,457.537,457.031,471.717,457.191,478.294Z" transform="translate(959.634 5889.338)" fill="#ffdba7" fill-rule="evenodd"/>
        <path id="Path_3864" data-name="Path 3864" d="M460.056,478.294l-.071,2.936c-.2,5.634.706,5.111.574,10.443-.178,7.2-.849,11.011-.35,18.185.054.794.1,2.25.252,3.49.138,1.15.433,2.68.43,3.232l-1.314,2.907c-4.76,1.573-5.067,2.4-6.225-2.241a27.384,27.384,0,0,1,.95-3.94,15.088,15.088,0,0,0,.313-1.483,29.26,29.26,0,0,0-.352-9.706c-.962-5.644-2.534-8.256-2.844-12.072-.353-4.36.238-1.79.64-8.861l-.46-2.648h0a196.663,196.663,0,0,1-3.788-23.44c-.5-4.535.009-7.777-.086-9.669-.134-2.674,3.616-9.1,4.646-13.893l8.168-.186.442,19.6-1.025.023C460,457.537,460.216,471.717,460.056,478.294Z" transform="translate(955.177 5889.338)" fill="#ffdba7" fill-rule="evenodd"/>
        <path id="Path_3865" data-name="Path 3865" d="M459.13,486.532l.448,2.976-4.417,4.362-2.034.031-2.268-3.96.85-3.113C451.976,492.051,458.429,491.3,459.13,486.532Z" transform="translate(956.929 5918.852)" fill="#072c5e" fill-rule="evenodd"/>
        <path id="Path_3866" data-name="Path 3866" d="M468.267,427.936c1.122-1.249,2.78-5.814,3.684-9.257.465-1.764.912-3.271-.8-3.625a30.6,30.6,0,0,1-4.255-.642,4.771,4.771,0,0,1-2.144-1.077c-1.162-1.569-1.332-4.13-.634-6.8h-8.264c.7,2.669.6,5.484-.379,6.749-.992,1.3-5.05,1.579-5.331,1.619-2.465.356-.886,7.828,1.263,11.531C453.233,429.579,464.5,427.936,468.267,427.936Z" transform="translate(955.876 5876.066)" fill="#ffdba7" fill-rule="evenodd"/>
        <path id="Path_3867" data-name="Path 3867" d="M453.427,406.536a13.9,13.9,0,0,1,.447,3.044c1.955,1.667,5.822,3.209,8.7,3.964-1.45-1.306-1.559-4.4-.879-7.008Z" transform="translate(958.302 5876.066)" fill="#f0c17d" fill-rule="evenodd"/>
        <path id="Path_3868" data-name="Path 3868" d="M466.621,403.3c.7-1.044,1.53-.328,1.272.945-.209,1.041-.689,2.224-.955,3.409-.181.807-.471,1.383-1.176,1.24a9.96,9.96,0,0,1-1.258,2.79,11.543,11.543,0,0,1-2.351,2.824c-1.282,1.14-2.127,1.724-2.953,1.724-.8,0-1.584-.553-3.025-1.807a12.2,12.2,0,0,1-1.962-2.272,10.18,10.18,0,0,1-1.529-3.251c-.657.1-.936-.465-1.111-1.249-.266-1.185-.747-2.368-.956-3.409-.23-1.137.405-1.831,1.045-1.222a18.53,18.53,0,0,1,.236-3.538c1.027-6.7,13.494-5.733,14.6.6A13.582,13.582,0,0,1,466.621,403.3Z" transform="translate(956.773 5869.834)" fill="#ffdba7" fill-rule="evenodd"/>
        <path id="Path_3869" data-name="Path 3869" d="M471.7,431.119l-1.708,10.8c.378.9,1.022,2.9,1.722,4.918,1.61,3.553,3.934,8.607,3.833,10.646-.12,2.4-2.643,23.245-3.4,27.56H450.3c-.758-4.314-3.281-25.162-3.4-27.56-.1-2.02,2.181-7.007,3.79-10.555.709-2.052,1.368-4.1,1.751-5.008a152.9,152.9,0,0,1-2.466-17.35c-.152-1.048-1.372-9.165-2.126-10.752a3.542,3.542,0,0,1,2.7-1.541c1.573-.232,3.122-.6,4.686-.8l2.637.89,3.366,2.717,3.2-2.776,2.781-.858c.925.428,3.354.568,4.7.829a3.642,3.642,0,0,1,2.686,1.524,59.051,59.051,0,0,0-2.035,12.023l-.711,4.233Z" transform="translate(954.808 5878.694)" fill="#50d8e8" fill-rule="evenodd"/>
        <path id="Path_3870" data-name="Path 3870" d="M458.292,402.465c3.36,0,6.1-2.321,6.1-5.163s-2.741-5.163-6.1-5.163-6.1,2.318-6.1,5.163S454.933,402.465,458.292,402.465Z" transform="translate(957.642 5868.366)" fill="#632404" fill-rule="evenodd"/>
        <path id="Path_3871" data-name="Path 3871" d="M454.28,399.543c-1.553,1.546-2.661,4.384-2.206,8.07-3.522-9.808,2.777-13.953,6.832-13.189,4.057-.764,10.356,3.381,6.832,13.189C466.129,399.692,455.2,403.625,454.28,399.543Z" transform="translate(957.027 5869.541)" fill="#752a05" fill-rule="evenodd"/>
        <path id="Path_3872" data-name="Path 3872" d="M456.417,486.565l-.448,2.976,4.417,4.362,2.034.031,2.268-3.96-.85-3.113C463.571,492.084,457.119,491.334,456.417,486.565Z" transform="translate(959.662 5918.87)" fill="#072c5e" fill-rule="evenodd"/>
        <path id="Path_3873" data-name="Path 3873" d="M460.485,425.648l-7.794-13.869c-1.371.213-2.875.287-3.008.305.313,2.477,1.134,11.9-1.326,16.348l3.254,14.05h8.884v-16.85Z" transform="translate(955.591 5878.87)" fill="#50d8e8" fill-rule="evenodd"/>
        <path id="Path_3874" data-name="Path 3874" d="M459.464,415.68l-4.557-4.974a6.647,6.647,0,0,1-4.62,1.776,10.736,10.736,0,0,0,5.685.992Z" transform="translate(956.623 5878.296)" fill="#f2f6f7" fill-rule="evenodd"/>
        <path id="Path_3875" data-name="Path 3875" d="M456.27,415.68l4.554-4.974a6.655,6.655,0,0,0,4.62,1.776,10.731,10.731,0,0,1-5.685.992Z" transform="translate(959.823 5878.296)" fill="#f2f6f7" fill-rule="evenodd"/>
        <path id="Path_3876" data-name="Path 3876" d="M465.638,412.5c.863.078,1.952,3.266,2.488,5.932.674,3.355,1.914,10.675,2.74,15.5.623,3.645-.981,6.078-2.041,6.259a5.117,5.117,0,0,1-4.617-3.212c-.766-2.683-1.239-5.843-2.006-8.976C462.273,423.857,463.429,413.725,465.638,412.5Z" transform="translate(962.995 5879.257)" fill="#33bfcf" fill-rule="evenodd"/>
        <path id="Path_3877" data-name="Path 3877" d="M464.056,427.171c3.508-.652,3.077-1.22,5.978.716-.135,4.744.073,5.242-4.244,7.988l-1.734-2.1S463.965,427.171,464.056,427.171Z" transform="translate(963.966 5886.775)" fill="#f6d3a0" fill-rule="evenodd"/>
        <path id="Path_3878" data-name="Path 3878" d="M443.478,427.94c.009-3.065,2.959-3.192,6.2-2.777,5.676.732,13.292,4.29,15.072,4.91l-1.117,2.691c-4.374-.028-14.557.456-18.094-1.523A3.612,3.612,0,0,1,443.478,427.94Z" transform="translate(952.981 5885.937)" fill="#ffdba7" fill-rule="evenodd"/>
        <path id="Path_3879" data-name="Path 3879" d="M473.453,422.732H450.408l1.385,16.1h20.275Z" transform="translate(956.688 5884.729)" fill="#05345e" fill-rule="evenodd"/>
        <path id="Path_3880" data-name="Path 3880" d="M465.126,428.528l-1.862-.091c-.5-.023-.952.15-1.022.5-.149.767.557.907,1.1.984.506.072,1.169.172,1.787.244a8.8,8.8,0,0,1,1.616.223c.067.028-.24-.017-.312-.021a13.866,13.866,0,0,1-4.3-.718c-.441-.147-.775-.289-1.084-.361-.855-.2-1.513.157-.978,1.122-.568.734-.1,1.354.755,1.538-.069.351.164.56.915.973,1.183.652,2.428,1.088,3.679,1.628,1.854.8,2.534,1.3,3.176-.287.942-.206,1.251-.669.947-1.658a1.345,1.345,0,0,0,.56-1.958c.427-1.483-.141-2.173-.864-2.5a2.988,2.988,0,0,0-2.233.061A8.446,8.446,0,0,1,465.126,428.528Z" transform="translate(961.721 5887.528)" fill="#ffdba7" fill-rule="evenodd"/>
      </g>
      <path id="Icon_awesome-map-marker-alt" data-name="Icon awesome-map-marker-alt" d="M3.376,9.832C.529,5.7,0,5.28,0,3.763a3.763,3.763,0,0,1,7.526,0C7.526,5.28,7,5.7,4.15,9.832A.471.471,0,0,1,3.376,9.832Zm.387-4.5A1.568,1.568,0,1,0,2.2,3.763,1.568,1.568,0,0,0,3.763,5.331Z" transform="translate(187.058 310.483)" fill="#fff"/>
    </g>
  </g>
</svg>
