<svg xmlns="http://www.w3.org/2000/svg" width="359.146" height="179.215" viewBox="0 0 359.146 179.215">
  <g id="onboarding_1" data-name="onboarding 1" transform="translate(-7.789 -234)">
    <g id="Group_540" data-name="Group 540" transform="translate(0 9.215)">
      <g id="undraw_Eiffel_tower_3gw8" transform="translate(7.789 125.498)">
        <path id="Path_554" data-name="Path 554" d="M437.042,448.415,400.936,465.5,432.89,441.61a180.312,180.312,0,0,0-17.447-22.958L258.862,457.57,400.3,403.617a180.286,180.286,0,0,0-20.539-15.655L141.168,426.393a178.811,178.811,0,0,0-39.162,111.59H461.153a178.714,178.714,0,0,0-24.11-89.567Z" transform="translate(-102.006 -259.48)" fill="#50d8e8" opacity="0.1"/>
        <path id="Path_555" data-name="Path 555" d="M433.947,325.1A179.7,179.7,0,0,0,217.29,371.672C273.7,359.312,371.9,337.918,433.947,325.1Z" transform="translate(-175.72 -207.712)" fill="#50d8e8" opacity="0.1"/>
        <path id="Path_556" data-name="Path 556" d="M721.551,729.017q-7.435-1.26-14.3-2.164l1.809-3.508c-.61-.212-3.291,1.8-3.291,1.8l2.375-10.184c-3.069.37-4.629,10.768-4.629,10.768l-3.429-3.516,1.66,3.952a316.55,316.55,0,0,0-36.283-2.283l1.549-3c-.61-.212-3.291,1.8-3.291,1.8l2.375-10.184c-3.069.37-4.629,10.768-4.629,10.768l-3.428-3.516,1.758,4.186a203.81,203.81,0,0,0-20.858,1.417c1.566-4.678,6.888-9.126,6.888-9.126-4.064,1.209-6.2,3.234-7.309,5.122A82.021,82.021,0,0,1,643.257,693s-8.4,18.279-7.328,30.548l.128,2.179a83.718,83.718,0,0,0-10.7,2.08Z" transform="translate(-436.64 -454.526)" fill="#50d8e8"/>
        <path id="Path_557" data-name="Path 557" d="M413.394,727.2q-7.435-1.26-14.3-2.164l1.809-3.508c-.61-.212-3.291,1.8-3.291,1.8l2.375-10.184c-3.069.37-4.629,10.768-4.629,10.768l-3.428-3.516,1.66,3.952a316.578,316.578,0,0,0-36.283-2.283l1.549-3c-.61-.212-3.291,1.8-3.291,1.8l2.375-10.184c-3.069.37-4.629,10.768-4.629,10.768l-3.428-3.516,1.758,4.186a203.809,203.809,0,0,0-20.858,1.417c1.566-4.678,6.888-9.127,6.888-9.127-4.064,1.209-6.2,3.234-7.309,5.122a82.018,82.018,0,0,1,4.741-28.339s-8.4,18.279-7.328,30.548l.128,2.179A83.714,83.714,0,0,0,317.2,726Z" transform="translate(-239.602 -453.366)" fill="#50d8e8"/>
        <path id="Path_561" data-name="Path 561" d="M407.607,627.95l11.046-15.665-11.062,17.377-.017,1.79q-1.171-.017-2.318-.09l1.04-22.99-.011-.178.02-.034.1-2.172L395.07,588.725l11.356,15.635.031.46.786-17.37L397.519,569.6l9.821,14.8.692-36.006,0-.12v.118l.043,28.391,9.474-11.322-9.5,13.767-.143,15.549,8.819-14.983-8.838,17.269-.08,8.646,12.8-20.86-12.834,23.876Z" transform="translate(-289.393 -361.983)" fill="#50d8e8"/>
        <path id="Path_563" data-name="Path 563" d="M865.912,765.7c-4.52,2.665-6.3,8.022-6.3,8.022s5.549,1.036,10.069-1.629,6.3-8.022,6.3-8.022S870.432,763.036,865.912,765.7Z" transform="translate(-586.425 -499.841)" fill="#50d8e8"/>
        <path id="Path_564" data-name="Path 564" d="M867.079,755.593c-2.531,4.6-7.834,6.532-7.834,6.532s-1.2-5.516,1.332-10.112,7.834-6.532,7.834-6.532S869.61,751,867.079,755.593Z" transform="translate(-586.009 -488.08)" fill="#50d8e8"/>
      </g>
    </g>
    <g id="Group_5565" data-name="Group 5565" transform="translate(-943 -6033.42)">
      <path id="Path_3820" data-name="Path 3820" d="M342.356,86.483l21.355-12.24v6.012L342.356,92.5Z" transform="translate(838.973 6292.544)" fill="#052145" fill-rule="evenodd"/>
      <g id="Group_5552" data-name="Group 5552" transform="translate(1038.42 6390.532)">
        <path id="Path_3823" data-name="Path 3823" d="M283.4,136.828a24.37,24.37,0,1,0-24.368-24.37A24.419,24.419,0,0,0,283.4,136.828Z" transform="translate(-259.033 -88.088)" fill="#121212" fill-rule="evenodd"/>
        <path id="Path_3824" data-name="Path 3824" d="M279.534,123.684a15.094,15.094,0,1,0-15.093-15.093A15.122,15.122,0,0,0,279.534,123.684Z" transform="translate(-255.166 -84.221)" fill="#e0e0e0" fill-rule="evenodd"/>
        <path id="Path_3825" data-name="Path 3825" d="M278.419,119.9A12.421,12.421,0,1,0,266,107.476,12.445,12.445,0,0,0,278.419,119.9Z" transform="translate(-254.051 -83.106)" fill="#777778" fill-rule="evenodd"/>
      </g>
      <path id="Path_3826" data-name="Path 3826" d="M303.933,54.215c-.7.936-2.689,9.172-3.435,10.088-11.1,13.6-26.524,25.469-23.991,43.091,13.23,4.742,16.2,9.3,22,20.684,4.591,9,8.457,12.375,13.529,13.633l43.42.158C367.644,107.8,362.994,120.31,415.2,126.3c3.619-17.9-26.289-25.749-29.189-34.345l-47.478.07c-.333,2.4,6.55,5.65,11.021,10.521,5,5.439-11.562,5.823-12.436,23.44l-26.9-.786A31.419,31.419,0,0,1,299.1,100.369c.492-11.08,8.57-22.792,10.069-32.8C310.865,56.268,309.1,55.088,303.933,54.215Z" transform="translate(791.685 6278.221)" fill="#50d8e8" fill-rule="evenodd"/>
      <rect id="Rectangle_4126" data-name="Rectangle 4126" width="52.189" height="17.145" rx="2.869" transform="translate(1127.068 6356.021)" fill="#052145"/>
      <path id="Path_3827" data-name="Path 3827" d="M284.41,84.513a30.52,30.52,0,0,1,28.624,41.065c-23.852-7.238-20.5-18.377-55.412-25.159A30.5,30.5,0,0,1,284.41,84.513Z" transform="translate(778.378 6299.888)" fill="#33bfcf" fill-rule="evenodd"/>
      <g id="Group_5553" data-name="Group 5553" transform="translate(1154.902 6390.532)">
        <circle id="Ellipse_109" data-name="Ellipse 109" cx="24.37" cy="24.37" r="24.37" transform="translate(0 0)" fill="#121212"/>
        <path id="Path_3828" data-name="Path 3828" d="M347.45,123.684a15.094,15.094,0,1,0-15.093-15.093A15.122,15.122,0,0,0,347.45,123.684Z" transform="translate(-323.08 -84.22)" fill="#e0e0e0" fill-rule="evenodd"/>
        <path id="Path_3829" data-name="Path 3829" d="M346.336,119.9a12.421,12.421,0,1,0-12.421-12.421A12.443,12.443,0,0,0,346.336,119.9Z" transform="translate(-321.966 -83.106)" fill="#777778" fill-rule="evenodd"/>
      </g>
      <path id="Path_3830" data-name="Path 3830" d="M318.339,104.229a3.711,3.711,0,1,1,4.44-5.946l9.135,6.83c.045.034.091.069.134.1l.5.367a11.483,11.483,0,0,0,2.053,1.372,18.594,18.594,0,0,0,3.669.127h.276l26.691-.132a3.7,3.7,0,0,1,.027,7.4l-26.687.13-.278,0c-2.9.015-4.3.022-5.845-.446a13.343,13.343,0,0,1-4.288-2.475l-.5-.367c-.065-.043-.129-.086-.19-.134Z" transform="translate(820.731 6309.207)" fill="#33bfcf" fill-rule="evenodd"/>
      <path id="Path_3831" data-name="Path 3831" d="M296.446,95.786h29.392a2.049,2.049,0,0,1,2.044,2.043h0a2.05,2.05,0,0,1-2.044,2.044H296.446a2.051,2.051,0,0,1-2.044-2.044h0A2.05,2.05,0,0,1,296.446,95.786Z" transform="translate(804.68 6307.949)" fill="#052145" fill-rule="evenodd"/>
      <path id="Path_3832" data-name="Path 3832" d="M286.744,51.005H294.9a7.253,7.253,0,0,1,7.231,7.233V62.09a7.252,7.252,0,0,1-7.231,7.231h-8.161c-3.977,0-4.262-3.254-4.262-7.231V58.238C282.482,54.259,282.767,51.005,286.744,51.005Z" transform="translate(796.156 6275.926)" fill="#50d8e8" fill-rule="evenodd"/>
      <path id="Path_3833" data-name="Path 3833" d="M286.744,51.005l3.6,1.729-.312,15.093-3.286,1.494c-3.977,0-4.262-3.254-4.262-7.231V58.238C282.482,54.259,282.767,51.005,286.744,51.005Z" transform="translate(796.156 6275.926)" fill="#e0e0e0" fill-rule="evenodd"/>
      <path id="Path_3834" data-name="Path 3834" d="M285.236,51.005h4.385V69.321h-4.385a6.4,6.4,0,0,1-.645-.031V51.036A6.4,6.4,0,0,1,285.236,51.005Z" transform="translate(797.664 6275.926)" fill="#33bfcf" fill-rule="evenodd"/>
      <path id="Path_3835" data-name="Path 3835" d="M295.042,55.1l20.187,5.646a3.813,3.813,0,0,1,2.605,3.5h0a2,2,0,0,1-2.605,2.092l-20.187-5.646a3.814,3.814,0,0,1-2.6-3.5h0A2,2,0,0,1,295.042,55.1Z" transform="translate(803.275 6278.787)" fill="#052145" fill-rule="evenodd"/>
      <path id="Path_3861" data-name="Path 3861" d="M362.745,85.377A30.521,30.521,0,0,0,323.306,116.2c24.927.1,25-11.531,60.362-7.74A30.493,30.493,0,0,0,362.745,85.377Z" transform="translate(825.317 6299.535)" fill="#33bfcf" fill-rule="evenodd"/>
      <g id="Group_5563" data-name="Group 5563" transform="translate(1175.313 6328.124)">
        <g id="Group_5560" data-name="Group 5560" transform="translate(0 0)">
          <rect id="Rectangle_4127" data-name="Rectangle 4127" width="45.451" height="38.561" transform="translate(1.12 0.605)" fill="#d8bd76"/>
          <rect id="Rectangle_4128" data-name="Rectangle 4128" width="45.526" height="8.504" transform="translate(1.12 0.605)" fill="#c4aa68"/>
          <rect id="Rectangle_4129" data-name="Rectangle 4129" width="47.693" height="6.83" fill="#e7d691"/>
        </g>
        <g id="Group_5562" data-name="Group 5562" transform="translate(28.474 9.982)">
          <rect id="Rectangle_4130" data-name="Rectangle 4130" width="15.481" height="7.023" fill="#dfe9f2"/>
          <g id="Group_5561" data-name="Group 5561" transform="translate(1.132 0.899)">
            <rect id="Rectangle_4131" data-name="Rectangle 4131" width="1.645" height="5.224" fill="#818286"/>
            <rect id="Rectangle_4132" data-name="Rectangle 4132" width="1.646" height="5.224" transform="translate(2.936)" fill="#818286"/>
            <rect id="Rectangle_4133" data-name="Rectangle 4133" width="1.645" height="5.224" transform="translate(5.971)" fill="#818286"/>
            <rect id="Rectangle_4134" data-name="Rectangle 4134" width="1.646" height="5.224" transform="translate(8.752)" fill="#818286"/>
            <rect id="Rectangle_4135" data-name="Rectangle 4135" width="1.645" height="5.224" transform="translate(11.572)" fill="#818286"/>
          </g>
        </g>
      </g>
      <rect id="Rectangle_4136" data-name="Rectangle 4136" width="50.17" height="6.012" transform="translate(1174.074 6366.788)" fill="#052145"/>
    </g>
  </g>
</svg>
