<svg xmlns="http://www.w3.org/2000/svg" width="60" height="33.895" viewBox="0 0 60 33.895">
  <g id="Group_5906" data-name="Group 5906" transform="translate(-26 -681.105)">
    <path id="Path_4262" data-name="Path 4262" d="M246.966,282.471c0,.79,13.431,1.431,30,1.431s30-.64,30-1.431-13.431-1.43-30-1.43S246.966,281.682,246.966,282.471Z" transform="translate(-220.966 431.098)" opacity="0.3"/>
    <g id="Group_5905" data-name="Group 5905" transform="translate(28 663.592)">
      <path id="Path_3881" data-name="Path 3881" d="M348.607,77.826l-6.251-3.583V76l6.251,3.583Z" transform="translate(-336.046 -45.063)" fill="#052145" fill-rule="evenodd"/>
      <g id="Group_5571" data-name="Group 5571" transform="translate(40.126 36.131)">
        <path id="Path_3884" data-name="Path 3884" d="M266.167,102.355a7.133,7.133,0,1,1,7.133-7.133A7.148,7.148,0,0,1,266.167,102.355Z" transform="translate(-259.033 -88.088)" fill="#121212" fill-rule="evenodd"/>
        <path id="Path_3885" data-name="Path 3885" d="M268.859,102.332a4.418,4.418,0,1,1,4.418-4.418A4.426,4.426,0,0,1,268.859,102.332Z" transform="translate(-261.726 -90.781)" fill="#e0e0e0" fill-rule="evenodd"/>
        <path id="Path_3886" data-name="Path 3886" d="M269.636,102.327a3.636,3.636,0,1,1,3.635-3.636A3.643,3.643,0,0,1,269.636,102.327Z" transform="translate(-262.502 -91.557)" fill="#777778" fill-rule="evenodd"/>
      </g>
      <path id="Path_3887" data-name="Path 3887" d="M308.889,54.215c.205.274.787,2.685,1.006,2.953,3.248,3.982,7.764,7.455,7.023,12.613-3.873,1.388-4.741,2.723-6.44,6.055-1.344,2.635-2.476,3.622-3.96,3.991l-12.71.046c-3.567-9.974-2.206-6.311-17.488-4.556-1.059-5.24,7.7-7.537,8.544-10.053l13.9.021c.1.7-1.917,1.654-3.226,3.08-1.463,1.592,3.384,1.7,3.64,6.861l7.873-.23a9.2,9.2,0,0,0,3.254-7.27c-.144-3.243-2.509-6.672-2.947-9.6C306.86,54.816,307.377,54.471,308.889,54.215Z" transform="translate(-271.238 -35.09)" fill="#50d8e8" fill-rule="evenodd"/>
      <rect id="Rectangle_4137" data-name="Rectangle 4137" width="15.276" height="5.019" rx="2.509" transform="translate(13.168 26.029)" fill="#052145"/>
      <path id="Path_3888" data-name="Path 3888" d="M266.551,84.513a8.933,8.933,0,0,0-8.379,12.02c6.982-2.119,6-5.379,16.22-7.364A8.927,8.927,0,0,0,266.551,84.513Z" transform="translate(-219.29 -50.177)" fill="#33bfcf" fill-rule="evenodd"/>
      <g id="Group_5572" data-name="Group 5572" transform="translate(6.03 36.131)">
        <ellipse id="Ellipse_110" data-name="Ellipse 110" cx="7.133" cy="7.133" rx="7.133" ry="7.133" fill="#121212"/>
        <path id="Path_3889" data-name="Path 3889" d="M336.775,102.332a4.418,4.418,0,1,1,4.418-4.418A4.426,4.426,0,0,1,336.775,102.332Z" transform="translate(-329.642 -90.781)" fill="#e0e0e0" fill-rule="evenodd"/>
        <path id="Path_3890" data-name="Path 3890" d="M337.551,102.327a3.636,3.636,0,1,1,3.636-3.636A3.642,3.642,0,0,1,337.551,102.327Z" transform="translate(-330.417 -91.557)" fill="#777778" fill-rule="evenodd"/>
      </g>
      <path id="Path_3891" data-name="Path 3891" d="M331.662,99.5a1.086,1.086,0,1,0-1.3-1.741l-2.674,2-.039.031-.147.107a3.36,3.36,0,0,1-.6.4,5.442,5.442,0,0,1-1.074.037h-.081l-7.813-.039a1.083,1.083,0,0,0-.008,2.166l7.812.038h.081a5.6,5.6,0,0,0,1.711-.131,3.9,3.9,0,0,0,1.255-.724l.147-.107c.019-.013.038-.025.056-.039Z" transform="translate(-306.731 -56.666)" fill="#33bfcf" fill-rule="evenodd"/>
      <path id="Path_3892" data-name="Path 3892" d="M303.6,95.786H295a.6.6,0,0,0-.6.6h0a.6.6,0,0,0,.6.6h8.6a.6.6,0,0,0,.6-.6h0A.6.6,0,0,0,303.6,95.786Z" transform="translate(-267.566 -55.791)" fill="#052145" fill-rule="evenodd"/>
      <path id="Path_3893" data-name="Path 3893" d="M286.987,51.005H284.6a2.123,2.123,0,0,0-2.117,2.117V54.25a2.123,2.123,0,0,0,2.117,2.117h2.389c1.164,0,1.248-.952,1.248-2.117V53.122C288.235,51.957,288.152,51.005,286.987,51.005Z" transform="translate(-245.614 -33.491)" fill="#50d8e8" fill-rule="evenodd"/>
      <path id="Path_3894" data-name="Path 3894" d="M283.535,51.005l-1.053.506.091,4.418.962.437c1.164,0,1.248-.952,1.248-2.117V53.122C284.783,51.957,284.7,51.005,283.535,51.005Z" transform="translate(-242.162 -33.491)" fill="#e0e0e0" fill-rule="evenodd"/>
      <path id="Path_3895" data-name="Path 3895" d="M285.875,51.005h-1.284v5.361h1.284a1.871,1.871,0,0,0,.189-.009V51.014A1.871,1.871,0,0,0,285.875,51.005Z" transform="translate(-244.501 -33.491)" fill="#33bfcf" fill-rule="evenodd"/>
      <path id="Path_3896" data-name="Path 3896" d="M299.109,55.033,293.2,56.685a1.116,1.116,0,0,0-.763,1.023h0a.585.585,0,0,0,.763.612l5.909-1.653a1.116,1.116,0,0,0,.762-1.023h0A.585.585,0,0,0,299.109,55.033Z" transform="translate(-262.249 -35.484)" fill="#052145" fill-rule="evenodd"/>
      <path id="Path_3922" data-name="Path 3922" d="M329.385,84.417a8.934,8.934,0,0,1,11.544,9.023c-7.3.03-7.319-3.375-17.669-2.266A8.926,8.926,0,0,1,329.385,84.417Z" transform="translate(-318.794 -49.931)" fill="#33bfcf" fill-rule="evenodd"/>
      <g id="Group_5582" data-name="Group 5582" transform="translate(0.362 17.863)">
        <g id="Group_5579" data-name="Group 5579">
          <rect id="Rectangle_4138" data-name="Rectangle 4138" width="13.304" height="11.287" transform="translate(0.328 0.177)" fill="#d8bd76"/>
          <rect id="Rectangle_4139" data-name="Rectangle 4139" width="13.326" height="2.489" transform="translate(0.306 0.177)" fill="#c4aa68"/>
          <rect id="Rectangle_4140" data-name="Rectangle 4140" width="13.96" height="1.999" fill="#e7d691"/>
        </g>
        <g id="Group_5581" data-name="Group 5581" transform="translate(1.094 2.922)">
          <rect id="Rectangle_4141" data-name="Rectangle 4141" width="4.532" height="2.056" fill="#dfe9f2"/>
          <g id="Group_5580" data-name="Group 5580" transform="translate(0.331 0.263)">
            <rect id="Rectangle_4142" data-name="Rectangle 4142" width="0.481" height="1.529" transform="translate(3.387)" fill="#818286"/>
            <rect id="Rectangle_4143" data-name="Rectangle 4143" width="0.482" height="1.529" transform="translate(2.527)" fill="#818286"/>
            <rect id="Rectangle_4144" data-name="Rectangle 4144" width="0.481" height="1.529" transform="translate(1.639)" fill="#818286"/>
            <rect id="Rectangle_4145" data-name="Rectangle 4145" width="0.482" height="1.529" transform="translate(0.825)" fill="#818286"/>
            <rect id="Rectangle_4146" data-name="Rectangle 4146" width="0.481" height="1.529" transform="translate(0)" fill="#818286"/>
          </g>
        </g>
      </g>
      <rect id="Rectangle_4147" data-name="Rectangle 4147" width="14.686" height="1.76" transform="translate(0 29.18)" fill="#052145"/>
    </g>
  </g>
</svg>
