<svg xmlns="http://www.w3.org/2000/svg" width="14.63" height="11.882" viewBox="0 0 14.63 11.882">
  <path id="Icon_awesome-twitter" data-name="Icon awesome-twitter" d="M13.126,6.342c.009.13.009.26.009.39A8.472,8.472,0,0,1,4.6,15.263,8.473,8.473,0,0,1,0,13.917a6.2,6.2,0,0,0,.724.037,6,6,0,0,0,3.722-1.281,3,3,0,0,1-2.8-2.079,3.781,3.781,0,0,0,.566.046,3.171,3.171,0,0,0,.789-.1A3,3,0,0,1,.594,7.6V7.558a3.02,3.02,0,0,0,1.355.381,3,3,0,0,1-.928-4.01A8.523,8.523,0,0,0,7.2,7.066a3.385,3.385,0,0,1-.074-.687,3,3,0,0,1,5.189-2.052,5.9,5.9,0,0,0,1.9-.724A2.99,2.99,0,0,1,12.9,5.256a6.011,6.011,0,0,0,1.727-.464,6.445,6.445,0,0,1-1.5,1.55Z" transform="translate(0 -3.381)" fill="#fff"/>
</svg>
