<svg xmlns="http://www.w3.org/2000/svg" width="16.839" height="15.592" viewBox="0 0 16.839 15.592">
  <path id="Icon_metro-suitcase" data-name="Icon metro-suitcase" d="M20.091,21.376H5.746A1.247,1.247,0,0,1,4.5,20.129V12.645A31.758,31.758,0,0,0,10.736,15v.758a.623.623,0,0,0,.624.624h3.118a.624.624,0,0,0,.624-.624V15a31.777,31.777,0,0,0,6.237-2.36v7.484A1.248,1.248,0,0,1,20.091,21.376Zm-6.237-7.484a.624.624,0,0,1,.624.624v.624a.624.624,0,0,1-.624.624H11.983a.623.623,0,0,1-.624-.624v-.624a.623.623,0,0,1,.624-.624Zm1.247,0a.624.624,0,0,0-.624-.624H11.359a.623.623,0,0,0-.624.624v.559A31.24,31.24,0,0,1,4.5,12.021V9.526A1.247,1.247,0,0,1,5.746,8.279H9.488V7.031a1.248,1.248,0,0,1,1.247-1.247H15.1a1.248,1.248,0,0,1,1.247,1.247V8.279h3.742a1.248,1.248,0,0,1,1.247,1.247v2.495a31.258,31.258,0,0,1-6.237,2.43v-.559Zm0-6.237a.624.624,0,0,0-.624-.624H11.359a.623.623,0,0,0-.624.624v.624H15.1Z" transform="translate(-4.499 -5.784)" fill="#50d8e8"/>
</svg>
